G75*
%MOIN*%
%OFA0B0*%
%FSLAX25Y25*%
%IPPOS*%
%LPD*%
%AMOC8*
5,1,8,0,0,1.08239X$1,22.5*
%
%ADD10C,0.13386*%
%ADD11C,0.06299*%
%ADD12R,0.05433X0.08268*%
%ADD13R,0.07874X0.18543*%
%ADD14R,0.07874X0.09724*%
%ADD15C,0.07677*%
%ADD16C,0.07874*%
%ADD17R,0.07480X0.20079*%
%ADD18R,0.15748X0.05906*%
%ADD19R,0.01772X0.05709*%
%ADD20R,0.01181X0.02874*%
%ADD21R,0.09843X0.09843*%
%ADD22R,0.02874X0.01181*%
%ADD23R,0.09055X0.05984*%
%ADD24C,0.01102*%
%ADD25R,0.04724X0.07874*%
%ADD26R,0.01181X0.01102*%
%ADD27R,0.05906X0.03937*%
%ADD28R,0.03740X0.02756*%
%ADD29R,0.05512X0.03543*%
%ADD30R,0.02756X0.03740*%
%ADD31R,0.03937X0.05906*%
%ADD32R,0.05984X0.09055*%
%ADD33R,0.08661X0.02362*%
%ADD34R,0.02362X0.04134*%
%ADD35R,0.03937X0.05512*%
%ADD36R,0.03543X0.05512*%
%ADD37R,0.03150X0.03150*%
%ADD38C,0.07087*%
%ADD39R,0.01969X0.01969*%
%ADD40C,0.00394*%
%ADD41R,0.05512X0.03937*%
%ADD42R,0.01575X0.01969*%
%ADD43C,0.01181*%
%ADD44C,0.01969*%
%ADD45OC8,0.03569*%
%ADD46OC8,0.02781*%
%ADD47C,0.03937*%
%ADD48C,0.09843*%
%ADD49C,0.01575*%
%ADD50OC8,0.03962*%
%ADD51C,0.07874*%
%ADD52C,0.05906*%
D10*
X0041748Y0099213D03*
X0041748Y0150945D03*
D11*
X0052378Y0138858D03*
X0052378Y0129016D03*
X0052378Y0121142D03*
X0052378Y0111299D03*
D12*
X0234701Y0107165D03*
X0252339Y0107165D03*
X0252339Y0142992D03*
X0234701Y0142992D03*
D13*
X0164780Y0119390D03*
X0322260Y0119390D03*
D14*
X0322260Y0135138D03*
X0164780Y0135138D03*
D15*
X0365409Y0065925D02*
X0365409Y0058248D01*
X0385409Y0058248D02*
X0385409Y0065925D01*
D16*
X0398047Y0087677D03*
X0368520Y0087677D03*
D17*
X0326591Y0074882D03*
X0310055Y0074882D03*
D18*
X0085055Y0179016D03*
X0085055Y0193189D03*
D19*
X0306610Y0052047D03*
X0309169Y0052047D03*
X0311728Y0052047D03*
X0314287Y0052047D03*
X0314287Y0034724D03*
X0311728Y0034724D03*
X0309169Y0034724D03*
X0306610Y0034724D03*
D20*
X0293717Y0198051D03*
X0291748Y0198051D03*
X0289780Y0198051D03*
X0287811Y0198051D03*
X0285843Y0198051D03*
X0285843Y0213524D03*
X0287811Y0213524D03*
X0289780Y0213524D03*
X0291748Y0213524D03*
X0293717Y0213524D03*
X0175606Y0213524D03*
X0173638Y0213524D03*
X0171669Y0213524D03*
X0169701Y0213524D03*
X0167732Y0213524D03*
X0167732Y0198051D03*
X0169701Y0198051D03*
X0171669Y0198051D03*
X0173638Y0198051D03*
X0175606Y0198051D03*
D21*
X0171669Y0205787D03*
X0289780Y0205787D03*
D22*
X0282043Y0205787D03*
X0282043Y0203819D03*
X0282043Y0201850D03*
X0282043Y0207756D03*
X0282043Y0209724D03*
X0297516Y0209724D03*
X0297516Y0207756D03*
X0297516Y0205787D03*
X0297516Y0203819D03*
X0297516Y0201850D03*
X0179406Y0201850D03*
X0179406Y0203819D03*
X0179406Y0205787D03*
X0179406Y0207756D03*
X0179406Y0209724D03*
X0163933Y0209724D03*
X0163933Y0207756D03*
X0163933Y0205787D03*
X0163933Y0203819D03*
X0163933Y0201850D03*
D23*
X0171669Y0174823D03*
X0171669Y0158012D03*
X0289780Y0158012D03*
X0289780Y0174823D03*
D24*
X0067378Y0182165D02*
X0065330Y0182165D01*
X0065330Y0184134D02*
X0067378Y0184134D01*
X0067378Y0186102D02*
X0065330Y0186102D01*
X0065330Y0188071D02*
X0067378Y0188071D01*
X0067378Y0190039D02*
X0065330Y0190039D01*
X0057536Y0190039D02*
X0055488Y0190039D01*
X0055488Y0188071D02*
X0057536Y0188071D01*
X0057536Y0186102D02*
X0055488Y0186102D01*
X0055488Y0184134D02*
X0057536Y0184134D01*
X0057536Y0182165D02*
X0055488Y0182165D01*
D25*
X0061433Y0186102D03*
D26*
X0055528Y0186102D03*
X0055528Y0184134D03*
X0055528Y0182165D03*
X0055528Y0188071D03*
X0055528Y0190039D03*
X0067339Y0190039D03*
X0067339Y0188071D03*
X0067339Y0186102D03*
X0067339Y0184134D03*
X0067339Y0182165D03*
D27*
X0151984Y0188071D03*
X0151984Y0199882D03*
X0163795Y0219567D03*
X0163795Y0231378D03*
X0270094Y0199882D03*
X0270094Y0188071D03*
X0281906Y0219567D03*
X0281906Y0231378D03*
X0338008Y0072913D03*
X0345882Y0072913D03*
X0345882Y0061102D03*
X0338008Y0061102D03*
X0330134Y0049291D03*
X0322260Y0049291D03*
X0322260Y0037480D03*
X0330134Y0037480D03*
D28*
X0318323Y0030295D03*
X0318323Y0024980D03*
X0254346Y0085020D03*
X0254346Y0090335D03*
X0204150Y0043091D03*
X0204150Y0037776D03*
X0179543Y0037776D03*
X0179543Y0043091D03*
X0141157Y0042106D03*
X0141157Y0036791D03*
X0077181Y0111594D03*
X0077181Y0116909D03*
X0069307Y0116909D03*
X0069307Y0111594D03*
X0069307Y0133248D03*
X0069307Y0138563D03*
X0077181Y0138563D03*
X0077181Y0133248D03*
X0142142Y0167697D03*
X0142142Y0173012D03*
X0138205Y0189350D03*
X0138205Y0194665D03*
X0144110Y0195256D03*
X0144110Y0200571D03*
X0184465Y0191713D03*
X0184465Y0186398D03*
X0187417Y0180886D03*
X0187417Y0175571D03*
X0191354Y0186398D03*
X0191354Y0191713D03*
X0180528Y0222815D03*
X0173638Y0222815D03*
X0173638Y0228130D03*
X0180528Y0228130D03*
X0256315Y0194665D03*
X0256315Y0189350D03*
X0262220Y0195256D03*
X0262220Y0200571D03*
X0302575Y0191713D03*
X0302575Y0186398D03*
X0305528Y0180886D03*
X0305528Y0175571D03*
X0309465Y0186398D03*
X0309465Y0191713D03*
X0298638Y0222815D03*
X0291748Y0222815D03*
X0291748Y0228130D03*
X0298638Y0228130D03*
X0048638Y0185807D03*
X0048638Y0180492D03*
X0041748Y0183445D03*
X0035843Y0183445D03*
X0035843Y0188760D03*
X0041748Y0188760D03*
D29*
X0298638Y0050866D03*
X0298638Y0043780D03*
D30*
X0307791Y0059134D03*
X0313106Y0059134D03*
X0305232Y0027638D03*
X0299917Y0027638D03*
X0299917Y0021732D03*
X0305232Y0021732D03*
X0234366Y0032559D03*
X0229051Y0032559D03*
X0229051Y0040433D03*
X0234366Y0040433D03*
X0234366Y0048307D03*
X0229051Y0048307D03*
X0229051Y0056181D03*
X0234366Y0056181D03*
X0132988Y0029606D03*
X0127673Y0029606D03*
X0068028Y0056181D03*
X0062713Y0056181D03*
X0056217Y0056181D03*
X0050902Y0056181D03*
X0070587Y0125079D03*
X0075902Y0125079D03*
X0052280Y0166417D03*
X0046965Y0166417D03*
X0046965Y0174291D03*
X0052280Y0174291D03*
X0137516Y0182165D03*
X0142831Y0182165D03*
X0172949Y0184134D03*
X0178264Y0184134D03*
X0178264Y0191024D03*
X0172949Y0191024D03*
X0185744Y0197913D03*
X0191059Y0197913D03*
X0193618Y0205787D03*
X0198933Y0205787D03*
X0198933Y0211693D03*
X0193618Y0211693D03*
X0255626Y0183150D03*
X0260941Y0183150D03*
X0260547Y0166417D03*
X0265862Y0166417D03*
X0291059Y0184134D03*
X0296374Y0184134D03*
X0296374Y0191024D03*
X0291059Y0191024D03*
X0303854Y0199882D03*
X0309169Y0199882D03*
X0311728Y0207756D03*
X0317043Y0207756D03*
X0276689Y0210709D03*
X0271374Y0210709D03*
X0154642Y0166417D03*
X0149327Y0166417D03*
X0216256Y0138858D03*
X0221571Y0138858D03*
X0263500Y0138858D03*
X0268815Y0138858D03*
D31*
X0071276Y0166417D03*
X0059465Y0166417D03*
X0059465Y0174291D03*
X0071276Y0174291D03*
X0071276Y0197913D03*
X0059465Y0197913D03*
X0055528Y0048307D03*
X0067339Y0048307D03*
D32*
X0407358Y0051260D03*
X0424169Y0051260D03*
D33*
X0130724Y0051870D03*
X0130724Y0046870D03*
X0130724Y0041870D03*
X0130724Y0036870D03*
X0110252Y0036870D03*
X0110252Y0041870D03*
X0110252Y0046870D03*
X0110252Y0051870D03*
D34*
X0069110Y0062677D03*
X0061630Y0062677D03*
X0061630Y0073307D03*
X0065370Y0073307D03*
X0069110Y0073307D03*
D35*
X0215173Y0083346D03*
X0222654Y0083346D03*
X0218913Y0092008D03*
X0238795Y0083346D03*
X0246276Y0083346D03*
X0242535Y0092008D03*
X0270291Y0083346D03*
X0277772Y0083346D03*
X0274031Y0092008D03*
D36*
X0269701Y0115236D03*
X0262614Y0115236D03*
X0262614Y0127047D03*
X0269701Y0127047D03*
X0222457Y0127047D03*
X0215370Y0127047D03*
X0215370Y0115236D03*
X0222457Y0115236D03*
D37*
X0240567Y0056181D03*
X0246472Y0056181D03*
X0246472Y0048307D03*
X0240567Y0048307D03*
X0240567Y0040433D03*
X0246472Y0040433D03*
X0246472Y0032559D03*
X0240567Y0032559D03*
D38*
X0144425Y0020748D03*
X0134425Y0020748D03*
X0124425Y0020748D03*
X0114425Y0020748D03*
X0104425Y0020748D03*
D39*
X0108677Y0138465D03*
X0108677Y0147126D03*
X0108677Y0169961D03*
X0108677Y0178622D03*
X0333087Y0158937D03*
X0333087Y0150276D03*
D40*
X0333461Y0150687D02*
X0334196Y0150827D01*
X0334892Y0151101D01*
X0335525Y0151501D01*
X0336071Y0152012D01*
X0336513Y0152616D01*
X0336834Y0153292D01*
X0337024Y0154016D01*
X0329150Y0154016D01*
X0329339Y0153292D01*
X0329660Y0152616D01*
X0330102Y0152012D01*
X0330649Y0151501D01*
X0331281Y0151101D01*
X0331977Y0150827D01*
X0332712Y0150687D01*
X0333461Y0150687D01*
X0334389Y0150903D02*
X0331784Y0150903D01*
X0330974Y0151295D02*
X0335199Y0151295D01*
X0335724Y0151687D02*
X0330449Y0151687D01*
X0330052Y0152080D02*
X0336121Y0152080D01*
X0336408Y0152472D02*
X0329765Y0152472D01*
X0329542Y0152864D02*
X0336631Y0152864D01*
X0336817Y0153256D02*
X0329356Y0153256D01*
X0329246Y0153648D02*
X0336928Y0153648D01*
X0337024Y0155197D02*
X0329150Y0155197D01*
X0329339Y0155921D01*
X0329660Y0156597D01*
X0330102Y0157201D01*
X0330649Y0157712D01*
X0331281Y0158111D01*
X0331977Y0158386D01*
X0332712Y0158526D01*
X0333461Y0158526D01*
X0334196Y0158386D01*
X0334892Y0158111D01*
X0335525Y0157712D01*
X0336071Y0157201D01*
X0336513Y0156597D01*
X0336834Y0155921D01*
X0337024Y0155197D01*
X0337018Y0155217D02*
X0329155Y0155217D01*
X0329257Y0155609D02*
X0336916Y0155609D01*
X0336796Y0156002D02*
X0329377Y0156002D01*
X0329564Y0156394D02*
X0336610Y0156394D01*
X0336375Y0156786D02*
X0329799Y0156786D01*
X0330085Y0157178D02*
X0336088Y0157178D01*
X0335676Y0157571D02*
X0330498Y0157571D01*
X0331046Y0157963D02*
X0335127Y0157963D01*
X0334275Y0158355D02*
X0331899Y0158355D01*
X0112614Y0143386D02*
X0104740Y0143386D01*
X0104929Y0144110D01*
X0105251Y0144786D01*
X0105692Y0145390D01*
X0106239Y0145901D01*
X0106872Y0146300D01*
X0107568Y0146575D01*
X0108303Y0146715D01*
X0109051Y0146715D01*
X0109786Y0146575D01*
X0110483Y0146300D01*
X0111115Y0145901D01*
X0111662Y0145390D01*
X0112104Y0144786D01*
X0112425Y0144110D01*
X0112614Y0143386D01*
X0112597Y0143451D02*
X0104757Y0143451D01*
X0104860Y0143843D02*
X0112495Y0143843D01*
X0112365Y0144235D02*
X0104989Y0144235D01*
X0105175Y0144628D02*
X0112179Y0144628D01*
X0111933Y0145020D02*
X0105422Y0145020D01*
X0105716Y0145412D02*
X0111638Y0145412D01*
X0111218Y0145804D02*
X0106136Y0145804D01*
X0106707Y0146196D02*
X0110647Y0146196D01*
X0109715Y0146589D02*
X0107640Y0146589D01*
X0104740Y0142205D02*
X0112614Y0142205D01*
X0112425Y0141481D01*
X0112104Y0140805D01*
X0111662Y0140201D01*
X0111115Y0139690D01*
X0110483Y0139290D01*
X0109786Y0139016D01*
X0109051Y0138876D01*
X0108303Y0138876D01*
X0107568Y0139016D01*
X0106872Y0139290D01*
X0106239Y0139690D01*
X0105692Y0140201D01*
X0105251Y0140805D01*
X0104929Y0141481D01*
X0104740Y0142205D01*
X0104825Y0141882D02*
X0112530Y0141882D01*
X0112427Y0141490D02*
X0104927Y0141490D01*
X0105112Y0141098D02*
X0112243Y0141098D01*
X0112031Y0140705D02*
X0105323Y0140705D01*
X0105610Y0140313D02*
X0111744Y0140313D01*
X0111362Y0139921D02*
X0105992Y0139921D01*
X0106494Y0139529D02*
X0110860Y0139529D01*
X0110093Y0139137D02*
X0107261Y0139137D01*
X0108303Y0170372D02*
X0109051Y0170372D01*
X0109786Y0170512D01*
X0110483Y0170786D01*
X0111115Y0171186D01*
X0111662Y0171697D01*
X0112104Y0172301D01*
X0112425Y0172977D01*
X0112614Y0173701D01*
X0104740Y0173701D01*
X0104929Y0172977D01*
X0105251Y0172301D01*
X0105692Y0171697D01*
X0106239Y0171186D01*
X0106872Y0170786D01*
X0107568Y0170512D01*
X0108303Y0170372D01*
X0107563Y0170514D02*
X0109791Y0170514D01*
X0110672Y0170906D02*
X0106683Y0170906D01*
X0106119Y0171298D02*
X0111235Y0171298D01*
X0111655Y0171690D02*
X0105700Y0171690D01*
X0105410Y0172082D02*
X0111944Y0172082D01*
X0112186Y0172475D02*
X0105168Y0172475D01*
X0104982Y0172867D02*
X0112373Y0172867D01*
X0112499Y0173259D02*
X0104856Y0173259D01*
X0104753Y0173651D02*
X0112601Y0173651D01*
X0112614Y0174882D02*
X0104740Y0174882D01*
X0104929Y0175606D01*
X0105251Y0176282D01*
X0105692Y0176886D01*
X0106239Y0177397D01*
X0106872Y0177796D01*
X0107568Y0178071D01*
X0108303Y0178211D01*
X0109051Y0178211D01*
X0109786Y0178071D01*
X0110483Y0177796D01*
X0111115Y0177397D01*
X0111662Y0176886D01*
X0112104Y0176282D01*
X0112425Y0175606D01*
X0112614Y0174882D01*
X0112526Y0175220D02*
X0104829Y0175220D01*
X0104933Y0175612D02*
X0112422Y0175612D01*
X0112235Y0176004D02*
X0105119Y0176004D01*
X0105335Y0176397D02*
X0112020Y0176397D01*
X0111733Y0176789D02*
X0105622Y0176789D01*
X0106009Y0177181D02*
X0111346Y0177181D01*
X0110836Y0177573D02*
X0106519Y0177573D01*
X0107301Y0177966D02*
X0110054Y0177966D01*
D41*
X0187024Y0044173D03*
X0195685Y0040433D03*
X0187024Y0036693D03*
X0211630Y0036693D03*
X0220291Y0040433D03*
X0211630Y0044173D03*
D42*
X0267535Y0174488D03*
X0272654Y0174488D03*
X0272654Y0181969D03*
X0270094Y0181969D03*
X0267535Y0181969D03*
X0154543Y0181969D03*
X0151984Y0181969D03*
X0149425Y0181969D03*
X0149425Y0174488D03*
X0154543Y0174488D03*
D43*
X0024622Y0236223D02*
X0024622Y0013934D01*
X0030997Y0007559D01*
X0444231Y0007559D01*
X0462417Y0025745D01*
X0462417Y0074806D01*
X0444231Y0092992D01*
X0402197Y0092992D01*
X0427961Y0067229D01*
X0429843Y0065346D01*
X0430862Y0062886D01*
X0430862Y0043570D01*
X0429843Y0041110D01*
X0421438Y0032705D01*
X0419469Y0030736D01*
X0418485Y0029752D01*
X0416602Y0027869D01*
X0414142Y0026850D01*
X0321965Y0026850D01*
X0321965Y0022869D01*
X0320927Y0021831D01*
X0315719Y0021831D01*
X0315325Y0022224D01*
X0314527Y0022224D01*
X0313514Y0022644D01*
X0312738Y0023419D01*
X0312049Y0024108D01*
X0309392Y0026766D01*
X0308972Y0027779D01*
X0308972Y0030098D01*
X0308382Y0030098D01*
X0308382Y0025034D01*
X0308033Y0024685D01*
X0308382Y0024336D01*
X0308382Y0019128D01*
X0307344Y0018091D01*
X0303120Y0018091D01*
X0302083Y0019128D01*
X0302083Y0024050D01*
X0302029Y0023996D01*
X0297806Y0023996D01*
X0296920Y0024882D01*
X0294153Y0024882D01*
X0293140Y0025301D01*
X0292364Y0026077D01*
X0292364Y0026077D01*
X0288218Y0030223D01*
X0287443Y0030998D01*
X0287024Y0032011D01*
X0287024Y0056729D01*
X0287443Y0057742D01*
X0298835Y0069134D01*
X0298835Y0086145D01*
X0298835Y0087241D01*
X0299254Y0088254D01*
X0300843Y0089843D01*
X0277772Y0089843D01*
X0277772Y0088518D01*
X0277128Y0087874D01*
X0280474Y0087874D01*
X0280855Y0087493D01*
X0283460Y0087493D01*
X0285658Y0085295D01*
X0285658Y0082186D01*
X0283460Y0079987D01*
X0283176Y0079987D01*
X0282256Y0079606D01*
X0281261Y0079606D01*
X0280474Y0078819D01*
X0275069Y0078819D01*
X0274031Y0079857D01*
X0274031Y0086836D01*
X0273387Y0087480D01*
X0274676Y0087480D01*
X0274031Y0086836D01*
X0274031Y0079857D01*
X0272994Y0078819D01*
X0269661Y0078819D01*
X0267118Y0076276D01*
X0268926Y0074468D01*
X0268926Y0071359D01*
X0267929Y0070362D01*
X0267929Y0038901D01*
X0267510Y0037888D01*
X0248809Y0019187D01*
X0248809Y0019187D01*
X0248034Y0018412D01*
X0247021Y0017992D01*
X0149037Y0017992D01*
X0148931Y0017737D01*
X0147436Y0016242D01*
X0145482Y0015433D01*
X0143368Y0015433D01*
X0141415Y0016242D01*
X0139919Y0017737D01*
X0139425Y0018930D01*
X0138931Y0017737D01*
X0137436Y0016242D01*
X0135482Y0015433D01*
X0133368Y0015433D01*
X0133113Y0015539D01*
X0128112Y0010538D01*
X0127099Y0010118D01*
X0096318Y0010118D01*
X0095305Y0010538D01*
X0094530Y0011313D01*
X0078782Y0027061D01*
X0078362Y0028074D01*
X0078362Y0056378D01*
X0074031Y0056378D01*
X0074031Y0047563D01*
X0073462Y0046188D01*
X0072410Y0045136D01*
X0071035Y0044567D01*
X0071025Y0044567D01*
X0070041Y0043583D01*
X0064636Y0043583D01*
X0063598Y0044620D01*
X0063598Y0051994D01*
X0064144Y0052539D01*
X0060601Y0052539D01*
X0059715Y0053425D01*
X0059214Y0053425D01*
X0058328Y0052539D01*
X0054105Y0052539D01*
X0053067Y0053577D01*
X0053067Y0058785D01*
X0054105Y0059823D01*
X0058328Y0059823D01*
X0058874Y0059277D01*
X0058874Y0059680D01*
X0058677Y0059876D01*
X0058677Y0065478D01*
X0059715Y0066516D01*
X0063545Y0066516D01*
X0064583Y0065478D01*
X0064583Y0059876D01*
X0064529Y0059823D01*
X0064824Y0059823D01*
X0065370Y0059277D01*
X0065916Y0059823D01*
X0066211Y0059823D01*
X0066157Y0059876D01*
X0066157Y0065478D01*
X0067195Y0066516D01*
X0071025Y0066516D01*
X0071186Y0066355D01*
X0072410Y0065848D01*
X0073462Y0064796D01*
X0073850Y0063858D01*
X0079569Y0063858D01*
X0102622Y0086911D01*
X0103996Y0087480D01*
X0176008Y0087480D01*
X0176020Y0087493D01*
X0179129Y0087493D01*
X0179142Y0087480D01*
X0180929Y0087480D01*
X0180942Y0087493D01*
X0184050Y0087493D01*
X0184063Y0087480D01*
X0185850Y0087480D01*
X0185863Y0087493D01*
X0188972Y0087493D01*
X0191170Y0085295D01*
X0191170Y0082186D01*
X0188972Y0079987D01*
X0185863Y0079987D01*
X0185850Y0080000D01*
X0184063Y0080000D01*
X0184050Y0079987D01*
X0180942Y0079987D01*
X0180929Y0080000D01*
X0179142Y0080000D01*
X0179129Y0079987D01*
X0176020Y0079987D01*
X0176008Y0080000D01*
X0106289Y0080000D01*
X0084289Y0057999D01*
X0083874Y0057585D01*
X0083874Y0029764D01*
X0098008Y0015630D01*
X0102893Y0015630D01*
X0101415Y0016242D01*
X0099919Y0017737D01*
X0099110Y0019691D01*
X0099110Y0021805D01*
X0099484Y0022708D01*
X0099484Y0054229D01*
X0099904Y0055242D01*
X0100679Y0056017D01*
X0100679Y0056017D01*
X0107116Y0062454D01*
X0107116Y0062454D01*
X0118927Y0074265D01*
X0119940Y0074685D01*
X0136420Y0074685D01*
X0136420Y0077421D01*
X0138619Y0079619D01*
X0141728Y0079619D01*
X0142725Y0078622D01*
X0180929Y0078622D01*
X0181926Y0079619D01*
X0185035Y0079619D01*
X0187233Y0077421D01*
X0187233Y0074312D01*
X0185035Y0072113D01*
X0183296Y0072113D01*
X0183296Y0071745D01*
X0185035Y0071745D01*
X0187233Y0069547D01*
X0187233Y0066438D01*
X0185035Y0064239D01*
X0181926Y0064239D01*
X0180929Y0065236D01*
X0132115Y0065236D01*
X0132115Y0062501D01*
X0130532Y0060918D01*
X0130901Y0060918D01*
X0132882Y0058937D01*
X0141706Y0058937D01*
X0142719Y0058517D01*
X0143494Y0057742D01*
X0147220Y0054016D01*
X0173481Y0054016D01*
X0177982Y0058517D01*
X0178995Y0058937D01*
X0180929Y0058937D01*
X0181926Y0059934D01*
X0185035Y0059934D01*
X0187233Y0057736D01*
X0187233Y0054627D01*
X0185035Y0052428D01*
X0181926Y0052428D01*
X0180929Y0053425D01*
X0180685Y0053425D01*
X0177378Y0050118D01*
X0177378Y0046240D01*
X0178795Y0046240D01*
X0179065Y0046510D01*
X0180078Y0046929D01*
X0182550Y0046929D01*
X0183534Y0047913D01*
X0186866Y0047913D01*
X0188598Y0049645D01*
X0188598Y0061504D01*
X0187602Y0062501D01*
X0187602Y0065610D01*
X0188598Y0066606D01*
X0188598Y0073462D01*
X0189018Y0074474D01*
X0189793Y0075250D01*
X0191551Y0077008D01*
X0191551Y0086110D01*
X0190554Y0087107D01*
X0190554Y0089843D01*
X0146515Y0089843D01*
X0145502Y0090262D01*
X0144727Y0091037D01*
X0144307Y0092050D01*
X0144307Y0128580D01*
X0144727Y0129593D01*
X0145502Y0130368D01*
X0146515Y0130787D01*
X0174465Y0130787D01*
X0177772Y0134094D01*
X0177772Y0152202D01*
X0177814Y0152303D01*
X0120224Y0152303D01*
X0120304Y0152224D01*
X0120304Y0149115D01*
X0119307Y0148118D01*
X0119307Y0109913D01*
X0120304Y0108917D01*
X0120304Y0105808D01*
X0118106Y0103609D01*
X0114997Y0103609D01*
X0112798Y0105808D01*
X0112798Y0108917D01*
X0113795Y0109913D01*
X0113795Y0139778D01*
X0113604Y0139375D01*
X0113602Y0139319D01*
X0113558Y0139278D01*
X0113532Y0139224D01*
X0113479Y0139205D01*
X0113141Y0138889D01*
X0112868Y0138516D01*
X0112856Y0138462D01*
X0112805Y0138429D01*
X0112769Y0138381D01*
X0112715Y0138372D01*
X0112417Y0138184D01*
X0112417Y0110555D01*
X0111848Y0109181D01*
X0072410Y0069743D01*
X0071035Y0069173D01*
X0069547Y0069173D01*
X0068835Y0069469D01*
X0067195Y0069469D01*
X0066157Y0070506D01*
X0066157Y0076108D01*
X0067195Y0077146D01*
X0069234Y0077146D01*
X0104937Y0112848D01*
X0104937Y0138184D01*
X0104640Y0138372D01*
X0104585Y0138381D01*
X0104549Y0138429D01*
X0104498Y0138462D01*
X0104486Y0138516D01*
X0104213Y0138889D01*
X0103875Y0139205D01*
X0103823Y0139224D01*
X0103797Y0139278D01*
X0103753Y0139319D01*
X0103751Y0139375D01*
X0103552Y0139792D01*
X0103279Y0140166D01*
X0103231Y0140194D01*
X0103216Y0140252D01*
X0103180Y0140301D01*
X0103189Y0140356D01*
X0103072Y0140803D01*
X0102813Y0141348D01*
X0102772Y0141389D01*
X0102772Y0141952D01*
X0102629Y0142496D01*
X0102772Y0142739D01*
X0102772Y0142852D01*
X0102629Y0143095D01*
X0102772Y0143639D01*
X0102772Y0144201D01*
X0102813Y0144243D01*
X0103072Y0144787D01*
X0103189Y0145235D01*
X0103180Y0145290D01*
X0103216Y0145338D01*
X0103225Y0145372D01*
X0102969Y0145990D01*
X0102969Y0171096D01*
X0103225Y0171715D01*
X0103216Y0171748D01*
X0103180Y0171797D01*
X0103189Y0171852D01*
X0103072Y0172299D01*
X0102813Y0172844D01*
X0102772Y0172885D01*
X0102772Y0173448D01*
X0102629Y0173992D01*
X0102772Y0174235D01*
X0102772Y0174348D01*
X0102629Y0174591D01*
X0102772Y0175135D01*
X0102772Y0175697D01*
X0102813Y0175739D01*
X0103072Y0176283D01*
X0103189Y0176731D01*
X0103180Y0176786D01*
X0103216Y0176834D01*
X0103225Y0176868D01*
X0102969Y0177487D01*
X0102969Y0191612D01*
X0094502Y0200079D01*
X0075609Y0200079D01*
X0075606Y0200076D01*
X0075606Y0197711D01*
X0076203Y0198307D01*
X0093908Y0198307D01*
X0095291Y0196923D01*
X0095291Y0187092D01*
X0094301Y0186102D01*
X0095291Y0185112D01*
X0095291Y0175281D01*
X0093908Y0173898D01*
X0076203Y0173898D01*
X0075606Y0174494D01*
X0075606Y0161502D01*
X0075016Y0160911D01*
X0075016Y0160908D01*
X0088289Y0147635D01*
X0089895Y0146029D01*
X0090764Y0143931D01*
X0090764Y0112132D01*
X0089895Y0110034D01*
X0085958Y0106097D01*
X0084352Y0104491D01*
X0082254Y0103622D01*
X0053211Y0103622D01*
X0051113Y0104491D01*
X0047538Y0108066D01*
X0046669Y0110164D01*
X0046669Y0112435D01*
X0047538Y0114533D01*
X0049144Y0116139D01*
X0050370Y0116647D01*
X0049590Y0116970D01*
X0048206Y0118354D01*
X0047457Y0120163D01*
X0047457Y0122121D01*
X0048206Y0123929D01*
X0049355Y0125079D01*
X0048206Y0126228D01*
X0047457Y0128037D01*
X0047457Y0129995D01*
X0048206Y0131803D01*
X0049590Y0133188D01*
X0051399Y0133937D01*
X0053357Y0133937D01*
X0055166Y0133188D01*
X0056550Y0131803D01*
X0056563Y0131772D01*
X0065665Y0131772D01*
X0065665Y0135360D01*
X0066703Y0136398D01*
X0071911Y0136398D01*
X0072949Y0135360D01*
X0072949Y0131136D01*
X0072063Y0130250D01*
X0072063Y0128720D01*
X0072698Y0128720D01*
X0073244Y0128175D01*
X0073790Y0128720D01*
X0074425Y0128720D01*
X0074425Y0130250D01*
X0073539Y0131136D01*
X0073539Y0135360D01*
X0074577Y0136398D01*
X0079346Y0136398D01*
X0079346Y0140431D01*
X0064468Y0155310D01*
X0063598Y0157408D01*
X0063598Y0160911D01*
X0063008Y0161502D01*
X0063008Y0183144D01*
X0063022Y0183158D01*
X0063008Y0183172D01*
X0063008Y0185096D01*
X0064014Y0186102D01*
X0063008Y0187109D01*
X0063008Y0189033D01*
X0063022Y0189047D01*
X0063008Y0189061D01*
X0063008Y0202829D01*
X0063905Y0203726D01*
X0064468Y0205084D01*
X0066073Y0206690D01*
X0068405Y0209021D01*
X0069305Y0209921D01*
X0053716Y0209921D01*
X0051394Y0207599D01*
X0051394Y0196633D01*
X0052167Y0196313D01*
X0052943Y0195537D01*
X0053435Y0195045D01*
X0053828Y0194095D01*
X0055522Y0192402D01*
X0057490Y0192402D01*
X0057530Y0192362D01*
X0058498Y0192362D01*
X0059858Y0191002D01*
X0059858Y0189077D01*
X0059836Y0189055D01*
X0059858Y0189033D01*
X0059858Y0187109D01*
X0059836Y0187087D01*
X0059858Y0187065D01*
X0059858Y0185140D01*
X0058852Y0184134D01*
X0059858Y0183127D01*
X0059858Y0181203D01*
X0058498Y0179843D01*
X0057530Y0179843D01*
X0057490Y0179803D01*
X0055522Y0179803D01*
X0054937Y0179218D01*
X0054937Y0177387D01*
X0055429Y0176895D01*
X0055429Y0171687D01*
X0054937Y0171195D01*
X0054937Y0169513D01*
X0055429Y0169021D01*
X0055429Y0163813D01*
X0054391Y0162776D01*
X0050168Y0162776D01*
X0049622Y0163321D01*
X0049327Y0163026D01*
X0049327Y0162179D01*
X0049623Y0161883D01*
X0050036Y0162296D01*
X0053145Y0162296D01*
X0055343Y0160098D01*
X0055343Y0156989D01*
X0053145Y0154791D01*
X0050036Y0154791D01*
X0048646Y0156181D01*
X0048644Y0156181D01*
X0047260Y0157565D01*
X0044602Y0160222D01*
X0044602Y0163026D01*
X0043815Y0163813D01*
X0043815Y0169021D01*
X0044853Y0170059D01*
X0049076Y0170059D01*
X0049622Y0169513D01*
X0050168Y0170059D01*
X0050213Y0170059D01*
X0050213Y0170650D01*
X0050168Y0170650D01*
X0049130Y0171687D01*
X0049130Y0176895D01*
X0050168Y0177933D01*
X0050213Y0177933D01*
X0050213Y0181175D01*
X0051596Y0182559D01*
X0052581Y0183543D01*
X0052777Y0183740D01*
X0052280Y0183740D01*
X0052280Y0183695D01*
X0051242Y0182657D01*
X0047549Y0182657D01*
X0046663Y0181772D01*
X0045390Y0181772D01*
X0045390Y0181333D01*
X0044352Y0180295D01*
X0039144Y0180295D01*
X0038106Y0181333D01*
X0038106Y0185557D01*
X0038160Y0185610D01*
X0033239Y0185610D01*
X0032693Y0186156D01*
X0032693Y0088819D01*
X0038953Y0082559D01*
X0058044Y0082559D01*
X0059057Y0082139D01*
X0059832Y0081364D01*
X0063966Y0077230D01*
X0064324Y0076366D01*
X0064583Y0076108D01*
X0064583Y0070506D01*
X0064386Y0070309D01*
X0064386Y0069216D01*
X0063966Y0068203D01*
X0063191Y0067427D01*
X0062178Y0067008D01*
X0061082Y0067008D01*
X0060069Y0067427D01*
X0059294Y0068203D01*
X0058874Y0069216D01*
X0058874Y0070309D01*
X0058677Y0070506D01*
X0058677Y0074725D01*
X0056355Y0077047D01*
X0037263Y0077047D01*
X0036250Y0077467D01*
X0028376Y0085341D01*
X0027601Y0086116D01*
X0027181Y0087129D01*
X0027181Y0190588D01*
X0027601Y0191600D01*
X0031538Y0195537D01*
X0032313Y0196313D01*
X0033326Y0196732D01*
X0045882Y0196732D01*
X0045882Y0209288D01*
X0046301Y0210301D01*
X0047077Y0211076D01*
X0051014Y0215013D01*
X0052027Y0215433D01*
X0100367Y0215433D01*
X0101380Y0215013D01*
X0102155Y0214238D01*
X0117732Y0198661D01*
X0117732Y0202718D01*
X0117254Y0202916D01*
X0115649Y0204522D01*
X0114780Y0206620D01*
X0114780Y0208891D01*
X0115649Y0210990D01*
X0117254Y0212595D01*
X0119353Y0213465D01*
X0156073Y0213465D01*
X0157023Y0213071D01*
X0158087Y0213071D01*
X0158087Y0215827D01*
X0076046Y0215827D01*
X0073947Y0216696D01*
X0072342Y0218302D01*
X0071472Y0220400D01*
X0071472Y0238419D01*
X0072342Y0240517D01*
X0073947Y0242123D01*
X0075095Y0242598D01*
X0030997Y0242598D01*
X0024622Y0236223D01*
X0024622Y0236204D02*
X0071472Y0236204D01*
X0071472Y0235025D02*
X0024622Y0235025D01*
X0024622Y0233845D02*
X0071472Y0233845D01*
X0071472Y0232665D02*
X0024622Y0232665D01*
X0024622Y0231486D02*
X0071472Y0231486D01*
X0071472Y0230306D02*
X0024622Y0230306D01*
X0024622Y0229127D02*
X0071472Y0229127D01*
X0071472Y0227947D02*
X0038910Y0227947D01*
X0038706Y0228031D02*
X0034947Y0228031D01*
X0031474Y0226593D01*
X0028816Y0223935D01*
X0027378Y0220462D01*
X0027378Y0216703D01*
X0028816Y0213230D01*
X0031474Y0210572D01*
X0034947Y0209134D01*
X0038706Y0209134D01*
X0042179Y0210572D01*
X0044837Y0213230D01*
X0046276Y0216703D01*
X0046276Y0220462D01*
X0044837Y0223935D01*
X0042179Y0226593D01*
X0038706Y0228031D01*
X0041758Y0226767D02*
X0071472Y0226767D01*
X0071472Y0225588D02*
X0043184Y0225588D01*
X0044364Y0224408D02*
X0071472Y0224408D01*
X0071472Y0223229D02*
X0045130Y0223229D01*
X0045618Y0222049D02*
X0071472Y0222049D01*
X0071472Y0220869D02*
X0046107Y0220869D01*
X0046276Y0219690D02*
X0071767Y0219690D01*
X0072255Y0218510D02*
X0046276Y0218510D01*
X0046276Y0217330D02*
X0073313Y0217330D01*
X0075263Y0216151D02*
X0046047Y0216151D01*
X0045558Y0214971D02*
X0050971Y0214971D01*
X0049792Y0213792D02*
X0045070Y0213792D01*
X0044219Y0212612D02*
X0048612Y0212612D01*
X0047433Y0211432D02*
X0043039Y0211432D01*
X0041408Y0210253D02*
X0046281Y0210253D01*
X0045882Y0209073D02*
X0024622Y0209073D01*
X0024622Y0207894D02*
X0045882Y0207894D01*
X0045882Y0206714D02*
X0024622Y0206714D01*
X0024622Y0205534D02*
X0045882Y0205534D01*
X0045882Y0204355D02*
X0024622Y0204355D01*
X0024622Y0203175D02*
X0045882Y0203175D01*
X0045882Y0201995D02*
X0024622Y0201995D01*
X0024622Y0200816D02*
X0045882Y0200816D01*
X0045882Y0199636D02*
X0024622Y0199636D01*
X0024622Y0198457D02*
X0045882Y0198457D01*
X0045882Y0197277D02*
X0024622Y0197277D01*
X0024622Y0196097D02*
X0032098Y0196097D01*
X0030918Y0194918D02*
X0024622Y0194918D01*
X0024622Y0193738D02*
X0029738Y0193738D01*
X0028559Y0192559D02*
X0024622Y0192559D01*
X0024622Y0191379D02*
X0027509Y0191379D01*
X0027181Y0190199D02*
X0024622Y0190199D01*
X0024622Y0189020D02*
X0027181Y0189020D01*
X0027181Y0187840D02*
X0024622Y0187840D01*
X0024622Y0186661D02*
X0027181Y0186661D01*
X0027181Y0185481D02*
X0024622Y0185481D01*
X0024622Y0184301D02*
X0027181Y0184301D01*
X0027181Y0183122D02*
X0024622Y0183122D01*
X0024622Y0181942D02*
X0027181Y0181942D01*
X0027181Y0180762D02*
X0024622Y0180762D01*
X0024622Y0179583D02*
X0027181Y0179583D01*
X0027181Y0178403D02*
X0024622Y0178403D01*
X0024622Y0177224D02*
X0027181Y0177224D01*
X0027181Y0176044D02*
X0024622Y0176044D01*
X0024622Y0174864D02*
X0027181Y0174864D01*
X0027181Y0173685D02*
X0024622Y0173685D01*
X0024622Y0172505D02*
X0027181Y0172505D01*
X0027181Y0171326D02*
X0024622Y0171326D01*
X0024622Y0170146D02*
X0027181Y0170146D01*
X0027181Y0168966D02*
X0024622Y0168966D01*
X0024622Y0167787D02*
X0027181Y0167787D01*
X0027181Y0166607D02*
X0024622Y0166607D01*
X0024622Y0165427D02*
X0027181Y0165427D01*
X0027181Y0164248D02*
X0024622Y0164248D01*
X0024622Y0163068D02*
X0027181Y0163068D01*
X0027181Y0161889D02*
X0024622Y0161889D01*
X0024622Y0160709D02*
X0027181Y0160709D01*
X0027181Y0159529D02*
X0024622Y0159529D01*
X0024622Y0158350D02*
X0027181Y0158350D01*
X0027181Y0157170D02*
X0024622Y0157170D01*
X0024622Y0155991D02*
X0027181Y0155991D01*
X0027181Y0154811D02*
X0024622Y0154811D01*
X0024622Y0153631D02*
X0027181Y0153631D01*
X0027181Y0152452D02*
X0024622Y0152452D01*
X0024622Y0151272D02*
X0027181Y0151272D01*
X0027181Y0150092D02*
X0024622Y0150092D01*
X0024622Y0148913D02*
X0027181Y0148913D01*
X0027181Y0147733D02*
X0024622Y0147733D01*
X0024622Y0146554D02*
X0027181Y0146554D01*
X0027181Y0145374D02*
X0024622Y0145374D01*
X0024622Y0144194D02*
X0027181Y0144194D01*
X0027181Y0143015D02*
X0024622Y0143015D01*
X0024622Y0141835D02*
X0027181Y0141835D01*
X0027181Y0140656D02*
X0024622Y0140656D01*
X0024622Y0139476D02*
X0027181Y0139476D01*
X0027181Y0138296D02*
X0024622Y0138296D01*
X0024622Y0137117D02*
X0027181Y0137117D01*
X0027181Y0135937D02*
X0024622Y0135937D01*
X0024622Y0134758D02*
X0027181Y0134758D01*
X0027181Y0133578D02*
X0024622Y0133578D01*
X0024622Y0132398D02*
X0027181Y0132398D01*
X0027181Y0131219D02*
X0024622Y0131219D01*
X0024622Y0130039D02*
X0027181Y0130039D01*
X0027181Y0128859D02*
X0024622Y0128859D01*
X0024622Y0127680D02*
X0027181Y0127680D01*
X0027181Y0126500D02*
X0024622Y0126500D01*
X0024622Y0125321D02*
X0027181Y0125321D01*
X0027181Y0124141D02*
X0024622Y0124141D01*
X0024622Y0122961D02*
X0027181Y0122961D01*
X0027181Y0121782D02*
X0024622Y0121782D01*
X0024622Y0120602D02*
X0027181Y0120602D01*
X0027181Y0119423D02*
X0024622Y0119423D01*
X0024622Y0118243D02*
X0027181Y0118243D01*
X0027181Y0117063D02*
X0024622Y0117063D01*
X0024622Y0115884D02*
X0027181Y0115884D01*
X0027181Y0114704D02*
X0024622Y0114704D01*
X0024622Y0113524D02*
X0027181Y0113524D01*
X0027181Y0112345D02*
X0024622Y0112345D01*
X0024622Y0111165D02*
X0027181Y0111165D01*
X0027181Y0109986D02*
X0024622Y0109986D01*
X0024622Y0108806D02*
X0027181Y0108806D01*
X0027181Y0107626D02*
X0024622Y0107626D01*
X0024622Y0106447D02*
X0027181Y0106447D01*
X0027181Y0105267D02*
X0024622Y0105267D01*
X0024622Y0104088D02*
X0027181Y0104088D01*
X0027181Y0102908D02*
X0024622Y0102908D01*
X0024622Y0101728D02*
X0027181Y0101728D01*
X0027181Y0100549D02*
X0024622Y0100549D01*
X0024622Y0099369D02*
X0027181Y0099369D01*
X0027181Y0098189D02*
X0024622Y0098189D01*
X0024622Y0097010D02*
X0027181Y0097010D01*
X0027181Y0095830D02*
X0024622Y0095830D01*
X0024622Y0094651D02*
X0027181Y0094651D01*
X0027181Y0093471D02*
X0024622Y0093471D01*
X0024622Y0092291D02*
X0027181Y0092291D01*
X0027181Y0091112D02*
X0024622Y0091112D01*
X0024622Y0089932D02*
X0027181Y0089932D01*
X0027181Y0088753D02*
X0024622Y0088753D01*
X0024622Y0087573D02*
X0027181Y0087573D01*
X0027486Y0086393D02*
X0024622Y0086393D01*
X0024622Y0085214D02*
X0028503Y0085214D01*
X0029683Y0084034D02*
X0024622Y0084034D01*
X0024622Y0082855D02*
X0030862Y0082855D01*
X0032042Y0081675D02*
X0024622Y0081675D01*
X0024622Y0080495D02*
X0033221Y0080495D01*
X0034401Y0079316D02*
X0024622Y0079316D01*
X0024622Y0078136D02*
X0035581Y0078136D01*
X0038657Y0082855D02*
X0074943Y0082855D01*
X0076123Y0084034D02*
X0037477Y0084034D01*
X0036298Y0085214D02*
X0077302Y0085214D01*
X0078482Y0086393D02*
X0035118Y0086393D01*
X0033939Y0087573D02*
X0079662Y0087573D01*
X0080841Y0088753D02*
X0032759Y0088753D01*
X0032693Y0089932D02*
X0082021Y0089932D01*
X0083200Y0091112D02*
X0032693Y0091112D01*
X0032693Y0092291D02*
X0084380Y0092291D01*
X0085560Y0093471D02*
X0032693Y0093471D01*
X0032693Y0094651D02*
X0086739Y0094651D01*
X0087919Y0095830D02*
X0032693Y0095830D01*
X0032693Y0097010D02*
X0089098Y0097010D01*
X0090278Y0098189D02*
X0032693Y0098189D01*
X0032693Y0099369D02*
X0091458Y0099369D01*
X0092637Y0100549D02*
X0032693Y0100549D01*
X0032693Y0101728D02*
X0093817Y0101728D01*
X0094997Y0102908D02*
X0032693Y0102908D01*
X0032693Y0104088D02*
X0052087Y0104088D01*
X0050337Y0105267D02*
X0032693Y0105267D01*
X0032693Y0106447D02*
X0049157Y0106447D01*
X0047978Y0107626D02*
X0032693Y0107626D01*
X0032693Y0108806D02*
X0047232Y0108806D01*
X0046743Y0109986D02*
X0032693Y0109986D01*
X0032693Y0111165D02*
X0046669Y0111165D01*
X0046669Y0112345D02*
X0032693Y0112345D01*
X0032693Y0113524D02*
X0047121Y0113524D01*
X0047710Y0114704D02*
X0032693Y0114704D01*
X0032693Y0115884D02*
X0048889Y0115884D01*
X0049497Y0117063D02*
X0032693Y0117063D01*
X0032693Y0118243D02*
X0048317Y0118243D01*
X0047763Y0119423D02*
X0032693Y0119423D01*
X0032693Y0120602D02*
X0047457Y0120602D01*
X0047457Y0121782D02*
X0032693Y0121782D01*
X0032693Y0122961D02*
X0047805Y0122961D01*
X0048417Y0124141D02*
X0032693Y0124141D01*
X0032693Y0125321D02*
X0049113Y0125321D01*
X0048093Y0126500D02*
X0032693Y0126500D01*
X0032693Y0127680D02*
X0047605Y0127680D01*
X0047457Y0128859D02*
X0032693Y0128859D01*
X0032693Y0130039D02*
X0047475Y0130039D01*
X0047964Y0131219D02*
X0032693Y0131219D01*
X0032693Y0132398D02*
X0048801Y0132398D01*
X0050532Y0133578D02*
X0032693Y0133578D01*
X0032693Y0134758D02*
X0065665Y0134758D01*
X0065665Y0133578D02*
X0054224Y0133578D01*
X0055955Y0132398D02*
X0065665Y0132398D01*
X0066243Y0135937D02*
X0032693Y0135937D01*
X0032693Y0137117D02*
X0079346Y0137117D01*
X0079346Y0138296D02*
X0032693Y0138296D01*
X0032693Y0139476D02*
X0079346Y0139476D01*
X0079122Y0140656D02*
X0032693Y0140656D01*
X0032693Y0141835D02*
X0077942Y0141835D01*
X0076762Y0143015D02*
X0032693Y0143015D01*
X0032693Y0144194D02*
X0075583Y0144194D01*
X0074403Y0145374D02*
X0032693Y0145374D01*
X0032693Y0146554D02*
X0073223Y0146554D01*
X0072044Y0147733D02*
X0032693Y0147733D01*
X0032693Y0148913D02*
X0070864Y0148913D01*
X0069685Y0150092D02*
X0032693Y0150092D01*
X0032693Y0151272D02*
X0068505Y0151272D01*
X0067325Y0152452D02*
X0032693Y0152452D01*
X0032693Y0153631D02*
X0066146Y0153631D01*
X0064966Y0154811D02*
X0053165Y0154811D01*
X0054345Y0155991D02*
X0064185Y0155991D01*
X0063697Y0157170D02*
X0055343Y0157170D01*
X0055343Y0158350D02*
X0063598Y0158350D01*
X0063598Y0159529D02*
X0055343Y0159529D01*
X0054732Y0160709D02*
X0063598Y0160709D01*
X0063008Y0161889D02*
X0053552Y0161889D01*
X0054684Y0163068D02*
X0063008Y0163068D01*
X0063008Y0164248D02*
X0055429Y0164248D01*
X0055429Y0165427D02*
X0063008Y0165427D01*
X0063008Y0166607D02*
X0055429Y0166607D01*
X0055429Y0167787D02*
X0063008Y0167787D01*
X0063008Y0168966D02*
X0055429Y0168966D01*
X0054937Y0170146D02*
X0063008Y0170146D01*
X0063008Y0171326D02*
X0055067Y0171326D01*
X0055429Y0172505D02*
X0063008Y0172505D01*
X0063008Y0173685D02*
X0055429Y0173685D01*
X0055429Y0174864D02*
X0063008Y0174864D01*
X0063008Y0176044D02*
X0055429Y0176044D01*
X0055101Y0177224D02*
X0063008Y0177224D01*
X0063008Y0178403D02*
X0054937Y0178403D01*
X0055301Y0179583D02*
X0063008Y0179583D01*
X0063008Y0180762D02*
X0059417Y0180762D01*
X0059858Y0181942D02*
X0063008Y0181942D01*
X0063008Y0183122D02*
X0059858Y0183122D01*
X0059465Y0184134D02*
X0061433Y0186102D01*
X0066354Y0186102D01*
X0066354Y0184134D02*
X0079937Y0184134D01*
X0085055Y0179016D01*
X0092929Y0177224D02*
X0076217Y0177224D01*
X0075606Y0177835D02*
X0077181Y0176260D01*
X0092929Y0176260D01*
X0092929Y0184134D01*
X0069701Y0184134D01*
X0069701Y0184128D01*
X0070286Y0183543D01*
X0070286Y0183543D01*
X0071669Y0182160D01*
X0071669Y0182160D01*
X0074223Y0179606D01*
X0075606Y0178223D01*
X0075606Y0177835D01*
X0075426Y0178403D02*
X0092929Y0178403D01*
X0092929Y0179583D02*
X0074246Y0179583D01*
X0073066Y0180762D02*
X0092929Y0180762D01*
X0092929Y0181942D02*
X0071887Y0181942D01*
X0070707Y0183122D02*
X0092929Y0183122D01*
X0095291Y0183122D02*
X0102969Y0183122D01*
X0102969Y0184301D02*
X0095291Y0184301D01*
X0094923Y0185481D02*
X0102969Y0185481D01*
X0102969Y0186661D02*
X0094859Y0186661D01*
X0095291Y0187840D02*
X0102969Y0187840D01*
X0102969Y0189020D02*
X0095291Y0189020D01*
X0095291Y0190199D02*
X0102969Y0190199D01*
X0102969Y0191379D02*
X0095291Y0191379D01*
X0095291Y0192559D02*
X0102022Y0192559D01*
X0100842Y0193738D02*
X0095291Y0193738D01*
X0095291Y0194918D02*
X0099662Y0194918D01*
X0098483Y0196097D02*
X0095291Y0196097D01*
X0094938Y0197277D02*
X0097303Y0197277D01*
X0096124Y0198457D02*
X0075606Y0198457D01*
X0075606Y0199636D02*
X0094944Y0199636D01*
X0092929Y0195945D02*
X0092929Y0188071D01*
X0069701Y0188071D01*
X0069701Y0188077D01*
X0070286Y0188661D01*
X0071669Y0190045D01*
X0074622Y0192998D01*
X0074622Y0193386D01*
X0077181Y0195945D01*
X0092929Y0195945D01*
X0092929Y0194918D02*
X0076154Y0194918D01*
X0074974Y0193738D02*
X0092929Y0193738D01*
X0092929Y0192559D02*
X0074183Y0192559D01*
X0073003Y0191379D02*
X0092929Y0191379D01*
X0092929Y0190199D02*
X0071823Y0190199D01*
X0070644Y0189020D02*
X0092929Y0189020D01*
X0095291Y0181942D02*
X0102969Y0181942D01*
X0102969Y0180762D02*
X0095291Y0180762D01*
X0095291Y0179583D02*
X0102969Y0179583D01*
X0102969Y0178403D02*
X0095291Y0178403D01*
X0095291Y0177224D02*
X0103077Y0177224D01*
X0102958Y0176044D02*
X0095291Y0176044D01*
X0094874Y0174864D02*
X0102701Y0174864D01*
X0102710Y0173685D02*
X0075606Y0173685D01*
X0075606Y0172505D02*
X0102974Y0172505D01*
X0103064Y0171326D02*
X0075606Y0171326D01*
X0075606Y0170146D02*
X0102969Y0170146D01*
X0102969Y0168966D02*
X0075606Y0168966D01*
X0075606Y0167787D02*
X0102969Y0167787D01*
X0102969Y0166607D02*
X0075606Y0166607D01*
X0075606Y0165427D02*
X0102969Y0165427D01*
X0102969Y0164248D02*
X0075606Y0164248D01*
X0075606Y0163068D02*
X0102969Y0163068D01*
X0102969Y0161889D02*
X0075606Y0161889D01*
X0075215Y0160709D02*
X0102969Y0160709D01*
X0102969Y0159529D02*
X0076394Y0159529D01*
X0077574Y0158350D02*
X0102969Y0158350D01*
X0102969Y0157170D02*
X0078753Y0157170D01*
X0079933Y0155991D02*
X0102969Y0155991D01*
X0102969Y0154811D02*
X0081113Y0154811D01*
X0082292Y0153631D02*
X0102969Y0153631D01*
X0102969Y0152452D02*
X0083472Y0152452D01*
X0084652Y0151272D02*
X0102969Y0151272D01*
X0102969Y0150092D02*
X0085831Y0150092D01*
X0087011Y0148913D02*
X0102969Y0148913D01*
X0102969Y0147733D02*
X0088190Y0147733D01*
X0089370Y0146554D02*
X0102969Y0146554D01*
X0103224Y0145374D02*
X0090166Y0145374D01*
X0090655Y0144194D02*
X0102772Y0144194D01*
X0102676Y0143015D02*
X0090764Y0143015D01*
X0090764Y0141835D02*
X0102772Y0141835D01*
X0103111Y0140656D02*
X0090764Y0140656D01*
X0090764Y0139476D02*
X0103703Y0139476D01*
X0104760Y0138296D02*
X0090764Y0138296D01*
X0090764Y0137117D02*
X0104937Y0137117D01*
X0104937Y0135937D02*
X0090764Y0135937D01*
X0090764Y0134758D02*
X0104937Y0134758D01*
X0104937Y0133578D02*
X0090764Y0133578D01*
X0090764Y0132398D02*
X0104937Y0132398D01*
X0104937Y0131219D02*
X0090764Y0131219D01*
X0090764Y0130039D02*
X0104937Y0130039D01*
X0104937Y0128859D02*
X0090764Y0128859D01*
X0090764Y0127680D02*
X0104937Y0127680D01*
X0104937Y0126500D02*
X0090764Y0126500D01*
X0090764Y0125321D02*
X0104937Y0125321D01*
X0104937Y0124141D02*
X0090764Y0124141D01*
X0090764Y0122961D02*
X0104937Y0122961D01*
X0104937Y0121782D02*
X0090764Y0121782D01*
X0090764Y0120602D02*
X0104937Y0120602D01*
X0104937Y0119423D02*
X0090764Y0119423D01*
X0090764Y0118243D02*
X0104937Y0118243D01*
X0104937Y0117063D02*
X0090764Y0117063D01*
X0090764Y0115884D02*
X0104937Y0115884D01*
X0104937Y0114704D02*
X0090764Y0114704D01*
X0090764Y0113524D02*
X0104937Y0113524D01*
X0104433Y0112345D02*
X0090764Y0112345D01*
X0090363Y0111165D02*
X0103254Y0111165D01*
X0102074Y0109986D02*
X0089846Y0109986D01*
X0088667Y0108806D02*
X0100895Y0108806D01*
X0099715Y0107626D02*
X0087487Y0107626D01*
X0086307Y0106447D02*
X0098535Y0106447D01*
X0097356Y0105267D02*
X0085128Y0105267D01*
X0083377Y0104088D02*
X0096176Y0104088D01*
X0104396Y0101728D02*
X0144307Y0101728D01*
X0144307Y0100549D02*
X0103216Y0100549D01*
X0102036Y0099369D02*
X0144307Y0099369D01*
X0144307Y0098189D02*
X0100857Y0098189D01*
X0099677Y0097010D02*
X0144307Y0097010D01*
X0144307Y0095830D02*
X0098498Y0095830D01*
X0097318Y0094651D02*
X0144307Y0094651D01*
X0144307Y0093471D02*
X0096138Y0093471D01*
X0094959Y0092291D02*
X0144307Y0092291D01*
X0144696Y0091112D02*
X0093779Y0091112D01*
X0092600Y0089932D02*
X0146298Y0089932D01*
X0142031Y0079316D02*
X0181623Y0079316D01*
X0185338Y0079316D02*
X0191551Y0079316D01*
X0191551Y0080495D02*
X0189480Y0080495D01*
X0190659Y0081675D02*
X0191551Y0081675D01*
X0191551Y0082855D02*
X0191170Y0082855D01*
X0191170Y0084034D02*
X0191551Y0084034D01*
X0191551Y0085214D02*
X0191170Y0085214D01*
X0191268Y0086393D02*
X0190071Y0086393D01*
X0190554Y0087573D02*
X0090240Y0087573D01*
X0089061Y0086393D02*
X0102104Y0086393D01*
X0100924Y0085214D02*
X0087881Y0085214D01*
X0086701Y0084034D02*
X0099745Y0084034D01*
X0098565Y0082855D02*
X0085522Y0082855D01*
X0084342Y0081675D02*
X0097386Y0081675D01*
X0096206Y0080495D02*
X0083163Y0080495D01*
X0081983Y0079316D02*
X0095026Y0079316D01*
X0093847Y0078136D02*
X0080803Y0078136D01*
X0079624Y0076956D02*
X0092667Y0076956D01*
X0091487Y0075777D02*
X0078444Y0075777D01*
X0077265Y0074597D02*
X0090308Y0074597D01*
X0089128Y0073418D02*
X0076085Y0073418D01*
X0074905Y0072238D02*
X0087949Y0072238D01*
X0086769Y0071058D02*
X0073726Y0071058D01*
X0072546Y0069879D02*
X0085589Y0069879D01*
X0084410Y0068699D02*
X0064172Y0068699D01*
X0064386Y0069879D02*
X0066785Y0069879D01*
X0066157Y0071058D02*
X0064583Y0071058D01*
X0064583Y0072238D02*
X0066157Y0072238D01*
X0066157Y0073418D02*
X0064583Y0073418D01*
X0064583Y0074597D02*
X0066157Y0074597D01*
X0066157Y0075777D02*
X0064583Y0075777D01*
X0064080Y0076956D02*
X0067006Y0076956D01*
X0070225Y0078136D02*
X0063061Y0078136D01*
X0061881Y0079316D02*
X0071404Y0079316D01*
X0072584Y0080495D02*
X0060701Y0080495D01*
X0059522Y0081675D02*
X0073763Y0081675D01*
X0058677Y0074597D02*
X0024622Y0074597D01*
X0024622Y0073418D02*
X0058677Y0073418D01*
X0058677Y0072238D02*
X0024622Y0072238D01*
X0024622Y0071058D02*
X0058677Y0071058D01*
X0058874Y0069879D02*
X0024622Y0069879D01*
X0024622Y0068699D02*
X0059088Y0068699D01*
X0059977Y0067520D02*
X0024622Y0067520D01*
X0024622Y0066340D02*
X0059539Y0066340D01*
X0058677Y0065160D02*
X0024622Y0065160D01*
X0024622Y0063981D02*
X0058677Y0063981D01*
X0058677Y0062801D02*
X0024622Y0062801D01*
X0024622Y0061621D02*
X0058677Y0061621D01*
X0058677Y0060442D02*
X0024622Y0060442D01*
X0024622Y0059262D02*
X0053544Y0059262D01*
X0053067Y0058083D02*
X0024622Y0058083D01*
X0024622Y0056903D02*
X0053067Y0056903D01*
X0053067Y0055723D02*
X0024622Y0055723D01*
X0024622Y0054544D02*
X0053067Y0054544D01*
X0053280Y0053364D02*
X0024622Y0053364D01*
X0024622Y0052185D02*
X0063789Y0052185D01*
X0063598Y0051005D02*
X0024622Y0051005D01*
X0024622Y0049825D02*
X0063598Y0049825D01*
X0063598Y0048646D02*
X0024622Y0048646D01*
X0024622Y0047466D02*
X0063598Y0047466D01*
X0063598Y0046286D02*
X0024622Y0046286D01*
X0024622Y0045107D02*
X0063598Y0045107D01*
X0064292Y0043927D02*
X0024622Y0043927D01*
X0024622Y0042748D02*
X0078362Y0042748D01*
X0078362Y0043927D02*
X0070385Y0043927D01*
X0072339Y0045107D02*
X0078362Y0045107D01*
X0078362Y0046286D02*
X0073503Y0046286D01*
X0073991Y0047466D02*
X0078362Y0047466D01*
X0078362Y0048646D02*
X0074031Y0048646D01*
X0074031Y0049825D02*
X0078362Y0049825D01*
X0078362Y0051005D02*
X0074031Y0051005D01*
X0074031Y0052185D02*
X0078362Y0052185D01*
X0078362Y0053364D02*
X0074031Y0053364D01*
X0074031Y0054544D02*
X0078362Y0054544D01*
X0078362Y0055723D02*
X0074031Y0055723D01*
X0066157Y0060442D02*
X0064583Y0060442D01*
X0064583Y0061621D02*
X0066157Y0061621D01*
X0066157Y0062801D02*
X0064583Y0062801D01*
X0064583Y0063981D02*
X0066157Y0063981D01*
X0066157Y0065160D02*
X0064583Y0065160D01*
X0063721Y0066340D02*
X0067019Y0066340D01*
X0063283Y0067520D02*
X0083230Y0067520D01*
X0082051Y0066340D02*
X0071222Y0066340D01*
X0073098Y0065160D02*
X0080871Y0065160D01*
X0079691Y0063981D02*
X0073800Y0063981D01*
X0084372Y0058083D02*
X0102744Y0058083D01*
X0103924Y0059262D02*
X0085552Y0059262D01*
X0086731Y0060442D02*
X0105103Y0060442D01*
X0106283Y0061621D02*
X0087911Y0061621D01*
X0089090Y0062801D02*
X0107463Y0062801D01*
X0108642Y0063981D02*
X0090270Y0063981D01*
X0091450Y0065160D02*
X0109822Y0065160D01*
X0111002Y0066340D02*
X0092629Y0066340D01*
X0093809Y0067520D02*
X0112181Y0067520D01*
X0113361Y0068699D02*
X0094989Y0068699D01*
X0096168Y0069879D02*
X0114540Y0069879D01*
X0115720Y0071058D02*
X0097348Y0071058D01*
X0098527Y0072238D02*
X0116900Y0072238D01*
X0118079Y0073418D02*
X0099707Y0073418D01*
X0100887Y0074597D02*
X0119728Y0074597D01*
X0105605Y0079316D02*
X0138316Y0079316D01*
X0137136Y0078136D02*
X0104425Y0078136D01*
X0103246Y0076956D02*
X0136420Y0076956D01*
X0136420Y0075777D02*
X0102066Y0075777D01*
X0091420Y0088753D02*
X0190554Y0088753D01*
X0191551Y0078136D02*
X0186518Y0078136D01*
X0187233Y0076956D02*
X0191500Y0076956D01*
X0190320Y0075777D02*
X0187233Y0075777D01*
X0187233Y0074597D02*
X0189141Y0074597D01*
X0188598Y0073418D02*
X0186339Y0073418D01*
X0185159Y0072238D02*
X0188598Y0072238D01*
X0188598Y0071058D02*
X0185721Y0071058D01*
X0186901Y0069879D02*
X0188598Y0069879D01*
X0188598Y0068699D02*
X0187233Y0068699D01*
X0187233Y0067520D02*
X0188598Y0067520D01*
X0188332Y0066340D02*
X0187135Y0066340D01*
X0187602Y0065160D02*
X0185956Y0065160D01*
X0187602Y0063981D02*
X0132115Y0063981D01*
X0132115Y0065160D02*
X0181005Y0065160D01*
X0187602Y0062801D02*
X0132115Y0062801D01*
X0131236Y0061621D02*
X0188481Y0061621D01*
X0188598Y0060442D02*
X0131377Y0060442D01*
X0132557Y0059262D02*
X0181254Y0059262D01*
X0177547Y0058083D02*
X0143153Y0058083D01*
X0144333Y0056903D02*
X0176368Y0056903D01*
X0175188Y0055723D02*
X0145513Y0055723D01*
X0146692Y0054544D02*
X0174009Y0054544D01*
X0178265Y0051005D02*
X0188598Y0051005D01*
X0188598Y0052185D02*
X0179444Y0052185D01*
X0180624Y0053364D02*
X0180990Y0053364D01*
X0185971Y0053364D02*
X0188598Y0053364D01*
X0188598Y0054544D02*
X0187150Y0054544D01*
X0187233Y0055723D02*
X0188598Y0055723D01*
X0188598Y0056903D02*
X0187233Y0056903D01*
X0186886Y0058083D02*
X0188598Y0058083D01*
X0188598Y0059262D02*
X0185706Y0059262D01*
X0188598Y0049825D02*
X0177378Y0049825D01*
X0177378Y0048646D02*
X0187599Y0048646D01*
X0183087Y0047466D02*
X0177378Y0047466D01*
X0177378Y0046286D02*
X0178842Y0046286D01*
X0166945Y0038276D02*
X0166945Y0037916D01*
X0167364Y0036903D01*
X0175238Y0029029D01*
X0176014Y0028254D01*
X0177027Y0027835D01*
X0227631Y0027835D01*
X0228644Y0028254D01*
X0229307Y0028917D01*
X0231163Y0028917D01*
X0231709Y0029463D01*
X0232254Y0028917D01*
X0236478Y0028917D01*
X0237364Y0029803D01*
X0237668Y0029803D01*
X0238258Y0029213D01*
X0242876Y0029213D01*
X0243913Y0030250D01*
X0243913Y0034868D01*
X0242876Y0035905D01*
X0238258Y0035905D01*
X0237668Y0035315D01*
X0237364Y0035315D01*
X0236478Y0036201D01*
X0232254Y0036201D01*
X0231709Y0035655D01*
X0231163Y0036201D01*
X0226939Y0036201D01*
X0225902Y0035163D01*
X0225902Y0033346D01*
X0215513Y0033346D01*
X0216157Y0033991D01*
X0216157Y0037337D01*
X0216802Y0036693D01*
X0223781Y0036693D01*
X0224765Y0037677D01*
X0226054Y0037677D01*
X0226939Y0036791D01*
X0231163Y0036791D01*
X0231709Y0037337D01*
X0232254Y0036791D01*
X0236478Y0036791D01*
X0237364Y0037677D01*
X0237668Y0037677D01*
X0238258Y0037087D01*
X0242876Y0037087D01*
X0243520Y0037731D01*
X0244164Y0037087D01*
X0248781Y0037087D01*
X0249246Y0037552D01*
X0249921Y0036877D01*
X0252867Y0036877D01*
X0254950Y0038960D01*
X0254950Y0041906D01*
X0252867Y0043989D01*
X0249921Y0043989D01*
X0249246Y0043314D01*
X0248781Y0043780D01*
X0244164Y0043780D01*
X0243520Y0043135D01*
X0242876Y0043780D01*
X0238258Y0043780D01*
X0237668Y0043189D01*
X0237364Y0043189D01*
X0236478Y0044075D01*
X0232254Y0044075D01*
X0231709Y0043529D01*
X0231163Y0044075D01*
X0226939Y0044075D01*
X0226054Y0043189D01*
X0224765Y0043189D01*
X0223781Y0044173D01*
X0216802Y0044173D01*
X0216157Y0043529D01*
X0216157Y0046876D01*
X0215513Y0047520D01*
X0225902Y0047520D01*
X0225902Y0045703D01*
X0226939Y0044665D01*
X0231163Y0044665D01*
X0231709Y0045211D01*
X0232254Y0044665D01*
X0236478Y0044665D01*
X0237364Y0045551D01*
X0237668Y0045551D01*
X0238258Y0044961D01*
X0242876Y0044961D01*
X0243520Y0045605D01*
X0244164Y0044961D01*
X0248781Y0044961D01*
X0249246Y0045426D01*
X0249921Y0044751D01*
X0252867Y0044751D01*
X0254950Y0046834D01*
X0254950Y0049780D01*
X0252867Y0051863D01*
X0249921Y0051863D01*
X0249246Y0051188D01*
X0248781Y0051654D01*
X0244164Y0051654D01*
X0243520Y0051009D01*
X0242876Y0051654D01*
X0238258Y0051654D01*
X0237668Y0051063D01*
X0237364Y0051063D01*
X0236478Y0051949D01*
X0232254Y0051949D01*
X0231709Y0051403D01*
X0231163Y0051949D01*
X0229307Y0051949D01*
X0228716Y0052539D01*
X0231163Y0052539D01*
X0231709Y0053085D01*
X0232254Y0052539D01*
X0236478Y0052539D01*
X0237364Y0053425D01*
X0237668Y0053425D01*
X0238258Y0052835D01*
X0242876Y0052835D01*
X0243520Y0053479D01*
X0244164Y0052835D01*
X0248781Y0052835D01*
X0249246Y0053300D01*
X0249921Y0052625D01*
X0252867Y0052625D01*
X0254950Y0054708D01*
X0254950Y0057654D01*
X0252867Y0059737D01*
X0249921Y0059737D01*
X0249246Y0059062D01*
X0248781Y0059528D01*
X0244164Y0059528D01*
X0243520Y0058883D01*
X0242876Y0059528D01*
X0238258Y0059528D01*
X0237668Y0058937D01*
X0237364Y0058937D01*
X0236478Y0059823D01*
X0232254Y0059823D01*
X0231709Y0059277D01*
X0231163Y0059823D01*
X0226939Y0059823D01*
X0226054Y0058937D01*
X0207902Y0058937D01*
X0207902Y0061673D01*
X0206905Y0062669D01*
X0206905Y0066260D01*
X0207510Y0065656D01*
X0210239Y0062926D01*
X0210239Y0061516D01*
X0212438Y0059318D01*
X0215547Y0059318D01*
X0217745Y0061516D01*
X0217745Y0064239D01*
X0220468Y0064239D01*
X0221465Y0065236D01*
X0230288Y0065236D01*
X0231301Y0065656D01*
X0232076Y0066431D01*
X0235803Y0070157D01*
X0260406Y0070157D01*
X0261419Y0070577D01*
X0261811Y0070969D01*
X0262417Y0070362D01*
X0262417Y0040590D01*
X0245331Y0023504D01*
X0149037Y0023504D01*
X0148931Y0023759D01*
X0147436Y0025254D01*
X0146866Y0025490D01*
X0146866Y0026349D01*
X0147666Y0027149D01*
X0147666Y0030095D01*
X0145583Y0032178D01*
X0142637Y0032178D01*
X0140554Y0030095D01*
X0140554Y0027149D01*
X0141354Y0026349D01*
X0141354Y0025194D01*
X0139919Y0023759D01*
X0139425Y0022566D01*
X0138931Y0023759D01*
X0137436Y0025254D01*
X0135744Y0025955D01*
X0135744Y0026609D01*
X0136138Y0027002D01*
X0136138Y0032210D01*
X0135744Y0032604D01*
X0135744Y0033917D01*
X0135789Y0033917D01*
X0135986Y0034114D01*
X0138081Y0034114D01*
X0138554Y0033642D01*
X0143761Y0033642D01*
X0144799Y0034680D01*
X0144799Y0038661D01*
X0162228Y0038661D01*
X0163225Y0037665D01*
X0166334Y0037665D01*
X0166945Y0038276D01*
X0166945Y0038029D02*
X0166699Y0038029D01*
X0167418Y0036850D02*
X0144799Y0036850D01*
X0144799Y0038029D02*
X0162860Y0038029D01*
X0168598Y0035670D02*
X0144799Y0035670D01*
X0144610Y0034490D02*
X0169778Y0034490D01*
X0170957Y0033311D02*
X0135744Y0033311D01*
X0136138Y0032131D02*
X0142591Y0032131D01*
X0141411Y0030952D02*
X0136138Y0030952D01*
X0136138Y0029772D02*
X0140554Y0029772D01*
X0140554Y0028592D02*
X0136138Y0028592D01*
X0136138Y0027413D02*
X0140554Y0027413D01*
X0141354Y0026233D02*
X0135744Y0026233D01*
X0137636Y0025053D02*
X0141214Y0025053D01*
X0140035Y0023874D02*
X0138816Y0023874D01*
X0139372Y0022694D02*
X0139478Y0022694D01*
X0139821Y0017976D02*
X0139030Y0017976D01*
X0137990Y0016796D02*
X0140861Y0016796D01*
X0142925Y0015617D02*
X0135925Y0015617D01*
X0132011Y0014437D02*
X0451109Y0014437D01*
X0449930Y0013257D02*
X0130832Y0013257D01*
X0129652Y0012078D02*
X0448750Y0012078D01*
X0447570Y0010898D02*
X0128473Y0010898D01*
X0125410Y0015630D02*
X0115958Y0015630D01*
X0117436Y0016242D01*
X0118931Y0017737D01*
X0119740Y0019691D01*
X0119740Y0021805D01*
X0119635Y0022060D01*
X0119872Y0022297D01*
X0120291Y0023310D01*
X0120291Y0042418D01*
X0120291Y0052087D01*
X0125594Y0057389D01*
X0125594Y0055611D01*
X0126382Y0054823D01*
X0125660Y0054823D01*
X0124622Y0053785D01*
X0124622Y0049955D01*
X0125207Y0049370D01*
X0124622Y0048785D01*
X0124622Y0044955D01*
X0125207Y0044370D01*
X0124622Y0043785D01*
X0124622Y0039955D01*
X0125207Y0039370D01*
X0124622Y0038785D01*
X0124622Y0034955D01*
X0125660Y0033917D01*
X0130232Y0033917D01*
X0130232Y0032604D01*
X0129839Y0032210D01*
X0129839Y0027002D01*
X0130232Y0026609D01*
X0130232Y0024072D01*
X0129919Y0023759D01*
X0129110Y0021805D01*
X0129110Y0019691D01*
X0129216Y0019436D01*
X0125410Y0015630D01*
X0126576Y0016796D02*
X0117990Y0016796D01*
X0119030Y0017976D02*
X0127755Y0017976D01*
X0128935Y0019155D02*
X0119518Y0019155D01*
X0119740Y0020335D02*
X0129110Y0020335D01*
X0129110Y0021515D02*
X0119740Y0021515D01*
X0120036Y0022694D02*
X0129478Y0022694D01*
X0130034Y0023874D02*
X0120291Y0023874D01*
X0120291Y0025053D02*
X0130232Y0025053D01*
X0130232Y0026233D02*
X0120291Y0026233D01*
X0120291Y0027413D02*
X0129839Y0027413D01*
X0129839Y0028592D02*
X0120291Y0028592D01*
X0120291Y0029772D02*
X0129839Y0029772D01*
X0129839Y0030952D02*
X0120291Y0030952D01*
X0120291Y0032131D02*
X0129839Y0032131D01*
X0130232Y0033311D02*
X0120291Y0033311D01*
X0120291Y0034490D02*
X0125087Y0034490D01*
X0124622Y0035670D02*
X0120291Y0035670D01*
X0120291Y0036850D02*
X0124622Y0036850D01*
X0124622Y0038029D02*
X0120291Y0038029D01*
X0120291Y0039209D02*
X0125046Y0039209D01*
X0124622Y0040388D02*
X0120291Y0040388D01*
X0120291Y0041568D02*
X0124622Y0041568D01*
X0124622Y0042748D02*
X0120291Y0042748D01*
X0120291Y0043927D02*
X0124764Y0043927D01*
X0124622Y0045107D02*
X0120291Y0045107D01*
X0120291Y0046286D02*
X0124622Y0046286D01*
X0124622Y0047466D02*
X0120291Y0047466D01*
X0120291Y0048646D02*
X0124622Y0048646D01*
X0124752Y0049825D02*
X0120291Y0049825D01*
X0120291Y0051005D02*
X0124622Y0051005D01*
X0124622Y0052185D02*
X0120389Y0052185D01*
X0121569Y0053364D02*
X0124622Y0053364D01*
X0125381Y0054544D02*
X0122748Y0054544D01*
X0123928Y0055723D02*
X0125594Y0055723D01*
X0125594Y0056903D02*
X0125108Y0056903D01*
X0101565Y0056903D02*
X0083874Y0056903D01*
X0083874Y0055723D02*
X0100385Y0055723D01*
X0099615Y0054544D02*
X0083874Y0054544D01*
X0083874Y0053364D02*
X0099484Y0053364D01*
X0099484Y0052185D02*
X0083874Y0052185D01*
X0083874Y0051005D02*
X0099484Y0051005D01*
X0099484Y0049825D02*
X0083874Y0049825D01*
X0083874Y0048646D02*
X0099484Y0048646D01*
X0099484Y0047466D02*
X0083874Y0047466D01*
X0083874Y0046286D02*
X0099484Y0046286D01*
X0099484Y0045107D02*
X0083874Y0045107D01*
X0083874Y0043927D02*
X0099484Y0043927D01*
X0099484Y0042748D02*
X0083874Y0042748D01*
X0083874Y0041568D02*
X0099484Y0041568D01*
X0099484Y0040388D02*
X0083874Y0040388D01*
X0083874Y0039209D02*
X0099484Y0039209D01*
X0099484Y0038029D02*
X0083874Y0038029D01*
X0083874Y0036850D02*
X0099484Y0036850D01*
X0099484Y0035670D02*
X0083874Y0035670D01*
X0083874Y0034490D02*
X0099484Y0034490D01*
X0099484Y0033311D02*
X0083874Y0033311D01*
X0083874Y0032131D02*
X0099484Y0032131D01*
X0099484Y0030952D02*
X0083874Y0030952D01*
X0083874Y0029772D02*
X0099484Y0029772D01*
X0099484Y0028592D02*
X0085045Y0028592D01*
X0086225Y0027413D02*
X0099484Y0027413D01*
X0099484Y0026233D02*
X0087405Y0026233D01*
X0088584Y0025053D02*
X0099484Y0025053D01*
X0099484Y0023874D02*
X0089764Y0023874D01*
X0090943Y0022694D02*
X0099478Y0022694D01*
X0099110Y0021515D02*
X0092123Y0021515D01*
X0093303Y0020335D02*
X0099110Y0020335D01*
X0099332Y0019155D02*
X0094482Y0019155D01*
X0095662Y0017976D02*
X0099821Y0017976D01*
X0100861Y0016796D02*
X0096841Y0016796D01*
X0092585Y0013257D02*
X0025299Y0013257D01*
X0024622Y0014437D02*
X0091406Y0014437D01*
X0090226Y0015617D02*
X0024622Y0015617D01*
X0024622Y0016796D02*
X0089047Y0016796D01*
X0087867Y0017976D02*
X0024622Y0017976D01*
X0024622Y0019155D02*
X0086687Y0019155D01*
X0085508Y0020335D02*
X0024622Y0020335D01*
X0024622Y0021515D02*
X0084328Y0021515D01*
X0083149Y0022694D02*
X0040078Y0022694D01*
X0038706Y0022126D02*
X0042179Y0023564D01*
X0044837Y0026222D01*
X0046276Y0029695D01*
X0046276Y0033454D01*
X0044837Y0036927D01*
X0042179Y0039585D01*
X0038706Y0041024D01*
X0034947Y0041024D01*
X0031474Y0039585D01*
X0028816Y0036927D01*
X0027378Y0033454D01*
X0027378Y0029695D01*
X0028816Y0026222D01*
X0031474Y0023564D01*
X0034947Y0022126D01*
X0038706Y0022126D01*
X0042488Y0023874D02*
X0081969Y0023874D01*
X0080789Y0025053D02*
X0043668Y0025053D01*
X0044841Y0026233D02*
X0079610Y0026233D01*
X0078636Y0027413D02*
X0045330Y0027413D01*
X0045819Y0028592D02*
X0078362Y0028592D01*
X0078362Y0029772D02*
X0046276Y0029772D01*
X0046276Y0030952D02*
X0078362Y0030952D01*
X0078362Y0032131D02*
X0046276Y0032131D01*
X0046276Y0033311D02*
X0078362Y0033311D01*
X0078362Y0034490D02*
X0045846Y0034490D01*
X0045358Y0035670D02*
X0078362Y0035670D01*
X0078362Y0036850D02*
X0044869Y0036850D01*
X0043735Y0038029D02*
X0078362Y0038029D01*
X0078362Y0039209D02*
X0042555Y0039209D01*
X0040240Y0040388D02*
X0078362Y0040388D01*
X0078362Y0041568D02*
X0024622Y0041568D01*
X0024622Y0040388D02*
X0033414Y0040388D01*
X0031098Y0039209D02*
X0024622Y0039209D01*
X0024622Y0038029D02*
X0029919Y0038029D01*
X0028784Y0036850D02*
X0024622Y0036850D01*
X0024622Y0035670D02*
X0028296Y0035670D01*
X0027807Y0034490D02*
X0024622Y0034490D01*
X0024622Y0033311D02*
X0027378Y0033311D01*
X0027378Y0032131D02*
X0024622Y0032131D01*
X0024622Y0030952D02*
X0027378Y0030952D01*
X0027378Y0029772D02*
X0024622Y0029772D01*
X0024622Y0028592D02*
X0027835Y0028592D01*
X0028323Y0027413D02*
X0024622Y0027413D01*
X0024622Y0026233D02*
X0028812Y0026233D01*
X0029985Y0025053D02*
X0024622Y0025053D01*
X0024622Y0023874D02*
X0031165Y0023874D01*
X0033575Y0022694D02*
X0024622Y0022694D01*
X0026478Y0012078D02*
X0093765Y0012078D01*
X0094945Y0010898D02*
X0027658Y0010898D01*
X0028838Y0009718D02*
X0446391Y0009718D01*
X0445211Y0008539D02*
X0030017Y0008539D01*
X0104996Y0026063D02*
X0104996Y0039109D01*
X0105187Y0038917D01*
X0114780Y0038917D01*
X0114780Y0026063D01*
X0113368Y0026063D01*
X0111415Y0025254D01*
X0109919Y0023759D01*
X0109425Y0022566D01*
X0108931Y0023759D01*
X0107436Y0025254D01*
X0105482Y0026063D01*
X0104996Y0026063D01*
X0104996Y0026233D02*
X0114780Y0026233D01*
X0114780Y0027413D02*
X0104996Y0027413D01*
X0104996Y0028592D02*
X0114780Y0028592D01*
X0114780Y0029772D02*
X0104996Y0029772D01*
X0104996Y0030952D02*
X0114780Y0030952D01*
X0114780Y0032131D02*
X0104996Y0032131D01*
X0104996Y0033311D02*
X0114780Y0033311D01*
X0114780Y0034490D02*
X0104996Y0034490D01*
X0104996Y0035670D02*
X0114780Y0035670D01*
X0114780Y0036850D02*
X0104996Y0036850D01*
X0104996Y0038029D02*
X0114780Y0038029D01*
X0111214Y0025053D02*
X0107636Y0025053D01*
X0108816Y0023874D02*
X0110034Y0023874D01*
X0109478Y0022694D02*
X0109372Y0022694D01*
X0145925Y0015617D02*
X0452289Y0015617D01*
X0453468Y0016796D02*
X0147990Y0016796D01*
X0149030Y0017976D02*
X0454648Y0017976D01*
X0455828Y0019155D02*
X0308382Y0019155D01*
X0308382Y0020335D02*
X0457007Y0020335D01*
X0458187Y0021515D02*
X0308382Y0021515D01*
X0308382Y0022694D02*
X0313463Y0022694D01*
X0312284Y0023874D02*
X0308382Y0023874D01*
X0308382Y0025053D02*
X0311104Y0025053D01*
X0309925Y0026233D02*
X0308382Y0026233D01*
X0308382Y0027413D02*
X0309124Y0027413D01*
X0308972Y0028592D02*
X0308382Y0028592D01*
X0308382Y0029772D02*
X0308972Y0029772D01*
X0302476Y0030832D02*
X0302029Y0031280D01*
X0297806Y0031280D01*
X0296920Y0030394D01*
X0295842Y0030394D01*
X0292535Y0033701D01*
X0292535Y0055040D01*
X0303152Y0065656D01*
X0303927Y0066431D01*
X0304346Y0067444D01*
X0304346Y0085551D01*
X0305685Y0086890D01*
X0317181Y0086890D01*
X0321079Y0082992D01*
X0321079Y0064109D01*
X0322117Y0063071D01*
X0331065Y0063071D01*
X0331261Y0063268D01*
X0350367Y0063268D01*
X0351380Y0063687D01*
X0352155Y0064463D01*
X0352575Y0065475D01*
X0352575Y0084288D01*
X0352155Y0085301D01*
X0351380Y0086076D01*
X0350367Y0086496D01*
X0339780Y0086496D01*
X0339780Y0094098D01*
X0340495Y0093382D01*
X0341436Y0092992D01*
X0393897Y0092992D01*
X0392373Y0091468D01*
X0391354Y0089008D01*
X0391354Y0086346D01*
X0392373Y0083886D01*
X0417476Y0058783D01*
X0417476Y0047674D01*
X0411973Y0042170D01*
X0410039Y0040236D01*
X0352575Y0040236D01*
X0352575Y0041966D01*
X0352155Y0042978D01*
X0351380Y0043754D01*
X0350367Y0044173D01*
X0313838Y0044173D01*
X0312825Y0043754D01*
X0312049Y0042978D01*
X0311630Y0041966D01*
X0311630Y0041005D01*
X0311506Y0041305D01*
X0307864Y0044947D01*
X0307089Y0045722D01*
X0306076Y0046142D01*
X0303165Y0046142D01*
X0303165Y0046285D01*
X0302128Y0047323D01*
X0295148Y0047323D01*
X0294110Y0046285D01*
X0294110Y0041274D01*
X0295148Y0040236D01*
X0302128Y0040236D01*
X0302521Y0040630D01*
X0304386Y0040630D01*
X0305666Y0039350D01*
X0304991Y0039350D01*
X0303953Y0038313D01*
X0303953Y0035964D01*
X0303671Y0035683D01*
X0302896Y0034908D01*
X0302476Y0033895D01*
X0302476Y0030832D01*
X0302476Y0030952D02*
X0302357Y0030952D01*
X0302476Y0032131D02*
X0294105Y0032131D01*
X0295284Y0030952D02*
X0297478Y0030952D01*
X0292925Y0033311D02*
X0302476Y0033311D01*
X0302723Y0034490D02*
X0292535Y0034490D01*
X0292535Y0035670D02*
X0303658Y0035670D01*
X0303953Y0036850D02*
X0292535Y0036850D01*
X0292535Y0038029D02*
X0303953Y0038029D01*
X0304849Y0039209D02*
X0292535Y0039209D01*
X0292535Y0040388D02*
X0294996Y0040388D01*
X0294110Y0041568D02*
X0292535Y0041568D01*
X0292535Y0042748D02*
X0294110Y0042748D01*
X0294110Y0043927D02*
X0292535Y0043927D01*
X0292535Y0045107D02*
X0294110Y0045107D01*
X0294112Y0046286D02*
X0292535Y0046286D01*
X0292535Y0047466D02*
X0307505Y0047466D01*
X0307550Y0047421D02*
X0313348Y0047421D01*
X0314386Y0048459D01*
X0314386Y0055492D01*
X0315218Y0055492D01*
X0316256Y0056530D01*
X0316256Y0056994D01*
X0316277Y0057015D01*
X0316846Y0058390D01*
X0316846Y0065094D01*
X0316277Y0066469D01*
X0315567Y0067179D01*
X0315567Y0085655D01*
X0314529Y0086693D01*
X0305581Y0086693D01*
X0304543Y0085655D01*
X0304543Y0064109D01*
X0305581Y0063071D01*
X0309096Y0063071D01*
X0309366Y0062801D01*
X0300297Y0062801D01*
X0301477Y0063981D02*
X0304671Y0063981D01*
X0304543Y0065160D02*
X0302656Y0065160D01*
X0303836Y0066340D02*
X0304543Y0066340D01*
X0304543Y0067520D02*
X0304346Y0067520D01*
X0304346Y0068699D02*
X0304543Y0068699D01*
X0304543Y0069879D02*
X0304346Y0069879D01*
X0304346Y0071058D02*
X0304543Y0071058D01*
X0304543Y0072238D02*
X0304346Y0072238D01*
X0304346Y0073418D02*
X0304543Y0073418D01*
X0304543Y0074597D02*
X0304346Y0074597D01*
X0304346Y0075777D02*
X0304543Y0075777D01*
X0304543Y0076956D02*
X0304346Y0076956D01*
X0304346Y0078136D02*
X0304543Y0078136D01*
X0304543Y0079316D02*
X0304346Y0079316D01*
X0304346Y0080495D02*
X0304543Y0080495D01*
X0304543Y0081675D02*
X0304346Y0081675D01*
X0304346Y0082855D02*
X0304543Y0082855D01*
X0304543Y0084034D02*
X0304346Y0084034D01*
X0304346Y0085214D02*
X0304543Y0085214D01*
X0305188Y0086393D02*
X0305282Y0086393D01*
X0299753Y0088753D02*
X0277772Y0088753D01*
X0280775Y0087573D02*
X0298972Y0087573D01*
X0298835Y0086393D02*
X0284559Y0086393D01*
X0285658Y0085214D02*
X0298835Y0085214D01*
X0298835Y0084034D02*
X0285658Y0084034D01*
X0285658Y0082855D02*
X0298835Y0082855D01*
X0298835Y0081675D02*
X0285147Y0081675D01*
X0283968Y0080495D02*
X0298835Y0080495D01*
X0298835Y0079316D02*
X0280971Y0079316D01*
X0274573Y0079316D02*
X0273490Y0079316D01*
X0274031Y0080495D02*
X0274031Y0080495D01*
X0274031Y0081675D02*
X0274031Y0081675D01*
X0274031Y0082855D02*
X0274031Y0082855D01*
X0274031Y0084034D02*
X0274031Y0084034D01*
X0274031Y0085214D02*
X0274031Y0085214D01*
X0274031Y0086393D02*
X0274031Y0086393D01*
X0268978Y0078136D02*
X0298835Y0078136D01*
X0298835Y0076956D02*
X0267799Y0076956D01*
X0267617Y0075777D02*
X0298835Y0075777D01*
X0298835Y0074597D02*
X0268797Y0074597D01*
X0268926Y0073418D02*
X0298835Y0073418D01*
X0298835Y0072238D02*
X0268926Y0072238D01*
X0268625Y0071058D02*
X0298835Y0071058D01*
X0298835Y0069879D02*
X0267929Y0069879D01*
X0267929Y0068699D02*
X0298400Y0068699D01*
X0297221Y0067520D02*
X0267929Y0067520D01*
X0267929Y0066340D02*
X0296041Y0066340D01*
X0294861Y0065160D02*
X0267929Y0065160D01*
X0267929Y0063981D02*
X0293682Y0063981D01*
X0292502Y0062801D02*
X0267929Y0062801D01*
X0267929Y0061621D02*
X0291322Y0061621D01*
X0290143Y0060442D02*
X0267929Y0060442D01*
X0267929Y0059262D02*
X0288963Y0059262D01*
X0287784Y0058083D02*
X0267929Y0058083D01*
X0267929Y0056903D02*
X0287096Y0056903D01*
X0287024Y0055723D02*
X0267929Y0055723D01*
X0267929Y0054544D02*
X0287024Y0054544D01*
X0287024Y0053364D02*
X0267929Y0053364D01*
X0267929Y0052185D02*
X0287024Y0052185D01*
X0287024Y0051005D02*
X0267929Y0051005D01*
X0267929Y0049825D02*
X0287024Y0049825D01*
X0287024Y0048646D02*
X0267929Y0048646D01*
X0267929Y0047466D02*
X0287024Y0047466D01*
X0287024Y0046286D02*
X0267929Y0046286D01*
X0267929Y0045107D02*
X0287024Y0045107D01*
X0287024Y0043927D02*
X0267929Y0043927D01*
X0267929Y0042748D02*
X0287024Y0042748D01*
X0287024Y0041568D02*
X0267929Y0041568D01*
X0267929Y0040388D02*
X0287024Y0040388D01*
X0287024Y0039209D02*
X0267929Y0039209D01*
X0267568Y0038029D02*
X0287024Y0038029D01*
X0287024Y0036850D02*
X0266471Y0036850D01*
X0265292Y0035670D02*
X0287024Y0035670D01*
X0287024Y0034490D02*
X0264112Y0034490D01*
X0262933Y0033311D02*
X0287024Y0033311D01*
X0287024Y0032131D02*
X0261753Y0032131D01*
X0260573Y0030952D02*
X0287490Y0030952D01*
X0288669Y0029772D02*
X0259394Y0029772D01*
X0258214Y0028592D02*
X0289849Y0028592D01*
X0291028Y0027413D02*
X0257034Y0027413D01*
X0255855Y0026233D02*
X0292208Y0026233D01*
X0293738Y0025053D02*
X0254675Y0025053D01*
X0253496Y0023874D02*
X0302083Y0023874D01*
X0302083Y0022694D02*
X0252316Y0022694D01*
X0251136Y0021515D02*
X0302083Y0021515D01*
X0302083Y0020335D02*
X0249957Y0020335D01*
X0248777Y0019155D02*
X0302083Y0019155D01*
X0321790Y0022694D02*
X0459366Y0022694D01*
X0460546Y0023874D02*
X0321965Y0023874D01*
X0321965Y0025053D02*
X0461726Y0025053D01*
X0462417Y0026233D02*
X0321965Y0026233D01*
X0304628Y0040388D02*
X0302280Y0040388D01*
X0307704Y0045107D02*
X0393601Y0045107D01*
X0392445Y0045586D02*
X0394905Y0044567D01*
X0408690Y0044567D01*
X0409640Y0044961D01*
X0411084Y0044961D01*
X0412122Y0045998D01*
X0412122Y0046558D01*
X0413032Y0047469D01*
X0414051Y0049929D01*
X0414051Y0052591D01*
X0413032Y0055051D01*
X0412122Y0055961D01*
X0412122Y0056521D01*
X0411084Y0057559D01*
X0409640Y0057559D01*
X0408690Y0057953D01*
X0399009Y0057953D01*
X0391020Y0065942D01*
X0391020Y0067041D01*
X0390166Y0069103D01*
X0388587Y0070681D01*
X0386525Y0071535D01*
X0384293Y0071535D01*
X0382231Y0070681D01*
X0380653Y0069103D01*
X0379799Y0067041D01*
X0379799Y0065942D01*
X0379735Y0065878D01*
X0378717Y0063418D01*
X0378717Y0060755D01*
X0379735Y0058295D01*
X0379799Y0058232D01*
X0379799Y0057132D01*
X0380653Y0055070D01*
X0382231Y0053492D01*
X0384293Y0052638D01*
X0385393Y0052638D01*
X0390562Y0047469D01*
X0392445Y0045586D01*
X0391744Y0046286D02*
X0303164Y0046286D01*
X0306512Y0048459D02*
X0306512Y0055492D01*
X0305680Y0055492D01*
X0304642Y0056530D01*
X0304642Y0061738D01*
X0305680Y0062776D01*
X0309366Y0062776D01*
X0309366Y0062801D01*
X0304642Y0061621D02*
X0299117Y0061621D01*
X0297938Y0060442D02*
X0304642Y0060442D01*
X0304642Y0059262D02*
X0296758Y0059262D01*
X0295578Y0058083D02*
X0304642Y0058083D01*
X0304642Y0056903D02*
X0294399Y0056903D01*
X0293219Y0055723D02*
X0305448Y0055723D01*
X0306512Y0054544D02*
X0292535Y0054544D01*
X0292535Y0053364D02*
X0306512Y0053364D01*
X0306512Y0052185D02*
X0292535Y0052185D01*
X0292535Y0051005D02*
X0306512Y0051005D01*
X0306512Y0049825D02*
X0292535Y0049825D01*
X0292535Y0048646D02*
X0306512Y0048646D01*
X0306512Y0048459D02*
X0307550Y0047421D01*
X0308884Y0043927D02*
X0313244Y0043927D01*
X0311954Y0042748D02*
X0310063Y0042748D01*
X0311243Y0041568D02*
X0311630Y0041568D01*
X0313393Y0047466D02*
X0390565Y0047466D01*
X0389385Y0048646D02*
X0314386Y0048646D01*
X0314386Y0049825D02*
X0388206Y0049825D01*
X0387026Y0051005D02*
X0314386Y0051005D01*
X0314386Y0052185D02*
X0385846Y0052185D01*
X0382540Y0053364D02*
X0314386Y0053364D01*
X0314386Y0054544D02*
X0381180Y0054544D01*
X0380383Y0055723D02*
X0315449Y0055723D01*
X0316256Y0056903D02*
X0379894Y0056903D01*
X0379799Y0058083D02*
X0316719Y0058083D01*
X0316846Y0059262D02*
X0379335Y0059262D01*
X0378846Y0060442D02*
X0316846Y0060442D01*
X0316846Y0061621D02*
X0378717Y0061621D01*
X0378717Y0062801D02*
X0316846Y0062801D01*
X0316846Y0063981D02*
X0321207Y0063981D01*
X0321079Y0065160D02*
X0316819Y0065160D01*
X0316331Y0066340D02*
X0321079Y0066340D01*
X0321079Y0067520D02*
X0315567Y0067520D01*
X0315567Y0068699D02*
X0321079Y0068699D01*
X0321079Y0069879D02*
X0315567Y0069879D01*
X0315567Y0071058D02*
X0321079Y0071058D01*
X0321079Y0072238D02*
X0315567Y0072238D01*
X0315567Y0073418D02*
X0321079Y0073418D01*
X0321079Y0074597D02*
X0315567Y0074597D01*
X0315567Y0075777D02*
X0321079Y0075777D01*
X0321079Y0076956D02*
X0315567Y0076956D01*
X0315567Y0078136D02*
X0321079Y0078136D01*
X0321079Y0079316D02*
X0315567Y0079316D01*
X0315567Y0080495D02*
X0321079Y0080495D01*
X0321079Y0081675D02*
X0315567Y0081675D01*
X0315567Y0082855D02*
X0321079Y0082855D01*
X0320037Y0084034D02*
X0315567Y0084034D01*
X0315567Y0085214D02*
X0318857Y0085214D01*
X0317678Y0086393D02*
X0314829Y0086393D01*
X0339780Y0087573D02*
X0391354Y0087573D01*
X0391354Y0088753D02*
X0339780Y0088753D01*
X0339780Y0089932D02*
X0391737Y0089932D01*
X0392226Y0091112D02*
X0339780Y0091112D01*
X0339780Y0092291D02*
X0393196Y0092291D01*
X0391354Y0086393D02*
X0350615Y0086393D01*
X0352191Y0085214D02*
X0391823Y0085214D01*
X0392312Y0084034D02*
X0352575Y0084034D01*
X0352575Y0082855D02*
X0393405Y0082855D01*
X0394584Y0081675D02*
X0352575Y0081675D01*
X0352575Y0080495D02*
X0395764Y0080495D01*
X0396944Y0079316D02*
X0352575Y0079316D01*
X0352575Y0078136D02*
X0398123Y0078136D01*
X0399303Y0076956D02*
X0352575Y0076956D01*
X0352575Y0075777D02*
X0400482Y0075777D01*
X0401662Y0074597D02*
X0352575Y0074597D01*
X0352575Y0073418D02*
X0402842Y0073418D01*
X0404021Y0072238D02*
X0352575Y0072238D01*
X0352575Y0071058D02*
X0383142Y0071058D01*
X0381429Y0069879D02*
X0352575Y0069879D01*
X0352575Y0068699D02*
X0380486Y0068699D01*
X0379997Y0067520D02*
X0352575Y0067520D01*
X0352575Y0066340D02*
X0379799Y0066340D01*
X0379438Y0065160D02*
X0352444Y0065160D01*
X0351673Y0063981D02*
X0378950Y0063981D01*
X0389390Y0069879D02*
X0406380Y0069879D01*
X0405201Y0071058D02*
X0387677Y0071058D01*
X0390333Y0068699D02*
X0407560Y0068699D01*
X0408740Y0067520D02*
X0390822Y0067520D01*
X0391020Y0066340D02*
X0409919Y0066340D01*
X0411099Y0065160D02*
X0391801Y0065160D01*
X0392981Y0063981D02*
X0412279Y0063981D01*
X0413458Y0062801D02*
X0394160Y0062801D01*
X0395340Y0061621D02*
X0414638Y0061621D01*
X0415817Y0060442D02*
X0396519Y0060442D01*
X0397699Y0059262D02*
X0416997Y0059262D01*
X0417476Y0058083D02*
X0398879Y0058083D01*
X0411740Y0056903D02*
X0417476Y0056903D01*
X0417476Y0055723D02*
X0412360Y0055723D01*
X0413242Y0054544D02*
X0417476Y0054544D01*
X0417476Y0053364D02*
X0413731Y0053364D01*
X0414051Y0052185D02*
X0417476Y0052185D01*
X0417476Y0051005D02*
X0414051Y0051005D01*
X0414008Y0049825D02*
X0417476Y0049825D01*
X0417476Y0048646D02*
X0413520Y0048646D01*
X0413030Y0047466D02*
X0417269Y0047466D01*
X0416089Y0046286D02*
X0412122Y0046286D01*
X0411230Y0045107D02*
X0414909Y0045107D01*
X0413730Y0043927D02*
X0350961Y0043927D01*
X0352251Y0042748D02*
X0412550Y0042748D01*
X0411371Y0041568D02*
X0352575Y0041568D01*
X0352575Y0040388D02*
X0410191Y0040388D01*
X0422044Y0033311D02*
X0462417Y0033311D01*
X0462417Y0034490D02*
X0423223Y0034490D01*
X0424403Y0035670D02*
X0462417Y0035670D01*
X0462417Y0036850D02*
X0425582Y0036850D01*
X0426762Y0038029D02*
X0462417Y0038029D01*
X0462417Y0039209D02*
X0427942Y0039209D01*
X0429121Y0040388D02*
X0462417Y0040388D01*
X0462417Y0041568D02*
X0430033Y0041568D01*
X0430521Y0042748D02*
X0462417Y0042748D01*
X0462417Y0043927D02*
X0454825Y0043927D01*
X0455565Y0044234D02*
X0458223Y0046892D01*
X0459661Y0050365D01*
X0459661Y0054124D01*
X0458223Y0057596D01*
X0455565Y0060254D01*
X0452092Y0061693D01*
X0448333Y0061693D01*
X0444860Y0060254D01*
X0442202Y0057596D01*
X0440764Y0054124D01*
X0440764Y0050365D01*
X0442202Y0046892D01*
X0444860Y0044234D01*
X0448333Y0042795D01*
X0452092Y0042795D01*
X0455565Y0044234D01*
X0456438Y0045107D02*
X0462417Y0045107D01*
X0462417Y0046286D02*
X0457618Y0046286D01*
X0458461Y0047466D02*
X0462417Y0047466D01*
X0462417Y0048646D02*
X0458949Y0048646D01*
X0459438Y0049825D02*
X0462417Y0049825D01*
X0462417Y0051005D02*
X0459661Y0051005D01*
X0459661Y0052185D02*
X0462417Y0052185D01*
X0462417Y0053364D02*
X0459661Y0053364D01*
X0459487Y0054544D02*
X0462417Y0054544D01*
X0462417Y0055723D02*
X0458999Y0055723D01*
X0458510Y0056903D02*
X0462417Y0056903D01*
X0462417Y0058083D02*
X0457737Y0058083D01*
X0456557Y0059262D02*
X0462417Y0059262D01*
X0462417Y0060442D02*
X0455112Y0060442D01*
X0452265Y0061621D02*
X0462417Y0061621D01*
X0462417Y0062801D02*
X0430862Y0062801D01*
X0430862Y0061621D02*
X0448161Y0061621D01*
X0445313Y0060442D02*
X0430862Y0060442D01*
X0430862Y0059262D02*
X0443868Y0059262D01*
X0442688Y0058083D02*
X0430862Y0058083D01*
X0430862Y0056903D02*
X0441915Y0056903D01*
X0441426Y0055723D02*
X0430862Y0055723D01*
X0430862Y0054544D02*
X0440938Y0054544D01*
X0440764Y0053364D02*
X0430862Y0053364D01*
X0430862Y0052185D02*
X0440764Y0052185D01*
X0440764Y0051005D02*
X0430862Y0051005D01*
X0430862Y0049825D02*
X0440987Y0049825D01*
X0441476Y0048646D02*
X0430862Y0048646D01*
X0430862Y0047466D02*
X0441964Y0047466D01*
X0442808Y0046286D02*
X0430862Y0046286D01*
X0430862Y0045107D02*
X0443987Y0045107D01*
X0445600Y0043927D02*
X0430862Y0043927D01*
X0420864Y0032131D02*
X0462417Y0032131D01*
X0462417Y0030952D02*
X0419684Y0030952D01*
X0418505Y0029772D02*
X0462417Y0029772D01*
X0462417Y0028592D02*
X0417325Y0028592D01*
X0415500Y0027413D02*
X0462417Y0027413D01*
X0462417Y0063981D02*
X0430409Y0063981D01*
X0429920Y0065160D02*
X0462417Y0065160D01*
X0462417Y0066340D02*
X0428850Y0066340D01*
X0427670Y0067520D02*
X0462417Y0067520D01*
X0462417Y0068699D02*
X0426490Y0068699D01*
X0425311Y0069879D02*
X0462417Y0069879D01*
X0462417Y0071058D02*
X0424131Y0071058D01*
X0422952Y0072238D02*
X0462417Y0072238D01*
X0462417Y0073418D02*
X0421772Y0073418D01*
X0420592Y0074597D02*
X0462417Y0074597D01*
X0461447Y0075777D02*
X0419413Y0075777D01*
X0418233Y0076956D02*
X0460267Y0076956D01*
X0459087Y0078136D02*
X0417054Y0078136D01*
X0415874Y0079316D02*
X0457908Y0079316D01*
X0456728Y0080495D02*
X0414694Y0080495D01*
X0413515Y0081675D02*
X0455549Y0081675D01*
X0454369Y0082855D02*
X0412335Y0082855D01*
X0411155Y0084034D02*
X0453189Y0084034D01*
X0452010Y0085214D02*
X0409976Y0085214D01*
X0408796Y0086393D02*
X0450830Y0086393D01*
X0449651Y0087573D02*
X0407617Y0087573D01*
X0406437Y0088753D02*
X0448471Y0088753D01*
X0447291Y0089932D02*
X0405257Y0089932D01*
X0404078Y0091112D02*
X0446112Y0091112D01*
X0444932Y0092291D02*
X0402898Y0092291D01*
X0340406Y0093471D02*
X0339780Y0093471D01*
X0326394Y0130787D02*
X0325649Y0130787D01*
X0305685Y0130787D01*
X0300409Y0136063D01*
X0300409Y0152202D01*
X0299990Y0153215D01*
X0299215Y0153990D01*
X0298202Y0154409D01*
X0296079Y0154409D01*
X0296079Y0161738D01*
X0295041Y0162776D01*
X0293089Y0162776D01*
X0293013Y0162851D01*
X0290915Y0163720D01*
X0268919Y0163720D01*
X0269012Y0163813D01*
X0269012Y0166395D01*
X0269252Y0166663D01*
X0269898Y0167309D01*
X0269898Y0167385D01*
X0269948Y0167441D01*
X0269898Y0168353D01*
X0269898Y0172573D01*
X0270094Y0172770D01*
X0270094Y0176206D01*
X0269057Y0177244D01*
X0266014Y0177244D01*
X0264976Y0176206D01*
X0264976Y0174874D01*
X0262791Y0177060D01*
X0259682Y0177060D01*
X0258685Y0176063D01*
X0258099Y0176063D01*
X0258099Y0178799D01*
X0255901Y0180997D01*
X0252792Y0180997D01*
X0251795Y0180000D01*
X0249189Y0180000D01*
X0250777Y0181589D01*
X0251197Y0182601D01*
X0251197Y0207599D01*
X0252635Y0209037D01*
X0252575Y0208891D01*
X0252575Y0206620D01*
X0253444Y0204522D01*
X0255050Y0202916D01*
X0257148Y0202047D01*
X0258579Y0202047D01*
X0258579Y0198459D01*
X0259124Y0197913D01*
X0258972Y0197761D01*
X0258919Y0197815D01*
X0253711Y0197815D01*
X0252673Y0196777D01*
X0252673Y0192554D01*
X0253219Y0192008D01*
X0252673Y0191462D01*
X0252673Y0187239D01*
X0253711Y0186201D01*
X0255567Y0186201D01*
X0257791Y0183977D01*
X0257791Y0180546D01*
X0258829Y0179508D01*
X0263053Y0179508D01*
X0263348Y0179803D01*
X0265424Y0179803D01*
X0266014Y0179213D01*
X0269057Y0179213D01*
X0270094Y0180250D01*
X0270094Y0183687D01*
X0269057Y0184724D01*
X0266014Y0184724D01*
X0265817Y0184528D01*
X0264091Y0184528D01*
X0264091Y0185754D01*
X0263053Y0186791D01*
X0262771Y0186791D01*
X0262502Y0187061D01*
X0259957Y0189606D01*
X0259957Y0191462D01*
X0259509Y0191909D01*
X0262178Y0191909D01*
X0262653Y0192106D01*
X0264824Y0192106D01*
X0265862Y0193144D01*
X0265862Y0195590D01*
X0266239Y0194680D01*
X0267845Y0193074D01*
X0269943Y0192205D01*
X0276197Y0192205D01*
X0276197Y0176850D01*
X0274568Y0176850D01*
X0274175Y0177244D01*
X0271132Y0177244D01*
X0270094Y0176206D01*
X0270094Y0172770D01*
X0271132Y0171732D01*
X0274175Y0171732D01*
X0274568Y0172126D01*
X0276844Y0172126D01*
X0277066Y0171589D01*
X0278672Y0169983D01*
X0280770Y0169114D01*
X0290915Y0169114D01*
X0293013Y0169983D01*
X0293089Y0170059D01*
X0293901Y0170059D01*
X0293901Y0167816D01*
X0296099Y0165617D01*
X0299208Y0165617D01*
X0300205Y0166614D01*
X0308665Y0166614D01*
X0308665Y0163879D01*
X0309664Y0162879D01*
X0308956Y0162171D01*
X0308562Y0161777D01*
X0307693Y0159679D01*
X0307693Y0157408D01*
X0308562Y0155310D01*
X0310168Y0153704D01*
X0312266Y0152835D01*
X0326348Y0152835D01*
X0327196Y0153186D01*
X0327223Y0153159D01*
X0327481Y0152614D01*
X0327598Y0152167D01*
X0327590Y0152112D01*
X0327625Y0152063D01*
X0327634Y0152030D01*
X0327422Y0151517D01*
X0327413Y0151508D01*
X0326394Y0149048D01*
X0326394Y0130787D01*
X0326394Y0131219D02*
X0305254Y0131219D01*
X0304074Y0132398D02*
X0326394Y0132398D01*
X0326394Y0133578D02*
X0302894Y0133578D01*
X0301715Y0134758D02*
X0326394Y0134758D01*
X0326394Y0135937D02*
X0300535Y0135937D01*
X0300409Y0137117D02*
X0326394Y0137117D01*
X0326394Y0138296D02*
X0300409Y0138296D01*
X0300409Y0139476D02*
X0326394Y0139476D01*
X0326394Y0140656D02*
X0300409Y0140656D01*
X0300409Y0141835D02*
X0326394Y0141835D01*
X0326394Y0143015D02*
X0300409Y0143015D01*
X0300409Y0144194D02*
X0326394Y0144194D01*
X0326394Y0145374D02*
X0300409Y0145374D01*
X0300409Y0146554D02*
X0326394Y0146554D01*
X0326394Y0147733D02*
X0300409Y0147733D01*
X0300409Y0148913D02*
X0326394Y0148913D01*
X0326826Y0150092D02*
X0300409Y0150092D01*
X0300409Y0151272D02*
X0327315Y0151272D01*
X0327524Y0152452D02*
X0300306Y0152452D01*
X0299573Y0153631D02*
X0310343Y0153631D01*
X0309061Y0154811D02*
X0296079Y0154811D01*
X0296079Y0155991D02*
X0308280Y0155991D01*
X0307791Y0157170D02*
X0296079Y0157170D01*
X0296079Y0158350D02*
X0307693Y0158350D01*
X0307693Y0159529D02*
X0296079Y0159529D01*
X0296079Y0160709D02*
X0308120Y0160709D01*
X0308674Y0161889D02*
X0295928Y0161889D01*
X0292490Y0163068D02*
X0309475Y0163068D01*
X0308665Y0164248D02*
X0269012Y0164248D01*
X0269012Y0165427D02*
X0308665Y0165427D01*
X0308665Y0166607D02*
X0300198Y0166607D01*
X0295109Y0166607D02*
X0269202Y0166607D01*
X0269929Y0167787D02*
X0293930Y0167787D01*
X0293901Y0168966D02*
X0269898Y0168966D01*
X0269898Y0170146D02*
X0278509Y0170146D01*
X0277330Y0171326D02*
X0269898Y0171326D01*
X0269898Y0172505D02*
X0270359Y0172505D01*
X0270094Y0173685D02*
X0270094Y0173685D01*
X0270094Y0174864D02*
X0270094Y0174864D01*
X0270094Y0176044D02*
X0270094Y0176044D01*
X0269077Y0177224D02*
X0271112Y0177224D01*
X0269427Y0179583D02*
X0276197Y0179583D01*
X0276197Y0180762D02*
X0270094Y0180762D01*
X0270094Y0181942D02*
X0276197Y0181942D01*
X0276197Y0183122D02*
X0270094Y0183122D01*
X0270094Y0181969D02*
X0272654Y0181969D01*
X0274031Y0183346D01*
X0274031Y0185118D01*
X0276197Y0185481D02*
X0264091Y0185481D01*
X0263184Y0186661D02*
X0276197Y0186661D01*
X0276197Y0187840D02*
X0261723Y0187840D01*
X0260543Y0189020D02*
X0276197Y0189020D01*
X0276197Y0190199D02*
X0259957Y0190199D01*
X0259957Y0191379D02*
X0276197Y0191379D01*
X0270094Y0188071D02*
X0270094Y0181969D01*
X0269480Y0184301D02*
X0276197Y0184301D01*
X0267535Y0181969D02*
X0267339Y0182165D01*
X0262220Y0182165D01*
X0261236Y0183150D01*
X0260941Y0183150D01*
X0257791Y0183122D02*
X0251197Y0183122D01*
X0251197Y0184301D02*
X0257467Y0184301D01*
X0256287Y0185481D02*
X0251197Y0185481D01*
X0251197Y0186661D02*
X0253251Y0186661D01*
X0252673Y0187840D02*
X0251197Y0187840D01*
X0251197Y0189020D02*
X0252673Y0189020D01*
X0252673Y0190199D02*
X0251197Y0190199D01*
X0251197Y0191379D02*
X0252673Y0191379D01*
X0252673Y0192559D02*
X0251197Y0192559D01*
X0251197Y0193738D02*
X0252673Y0193738D01*
X0252673Y0194918D02*
X0251197Y0194918D01*
X0251197Y0196097D02*
X0252673Y0196097D01*
X0253173Y0197277D02*
X0251197Y0197277D01*
X0251197Y0198457D02*
X0258581Y0198457D01*
X0258579Y0199636D02*
X0251197Y0199636D01*
X0251197Y0200816D02*
X0258579Y0200816D01*
X0258579Y0201995D02*
X0251197Y0201995D01*
X0251197Y0203175D02*
X0254791Y0203175D01*
X0253611Y0204355D02*
X0251197Y0204355D01*
X0251197Y0205534D02*
X0253025Y0205534D01*
X0252575Y0206714D02*
X0251197Y0206714D01*
X0251492Y0207894D02*
X0252575Y0207894D01*
X0260252Y0204803D02*
X0281906Y0204803D01*
X0282890Y0203819D01*
X0282890Y0204941D01*
X0282043Y0205787D01*
X0276000Y0205787D01*
X0275016Y0205787D01*
X0274031Y0206772D01*
X0273047Y0205787D01*
X0272063Y0205787D01*
X0275016Y0205787D01*
X0276000Y0205787D02*
X0274031Y0207756D01*
X0270094Y0207756D01*
X0270094Y0209429D01*
X0271374Y0210709D01*
X0276689Y0210709D02*
X0276984Y0210413D01*
X0276984Y0209724D01*
X0276984Y0213661D01*
X0276984Y0209724D02*
X0278953Y0207756D01*
X0282043Y0207756D01*
X0282043Y0209724D02*
X0281906Y0209862D01*
X0281906Y0213661D01*
X0282890Y0212677D01*
X0281906Y0213661D01*
X0281906Y0209724D01*
X0280921Y0209724D01*
X0280921Y0216614D01*
X0280921Y0213661D01*
X0281906Y0212677D01*
X0282890Y0213661D01*
X0285705Y0213661D01*
X0285843Y0213524D01*
X0286689Y0213524D01*
X0286827Y0213661D01*
X0286827Y0214646D01*
X0283874Y0216614D01*
X0285705Y0215630D02*
X0287811Y0213524D01*
X0287811Y0215630D01*
X0285843Y0217598D01*
X0289780Y0220846D02*
X0291748Y0222815D01*
X0289780Y0220846D02*
X0289780Y0213524D01*
X0291748Y0213524D02*
X0291748Y0215925D01*
X0298638Y0222815D01*
X0298829Y0219665D02*
X0301242Y0219665D01*
X0302280Y0220703D01*
X0302280Y0224927D01*
X0301242Y0225965D01*
X0296034Y0225965D01*
X0295193Y0225124D01*
X0294352Y0225965D01*
X0289144Y0225965D01*
X0288106Y0224927D01*
X0288106Y0223408D01*
X0287108Y0224406D01*
X0286745Y0224769D01*
X0285139Y0226375D01*
X0283041Y0227244D01*
X0224622Y0227244D01*
X0224622Y0238419D01*
X0223753Y0240517D01*
X0222147Y0242123D01*
X0220999Y0242598D01*
X0333011Y0242598D01*
X0339386Y0236223D01*
X0339386Y0149998D01*
X0338761Y0151508D01*
X0338751Y0151517D01*
X0338539Y0152030D01*
X0338548Y0152063D01*
X0338583Y0152112D01*
X0338575Y0152167D01*
X0338692Y0152614D01*
X0338951Y0153159D01*
X0338992Y0153200D01*
X0338992Y0153763D01*
X0339134Y0154307D01*
X0338992Y0154550D01*
X0338992Y0154663D01*
X0339134Y0154906D01*
X0338992Y0155450D01*
X0338992Y0156012D01*
X0338951Y0156054D01*
X0338692Y0156598D01*
X0338575Y0157046D01*
X0338583Y0157101D01*
X0338548Y0157149D01*
X0338539Y0157183D01*
X0338795Y0157801D01*
X0338795Y0160073D01*
X0337926Y0162171D01*
X0336320Y0163777D01*
X0334222Y0164646D01*
X0316170Y0164646D01*
X0316170Y0165288D01*
X0321460Y0170578D01*
X0321460Y0168800D01*
X0323658Y0166602D01*
X0326767Y0166602D01*
X0328965Y0168800D01*
X0328965Y0171909D01*
X0327968Y0172906D01*
X0327968Y0202399D01*
X0327549Y0203411D01*
X0326774Y0204187D01*
X0320868Y0210092D01*
X0320172Y0210381D01*
X0319155Y0211398D01*
X0314932Y0211398D01*
X0314386Y0210852D01*
X0313840Y0211398D01*
X0310146Y0211398D01*
X0308066Y0213477D01*
X0304957Y0213477D01*
X0302759Y0211279D01*
X0302759Y0210118D01*
X0295345Y0210118D01*
X0294307Y0209080D01*
X0294307Y0201260D01*
X0285252Y0201260D01*
X0285252Y0210315D01*
X0293072Y0210315D01*
X0294110Y0211353D01*
X0294110Y0214947D01*
X0298829Y0219665D01*
X0297674Y0218510D02*
X0339386Y0218510D01*
X0339386Y0217330D02*
X0296494Y0217330D01*
X0295314Y0216151D02*
X0339386Y0216151D01*
X0339386Y0214971D02*
X0294135Y0214971D01*
X0294110Y0213792D02*
X0339386Y0213792D01*
X0339386Y0212612D02*
X0308931Y0212612D01*
X0310111Y0211432D02*
X0339386Y0211432D01*
X0339386Y0210253D02*
X0320481Y0210253D01*
X0321887Y0209073D02*
X0339386Y0209073D01*
X0339386Y0207894D02*
X0323067Y0207894D01*
X0324246Y0206714D02*
X0339386Y0206714D01*
X0339386Y0205534D02*
X0325426Y0205534D01*
X0326606Y0204355D02*
X0339386Y0204355D01*
X0339386Y0203175D02*
X0327647Y0203175D01*
X0327968Y0201995D02*
X0339386Y0201995D01*
X0339386Y0200816D02*
X0327968Y0200816D01*
X0327968Y0199636D02*
X0339386Y0199636D01*
X0339386Y0198457D02*
X0327968Y0198457D01*
X0327968Y0197277D02*
X0339386Y0197277D01*
X0339386Y0196097D02*
X0327968Y0196097D01*
X0327968Y0194918D02*
X0339386Y0194918D01*
X0339386Y0193738D02*
X0327968Y0193738D01*
X0327968Y0192559D02*
X0339386Y0192559D01*
X0339386Y0191379D02*
X0327968Y0191379D01*
X0327968Y0190199D02*
X0339386Y0190199D01*
X0339386Y0189020D02*
X0327968Y0189020D01*
X0327968Y0187840D02*
X0339386Y0187840D01*
X0339386Y0186661D02*
X0327968Y0186661D01*
X0327968Y0185481D02*
X0339386Y0185481D01*
X0339386Y0184301D02*
X0327968Y0184301D01*
X0327968Y0183122D02*
X0339386Y0183122D01*
X0339386Y0181942D02*
X0327968Y0181942D01*
X0327968Y0180762D02*
X0339386Y0180762D01*
X0339386Y0179583D02*
X0327968Y0179583D01*
X0327968Y0178403D02*
X0339386Y0178403D01*
X0339386Y0177224D02*
X0327968Y0177224D01*
X0327968Y0176044D02*
X0339386Y0176044D01*
X0339386Y0174864D02*
X0327968Y0174864D01*
X0327968Y0173685D02*
X0339386Y0173685D01*
X0339386Y0172505D02*
X0328369Y0172505D01*
X0328965Y0171326D02*
X0339386Y0171326D01*
X0339386Y0170146D02*
X0328965Y0170146D01*
X0328965Y0168966D02*
X0339386Y0168966D01*
X0339386Y0167787D02*
X0327952Y0167787D01*
X0326773Y0166607D02*
X0339386Y0166607D01*
X0339386Y0165427D02*
X0316309Y0165427D01*
X0317489Y0166607D02*
X0323653Y0166607D01*
X0322473Y0167787D02*
X0318668Y0167787D01*
X0319848Y0168966D02*
X0321460Y0168966D01*
X0321460Y0170146D02*
X0321028Y0170146D01*
X0312241Y0176044D02*
X0296079Y0176044D01*
X0296079Y0177224D02*
X0313421Y0177224D01*
X0314583Y0178386D02*
X0308323Y0172126D01*
X0300205Y0172126D01*
X0299208Y0173123D01*
X0296099Y0173123D01*
X0296079Y0173102D01*
X0296079Y0178549D01*
X0295041Y0179587D01*
X0293089Y0179587D01*
X0293013Y0179662D01*
X0291010Y0180492D01*
X0293171Y0180492D01*
X0294209Y0181530D01*
X0294209Y0186738D01*
X0293421Y0187525D01*
X0293421Y0187632D01*
X0293717Y0187928D01*
X0294262Y0187382D01*
X0298486Y0187382D01*
X0298933Y0187829D01*
X0298933Y0184286D01*
X0299971Y0183248D01*
X0302136Y0183248D01*
X0301886Y0182998D01*
X0301886Y0178774D01*
X0302924Y0177736D01*
X0308131Y0177736D01*
X0309169Y0178774D01*
X0309169Y0182998D01*
X0308919Y0183248D01*
X0312068Y0183248D01*
X0313106Y0184286D01*
X0313106Y0188509D01*
X0312561Y0189055D01*
X0313106Y0189601D01*
X0313106Y0192343D01*
X0314583Y0190866D01*
X0314583Y0178386D01*
X0314583Y0178403D02*
X0308798Y0178403D01*
X0309169Y0179583D02*
X0314583Y0179583D01*
X0314583Y0180762D02*
X0309169Y0180762D01*
X0309169Y0181942D02*
X0314583Y0181942D01*
X0314583Y0183122D02*
X0309045Y0183122D01*
X0313106Y0184301D02*
X0314583Y0184301D01*
X0314583Y0185481D02*
X0313106Y0185481D01*
X0313106Y0186661D02*
X0314583Y0186661D01*
X0314583Y0187840D02*
X0313106Y0187840D01*
X0312596Y0189020D02*
X0314583Y0189020D01*
X0314583Y0190199D02*
X0313106Y0190199D01*
X0313106Y0191379D02*
X0314070Y0191379D01*
X0309465Y0191713D02*
X0302575Y0191713D01*
X0301591Y0192697D01*
X0301591Y0194961D01*
X0298500Y0198051D01*
X0293717Y0198051D01*
X0291748Y0198051D02*
X0291748Y0195945D01*
X0292732Y0194961D01*
X0294701Y0194961D01*
X0295685Y0194961D01*
X0296374Y0194272D01*
X0296374Y0193976D01*
X0296374Y0191024D01*
X0296374Y0193976D01*
X0291059Y0191024D02*
X0291059Y0184134D01*
X0294209Y0184301D02*
X0298933Y0184301D01*
X0298933Y0185481D02*
X0294209Y0185481D01*
X0294209Y0186661D02*
X0298933Y0186661D01*
X0302010Y0183122D02*
X0294209Y0183122D01*
X0294209Y0181942D02*
X0301886Y0181942D01*
X0301886Y0180762D02*
X0293441Y0180762D01*
X0295045Y0179583D02*
X0301886Y0179583D01*
X0302257Y0178403D02*
X0296079Y0178403D01*
X0296079Y0174864D02*
X0311061Y0174864D01*
X0309882Y0173685D02*
X0296079Y0173685D01*
X0299826Y0172505D02*
X0308702Y0172505D01*
X0281906Y0174823D02*
X0281571Y0174488D01*
X0272654Y0174488D01*
X0274195Y0177224D02*
X0276197Y0177224D01*
X0276197Y0178403D02*
X0258099Y0178403D01*
X0258099Y0177224D02*
X0265994Y0177224D01*
X0264976Y0176044D02*
X0263806Y0176044D01*
X0267535Y0174488D02*
X0267535Y0168287D01*
X0265862Y0166417D01*
X0266396Y0152303D02*
X0266354Y0152202D01*
X0266354Y0142151D01*
X0266157Y0141954D01*
X0265612Y0142500D01*
X0261388Y0142500D01*
X0260350Y0141462D01*
X0260350Y0139606D01*
X0259418Y0138674D01*
X0256827Y0138674D01*
X0256827Y0147860D01*
X0256131Y0148556D01*
X0256131Y0149271D01*
X0253932Y0151469D01*
X0250824Y0151469D01*
X0248625Y0149271D01*
X0248625Y0148635D01*
X0247850Y0147860D01*
X0247850Y0138124D01*
X0248298Y0137677D01*
X0226649Y0137677D01*
X0224720Y0139606D01*
X0224720Y0141462D01*
X0223683Y0142500D01*
X0219459Y0142500D01*
X0218913Y0141954D01*
X0218717Y0142151D01*
X0218717Y0152202D01*
X0218675Y0152303D01*
X0266396Y0152303D01*
X0266354Y0151272D02*
X0254130Y0151272D01*
X0255309Y0150092D02*
X0266354Y0150092D01*
X0266354Y0148913D02*
X0256131Y0148913D01*
X0256827Y0147733D02*
X0266354Y0147733D01*
X0266354Y0146554D02*
X0256827Y0146554D01*
X0256827Y0145374D02*
X0266354Y0145374D01*
X0266354Y0144194D02*
X0256827Y0144194D01*
X0256827Y0143015D02*
X0266354Y0143015D01*
X0260723Y0141835D02*
X0256827Y0141835D01*
X0256827Y0140656D02*
X0260350Y0140656D01*
X0260220Y0139476D02*
X0256827Y0139476D01*
X0247850Y0139476D02*
X0224851Y0139476D01*
X0224720Y0140656D02*
X0247850Y0140656D01*
X0247850Y0141835D02*
X0224347Y0141835D01*
X0226030Y0138296D02*
X0247850Y0138296D01*
X0247850Y0143015D02*
X0218717Y0143015D01*
X0218717Y0144194D02*
X0247850Y0144194D01*
X0247850Y0145374D02*
X0218717Y0145374D01*
X0218717Y0146554D02*
X0247850Y0146554D01*
X0247850Y0147733D02*
X0218717Y0147733D01*
X0218717Y0148913D02*
X0248625Y0148913D01*
X0249447Y0150092D02*
X0218717Y0150092D01*
X0218717Y0151272D02*
X0250626Y0151272D01*
X0257315Y0179583D02*
X0258754Y0179583D01*
X0257791Y0180762D02*
X0256135Y0180762D01*
X0257791Y0181942D02*
X0250924Y0181942D01*
X0249951Y0180762D02*
X0252558Y0180762D01*
X0245685Y0184291D02*
X0245331Y0183937D01*
X0208244Y0183937D01*
X0207890Y0184291D01*
X0207890Y0207320D01*
X0207470Y0208333D01*
X0203533Y0212270D01*
X0202758Y0213045D01*
X0202083Y0213325D01*
X0202083Y0214297D01*
X0201045Y0215335D01*
X0196821Y0215335D01*
X0196276Y0214789D01*
X0195730Y0215335D01*
X0191506Y0215335D01*
X0190469Y0214297D01*
X0190469Y0212965D01*
X0189956Y0213477D01*
X0186847Y0213477D01*
X0184649Y0211279D01*
X0184649Y0210118D01*
X0177235Y0210118D01*
X0176197Y0209080D01*
X0176197Y0201260D01*
X0167142Y0201260D01*
X0167142Y0210315D01*
X0174962Y0210315D01*
X0176000Y0211353D01*
X0176000Y0214947D01*
X0180719Y0219665D01*
X0183131Y0219665D01*
X0184169Y0220703D01*
X0184169Y0224927D01*
X0183131Y0225965D01*
X0177924Y0225965D01*
X0177083Y0225124D01*
X0176242Y0225965D01*
X0171034Y0225965D01*
X0169996Y0224927D01*
X0169996Y0222514D01*
X0169307Y0221825D01*
X0169307Y0221178D01*
X0168635Y0222801D01*
X0166666Y0224769D01*
X0165060Y0226375D01*
X0162962Y0227244D01*
X0082890Y0227244D01*
X0082890Y0238419D01*
X0082021Y0240517D01*
X0080415Y0242123D01*
X0079267Y0242598D01*
X0216827Y0242598D01*
X0215680Y0242123D01*
X0214074Y0240517D01*
X0213205Y0238419D01*
X0213205Y0220400D01*
X0214074Y0218302D01*
X0215680Y0216696D01*
X0217778Y0215827D01*
X0251630Y0215827D01*
X0246880Y0211076D01*
X0246105Y0210301D01*
X0245685Y0209288D01*
X0245685Y0184291D01*
X0245685Y0184301D02*
X0207890Y0184301D01*
X0207890Y0185481D02*
X0245685Y0185481D01*
X0245685Y0186661D02*
X0207890Y0186661D01*
X0207890Y0187840D02*
X0245685Y0187840D01*
X0245685Y0189020D02*
X0207890Y0189020D01*
X0207890Y0190199D02*
X0245685Y0190199D01*
X0245685Y0191379D02*
X0207890Y0191379D01*
X0207890Y0192559D02*
X0245685Y0192559D01*
X0245685Y0193738D02*
X0207890Y0193738D01*
X0207890Y0194918D02*
X0245685Y0194918D01*
X0245685Y0196097D02*
X0207890Y0196097D01*
X0207890Y0197277D02*
X0245685Y0197277D01*
X0245685Y0198457D02*
X0207890Y0198457D01*
X0207890Y0199636D02*
X0245685Y0199636D01*
X0245685Y0200816D02*
X0207890Y0200816D01*
X0207890Y0201995D02*
X0245685Y0201995D01*
X0245685Y0203175D02*
X0207890Y0203175D01*
X0207890Y0204355D02*
X0245685Y0204355D01*
X0245685Y0205534D02*
X0207890Y0205534D01*
X0207890Y0206714D02*
X0245685Y0206714D01*
X0245685Y0207894D02*
X0207652Y0207894D01*
X0206730Y0209073D02*
X0245685Y0209073D01*
X0246085Y0210253D02*
X0205550Y0210253D01*
X0204371Y0211432D02*
X0247236Y0211432D01*
X0248415Y0212612D02*
X0203191Y0212612D01*
X0202083Y0213792D02*
X0249595Y0213792D01*
X0250775Y0214971D02*
X0201408Y0214971D01*
X0196458Y0214971D02*
X0196093Y0214971D01*
X0191143Y0214971D02*
X0176024Y0214971D01*
X0176000Y0213792D02*
X0190469Y0213792D01*
X0193618Y0211693D02*
X0193618Y0205787D01*
X0179406Y0205787D01*
X0179406Y0203819D02*
X0181512Y0203819D01*
X0183480Y0201850D01*
X0195291Y0201850D01*
X0185744Y0197913D02*
X0183343Y0197913D01*
X0179406Y0201850D01*
X0176197Y0201995D02*
X0167142Y0201995D01*
X0167142Y0203175D02*
X0176197Y0203175D01*
X0176197Y0204355D02*
X0167142Y0204355D01*
X0167142Y0205534D02*
X0176197Y0205534D01*
X0176197Y0206714D02*
X0167142Y0206714D01*
X0167142Y0207894D02*
X0176197Y0207894D01*
X0176197Y0209073D02*
X0167142Y0209073D01*
X0167142Y0210253D02*
X0184649Y0210253D01*
X0184802Y0211432D02*
X0176000Y0211432D01*
X0176000Y0212612D02*
X0185982Y0212612D01*
X0188402Y0209724D02*
X0186433Y0207756D01*
X0179406Y0207756D01*
X0173638Y0213524D02*
X0173638Y0215925D01*
X0180528Y0222815D01*
X0184169Y0223229D02*
X0213205Y0223229D01*
X0213205Y0224408D02*
X0184169Y0224408D01*
X0183508Y0225588D02*
X0213205Y0225588D01*
X0213205Y0226767D02*
X0164113Y0226767D01*
X0165848Y0225588D02*
X0170657Y0225588D01*
X0169996Y0224408D02*
X0167027Y0224408D01*
X0168207Y0223229D02*
X0169996Y0223229D01*
X0169531Y0222049D02*
X0168946Y0222049D01*
X0171669Y0220846D02*
X0173638Y0222815D01*
X0171669Y0220846D02*
X0171669Y0213524D01*
X0169701Y0213524D02*
X0169701Y0214646D01*
X0165764Y0214646D01*
X0164780Y0214646D01*
X0164780Y0212677D02*
X0169701Y0212677D01*
X0169701Y0213524D01*
X0167732Y0213524D01*
X0164780Y0212677D02*
X0164780Y0209724D01*
X0163933Y0209724D01*
X0163933Y0207756D02*
X0163933Y0205787D01*
X0163933Y0203819D01*
X0164780Y0203819D01*
X0156906Y0203819D01*
X0155921Y0204803D01*
X0163795Y0204803D01*
X0162811Y0205787D01*
X0159858Y0205787D01*
X0156906Y0205787D01*
X0156413Y0206280D01*
X0155921Y0206772D01*
X0156413Y0206280D02*
X0156906Y0205787D01*
X0159858Y0205787D01*
X0158874Y0206772D02*
X0163795Y0206772D01*
X0163933Y0205787D02*
X0163933Y0203819D01*
X0164780Y0203819D02*
X0164780Y0207756D01*
X0161827Y0207756D01*
X0158874Y0210709D01*
X0158874Y0209724D01*
X0160843Y0207756D01*
X0159858Y0207756D01*
X0158874Y0208740D01*
X0158874Y0207756D01*
X0158874Y0206772D01*
X0155921Y0207756D02*
X0158874Y0210709D01*
X0156217Y0210709D01*
X0155921Y0207756D02*
X0154937Y0207756D01*
X0158087Y0213792D02*
X0102602Y0213792D01*
X0101422Y0214971D02*
X0158087Y0214971D01*
X0177204Y0216151D02*
X0216995Y0216151D01*
X0215045Y0217330D02*
X0178384Y0217330D01*
X0179563Y0218510D02*
X0213988Y0218510D01*
X0213499Y0219690D02*
X0183156Y0219690D01*
X0184169Y0220869D02*
X0213205Y0220869D01*
X0213205Y0222049D02*
X0184169Y0222049D01*
X0177547Y0225588D02*
X0176619Y0225588D01*
X0213205Y0227947D02*
X0082890Y0227947D01*
X0082890Y0229127D02*
X0213205Y0229127D01*
X0213205Y0230306D02*
X0082890Y0230306D01*
X0082890Y0231486D02*
X0213205Y0231486D01*
X0213205Y0232665D02*
X0082890Y0232665D01*
X0082890Y0233845D02*
X0213205Y0233845D01*
X0213205Y0235025D02*
X0082890Y0235025D01*
X0082890Y0236204D02*
X0213205Y0236204D01*
X0213205Y0237384D02*
X0082890Y0237384D01*
X0082830Y0238564D02*
X0213265Y0238564D01*
X0213753Y0239743D02*
X0082341Y0239743D01*
X0081615Y0240923D02*
X0214479Y0240923D01*
X0215659Y0242102D02*
X0080435Y0242102D01*
X0073927Y0242102D02*
X0030501Y0242102D01*
X0029321Y0240923D02*
X0072747Y0240923D01*
X0072021Y0239743D02*
X0028142Y0239743D01*
X0026962Y0238564D02*
X0071532Y0238564D01*
X0071472Y0237384D02*
X0025782Y0237384D01*
X0024622Y0227947D02*
X0034743Y0227947D01*
X0031895Y0226767D02*
X0024622Y0226767D01*
X0024622Y0225588D02*
X0030469Y0225588D01*
X0029290Y0224408D02*
X0024622Y0224408D01*
X0024622Y0223229D02*
X0028524Y0223229D01*
X0028035Y0222049D02*
X0024622Y0222049D01*
X0024622Y0220869D02*
X0027547Y0220869D01*
X0027378Y0219690D02*
X0024622Y0219690D01*
X0024622Y0218510D02*
X0027378Y0218510D01*
X0027378Y0217330D02*
X0024622Y0217330D01*
X0024622Y0216151D02*
X0027607Y0216151D01*
X0028095Y0214971D02*
X0024622Y0214971D01*
X0024622Y0213792D02*
X0028584Y0213792D01*
X0029435Y0212612D02*
X0024622Y0212612D01*
X0024622Y0211432D02*
X0030614Y0211432D01*
X0032246Y0210253D02*
X0024622Y0210253D01*
X0051394Y0206714D02*
X0066097Y0206714D01*
X0064918Y0205534D02*
X0051394Y0205534D01*
X0051394Y0204355D02*
X0064165Y0204355D01*
X0063354Y0203175D02*
X0051394Y0203175D01*
X0051394Y0201995D02*
X0063008Y0201995D01*
X0063008Y0200816D02*
X0051394Y0200816D01*
X0051394Y0199636D02*
X0063008Y0199636D01*
X0063008Y0198457D02*
X0051394Y0198457D01*
X0051394Y0197277D02*
X0063008Y0197277D01*
X0063008Y0196097D02*
X0052383Y0196097D01*
X0053488Y0194918D02*
X0063008Y0194918D01*
X0063008Y0193738D02*
X0054185Y0193738D01*
X0055365Y0192559D02*
X0063008Y0192559D01*
X0063008Y0191379D02*
X0059481Y0191379D01*
X0059858Y0190199D02*
X0063008Y0190199D01*
X0063008Y0189020D02*
X0059858Y0189020D01*
X0059858Y0187840D02*
X0063008Y0187840D01*
X0063456Y0186661D02*
X0059858Y0186661D01*
X0059858Y0185481D02*
X0063393Y0185481D01*
X0063008Y0184301D02*
X0059019Y0184301D01*
X0059465Y0184134D02*
X0056512Y0184134D01*
X0056512Y0186102D02*
X0052280Y0186102D01*
X0048638Y0186102D01*
X0048638Y0185807D01*
X0047358Y0185807D01*
X0045685Y0184134D01*
X0041748Y0184134D01*
X0041748Y0183445D01*
X0038106Y0183122D02*
X0032693Y0183122D01*
X0032693Y0184301D02*
X0038106Y0184301D01*
X0038106Y0185481D02*
X0032693Y0185481D01*
X0032693Y0181942D02*
X0038106Y0181942D01*
X0038677Y0180762D02*
X0032693Y0180762D01*
X0032693Y0179583D02*
X0050213Y0179583D01*
X0050213Y0180762D02*
X0044819Y0180762D01*
X0046965Y0180787D02*
X0046965Y0174291D01*
X0049130Y0174864D02*
X0032693Y0174864D01*
X0032693Y0173685D02*
X0049130Y0173685D01*
X0049130Y0172505D02*
X0032693Y0172505D01*
X0032693Y0171326D02*
X0049492Y0171326D01*
X0050213Y0170146D02*
X0032693Y0170146D01*
X0032693Y0168966D02*
X0043815Y0168966D01*
X0043815Y0167787D02*
X0032693Y0167787D01*
X0032693Y0166607D02*
X0043815Y0166607D01*
X0043815Y0165427D02*
X0032693Y0165427D01*
X0032693Y0164248D02*
X0043815Y0164248D01*
X0044560Y0163068D02*
X0032693Y0163068D01*
X0032693Y0161889D02*
X0044602Y0161889D01*
X0044602Y0160709D02*
X0032693Y0160709D01*
X0032693Y0159529D02*
X0045295Y0159529D01*
X0046475Y0158350D02*
X0032693Y0158350D01*
X0032693Y0157170D02*
X0047655Y0157170D01*
X0048836Y0155991D02*
X0032693Y0155991D01*
X0032693Y0154811D02*
X0050016Y0154811D01*
X0049622Y0158543D02*
X0051591Y0158543D01*
X0049622Y0158543D02*
X0046965Y0161201D01*
X0046965Y0166417D01*
X0049369Y0163068D02*
X0049875Y0163068D01*
X0049629Y0161889D02*
X0049617Y0161889D01*
X0052280Y0166417D02*
X0052575Y0166713D01*
X0052575Y0174587D01*
X0052280Y0174291D01*
X0052575Y0174587D02*
X0052575Y0180197D01*
X0053559Y0181181D01*
X0054543Y0182165D01*
X0056512Y0182165D01*
X0052159Y0183122D02*
X0051706Y0183122D01*
X0050979Y0181942D02*
X0046834Y0181942D01*
X0050213Y0178403D02*
X0032693Y0178403D01*
X0032693Y0177224D02*
X0049458Y0177224D01*
X0049130Y0176044D02*
X0032693Y0176044D01*
X0035843Y0188760D02*
X0037122Y0190039D01*
X0037811Y0190039D01*
X0041748Y0190039D01*
X0041748Y0188760D01*
X0041748Y0190039D02*
X0050606Y0190039D01*
X0052575Y0188071D01*
X0056512Y0188071D01*
X0056512Y0190039D02*
X0054543Y0190039D01*
X0051098Y0193484D01*
X0065370Y0193738D02*
X0072022Y0193738D01*
X0072260Y0193976D02*
X0069307Y0191024D01*
X0069307Y0192008D01*
X0069646Y0191379D02*
X0069662Y0191379D01*
X0069654Y0191371D02*
X0068663Y0192362D01*
X0066014Y0192362D01*
X0065370Y0191718D01*
X0065370Y0201850D01*
X0073244Y0201850D01*
X0073244Y0194961D01*
X0069654Y0191371D01*
X0069307Y0191024D02*
X0068323Y0191024D01*
X0068323Y0192008D01*
X0067339Y0192008D01*
X0067339Y0190039D01*
X0068323Y0190039D01*
X0069307Y0191024D01*
X0070842Y0192559D02*
X0065370Y0192559D01*
X0066354Y0192992D02*
X0071276Y0197913D01*
X0073244Y0198457D02*
X0065370Y0198457D01*
X0065370Y0199636D02*
X0073244Y0199636D01*
X0073244Y0200816D02*
X0065370Y0200816D01*
X0065370Y0197277D02*
X0073244Y0197277D01*
X0073244Y0196097D02*
X0065370Y0196097D01*
X0065370Y0194918D02*
X0073201Y0194918D01*
X0072260Y0193976D02*
X0065370Y0193976D01*
X0065370Y0190039D01*
X0066354Y0190039D01*
X0066354Y0192992D01*
X0066354Y0188071D02*
X0069307Y0188071D01*
X0079937Y0188071D01*
X0085055Y0193189D01*
X0069307Y0181181D02*
X0068323Y0182165D01*
X0066354Y0182165D01*
X0066354Y0180197D01*
X0067339Y0180197D01*
X0067339Y0181181D01*
X0068323Y0181181D01*
X0068323Y0180197D01*
X0069307Y0180197D01*
X0069307Y0181181D01*
X0073244Y0177244D01*
X0069654Y0180834D01*
X0068663Y0179843D01*
X0066014Y0179843D01*
X0065370Y0180487D01*
X0065370Y0162480D01*
X0073244Y0162480D01*
X0073244Y0177244D01*
X0073244Y0174291D01*
X0071276Y0174291D01*
X0073244Y0174291D02*
X0073244Y0166417D01*
X0071276Y0166417D01*
X0073244Y0166417D02*
X0073244Y0162480D01*
X0065370Y0162480D01*
X0065370Y0170354D01*
X0069307Y0170354D01*
X0071276Y0168386D01*
X0071276Y0158543D01*
X0073244Y0163068D02*
X0065370Y0163068D01*
X0065370Y0164248D02*
X0073244Y0164248D01*
X0073244Y0165427D02*
X0065370Y0165427D01*
X0065370Y0166607D02*
X0073244Y0166607D01*
X0073244Y0167787D02*
X0065370Y0167787D01*
X0065370Y0168966D02*
X0073244Y0168966D01*
X0073244Y0170146D02*
X0065370Y0170146D01*
X0065370Y0170354D02*
X0065370Y0182165D01*
X0065370Y0179583D02*
X0070905Y0179583D01*
X0069726Y0180762D02*
X0069583Y0180762D01*
X0072085Y0178403D02*
X0065370Y0178403D01*
X0065370Y0177224D02*
X0073244Y0177224D01*
X0073244Y0176044D02*
X0065370Y0176044D01*
X0065370Y0174864D02*
X0073244Y0174864D01*
X0073244Y0173685D02*
X0065370Y0173685D01*
X0065370Y0172505D02*
X0073244Y0172505D01*
X0073244Y0171326D02*
X0065370Y0171326D01*
X0120264Y0178413D02*
X0122043Y0178413D01*
X0124241Y0180611D01*
X0124241Y0183720D01*
X0123244Y0184717D01*
X0123244Y0202047D01*
X0140469Y0202047D01*
X0140469Y0198459D01*
X0140916Y0198012D01*
X0137657Y0198012D01*
X0137181Y0197815D01*
X0135601Y0197815D01*
X0134563Y0196777D01*
X0134563Y0192554D01*
X0135109Y0192008D01*
X0134563Y0191462D01*
X0134563Y0187239D01*
X0135601Y0186201D01*
X0137457Y0186201D01*
X0139681Y0183977D01*
X0139681Y0179561D01*
X0140719Y0178524D01*
X0144942Y0178524D01*
X0145980Y0179561D01*
X0145980Y0179606D01*
X0147510Y0179606D01*
X0147904Y0179213D01*
X0150946Y0179213D01*
X0151984Y0180250D01*
X0151984Y0183687D01*
X0150946Y0184724D01*
X0147904Y0184724D01*
X0147510Y0184331D01*
X0145980Y0184331D01*
X0145980Y0184769D01*
X0145587Y0185163D01*
X0145587Y0185273D01*
X0145167Y0186285D01*
X0144392Y0187061D01*
X0141846Y0189606D01*
X0141846Y0191462D01*
X0141301Y0192008D01*
X0141453Y0192160D01*
X0141506Y0192106D01*
X0146714Y0192106D01*
X0147752Y0193144D01*
X0147752Y0195590D01*
X0148129Y0194680D01*
X0149735Y0193074D01*
X0151833Y0192205D01*
X0158087Y0192205D01*
X0158087Y0177185D01*
X0156124Y0177185D01*
X0156065Y0177244D01*
X0153022Y0177244D01*
X0151984Y0176206D01*
X0150946Y0177244D01*
X0147904Y0177244D01*
X0146866Y0176206D01*
X0146866Y0175768D01*
X0145139Y0175768D01*
X0144746Y0176161D01*
X0139538Y0176161D01*
X0138500Y0175124D01*
X0138500Y0170900D01*
X0138947Y0170453D01*
X0128224Y0170453D01*
X0120264Y0178413D01*
X0120274Y0178403D02*
X0158087Y0178403D01*
X0158087Y0177224D02*
X0156085Y0177224D01*
X0154878Y0174823D02*
X0163795Y0174823D01*
X0158595Y0172461D02*
X0158956Y0171589D01*
X0160562Y0169983D01*
X0162660Y0169114D01*
X0172805Y0169114D01*
X0174903Y0169983D01*
X0174979Y0170059D01*
X0176931Y0170059D01*
X0177968Y0171097D01*
X0177968Y0178549D01*
X0176931Y0179587D01*
X0174979Y0179587D01*
X0174903Y0179662D01*
X0172900Y0180492D01*
X0175061Y0180492D01*
X0176098Y0181530D01*
X0176098Y0186738D01*
X0175311Y0187525D01*
X0175311Y0187632D01*
X0175606Y0187928D01*
X0176152Y0187382D01*
X0180376Y0187382D01*
X0180823Y0187829D01*
X0180823Y0184286D01*
X0181861Y0183248D01*
X0184026Y0183248D01*
X0183776Y0182998D01*
X0183776Y0178774D01*
X0184813Y0177736D01*
X0190021Y0177736D01*
X0191059Y0178774D01*
X0191059Y0182998D01*
X0190809Y0183248D01*
X0193520Y0183248D01*
X0193520Y0173123D01*
X0192753Y0173123D01*
X0190554Y0170925D01*
X0190554Y0169186D01*
X0187831Y0169186D01*
X0185850Y0167205D01*
X0164378Y0167205D01*
X0162397Y0169186D01*
X0159288Y0169186D01*
X0157791Y0167689D01*
X0157791Y0169021D01*
X0156754Y0170059D01*
X0152530Y0170059D01*
X0151984Y0169513D01*
X0151439Y0170059D01*
X0150008Y0170059D01*
X0149426Y0170641D01*
X0149510Y0170675D01*
X0150285Y0171451D01*
X0150402Y0171732D01*
X0150946Y0171732D01*
X0151984Y0172770D01*
X0151984Y0176206D01*
X0151984Y0172770D01*
X0153022Y0171732D01*
X0156065Y0171732D01*
X0156793Y0172461D01*
X0158595Y0172461D01*
X0159219Y0171326D02*
X0150160Y0171326D01*
X0149921Y0170146D02*
X0160399Y0170146D01*
X0159069Y0168966D02*
X0157791Y0168966D01*
X0157791Y0167787D02*
X0157889Y0167787D01*
X0162616Y0168966D02*
X0187612Y0168966D01*
X0186432Y0167787D02*
X0163796Y0167787D01*
X0154878Y0174823D02*
X0154543Y0174488D01*
X0151984Y0174864D02*
X0151984Y0174864D01*
X0151984Y0173685D02*
X0151984Y0173685D01*
X0151719Y0172505D02*
X0152249Y0172505D01*
X0149425Y0174488D02*
X0147949Y0173012D01*
X0146866Y0176044D02*
X0144863Y0176044D01*
X0147883Y0177224D02*
X0121453Y0177224D01*
X0122633Y0176044D02*
X0139420Y0176044D01*
X0138500Y0174864D02*
X0123813Y0174864D01*
X0124992Y0173685D02*
X0138500Y0173685D01*
X0138500Y0172505D02*
X0126172Y0172505D01*
X0127351Y0171326D02*
X0138500Y0171326D01*
X0151984Y0176044D02*
X0151984Y0176044D01*
X0150967Y0177224D02*
X0153002Y0177224D01*
X0151317Y0179583D02*
X0158087Y0179583D01*
X0158087Y0180762D02*
X0151984Y0180762D01*
X0151984Y0181942D02*
X0158087Y0181942D01*
X0158087Y0183122D02*
X0151984Y0183122D01*
X0151984Y0181969D02*
X0151984Y0188071D01*
X0151370Y0184301D02*
X0158087Y0184301D01*
X0158087Y0185481D02*
X0145500Y0185481D01*
X0144792Y0186661D02*
X0158087Y0186661D01*
X0158087Y0187840D02*
X0143612Y0187840D01*
X0142433Y0189020D02*
X0158087Y0189020D01*
X0158087Y0190199D02*
X0141846Y0190199D01*
X0141846Y0191379D02*
X0158087Y0191379D01*
X0150979Y0192559D02*
X0147166Y0192559D01*
X0147752Y0193738D02*
X0149070Y0193738D01*
X0148030Y0194918D02*
X0147752Y0194918D01*
X0140471Y0198457D02*
X0123244Y0198457D01*
X0123244Y0199636D02*
X0140469Y0199636D01*
X0140469Y0200816D02*
X0123244Y0200816D01*
X0123244Y0201995D02*
X0140469Y0201995D01*
X0135063Y0197277D02*
X0123244Y0197277D01*
X0123244Y0196097D02*
X0134563Y0196097D01*
X0134563Y0194918D02*
X0123244Y0194918D01*
X0123244Y0193738D02*
X0134563Y0193738D01*
X0134563Y0192559D02*
X0123244Y0192559D01*
X0123244Y0191379D02*
X0134563Y0191379D01*
X0134563Y0190199D02*
X0123244Y0190199D01*
X0123244Y0189020D02*
X0134563Y0189020D01*
X0134563Y0187840D02*
X0123244Y0187840D01*
X0123244Y0186661D02*
X0135141Y0186661D01*
X0138177Y0185481D02*
X0123244Y0185481D01*
X0123659Y0184301D02*
X0139356Y0184301D01*
X0139681Y0183122D02*
X0124241Y0183122D01*
X0124241Y0181942D02*
X0139681Y0181942D01*
X0139681Y0180762D02*
X0124241Y0180762D01*
X0123213Y0179583D02*
X0139681Y0179583D01*
X0142831Y0182165D02*
X0143028Y0181969D01*
X0149425Y0181969D01*
X0151984Y0181969D02*
X0154543Y0181969D01*
X0147534Y0179583D02*
X0145980Y0179583D01*
X0169701Y0193976D02*
X0169701Y0198051D01*
X0171669Y0198051D02*
X0173638Y0198051D01*
X0173638Y0195945D01*
X0174622Y0194961D01*
X0177575Y0194961D01*
X0178264Y0194272D01*
X0178264Y0191024D01*
X0178559Y0193976D02*
X0177575Y0194961D01*
X0175744Y0197913D02*
X0175606Y0198051D01*
X0175744Y0197913D02*
X0180528Y0197913D01*
X0183480Y0194961D01*
X0183480Y0192992D01*
X0184465Y0192008D01*
X0184465Y0191713D01*
X0191354Y0191713D01*
X0180823Y0186661D02*
X0176098Y0186661D01*
X0176098Y0185481D02*
X0180823Y0185481D01*
X0180823Y0184301D02*
X0176098Y0184301D01*
X0176098Y0183122D02*
X0183900Y0183122D01*
X0183776Y0181942D02*
X0176098Y0181942D01*
X0175331Y0180762D02*
X0183776Y0180762D01*
X0183776Y0179583D02*
X0176934Y0179583D01*
X0177968Y0178403D02*
X0184146Y0178403D01*
X0177968Y0177224D02*
X0193520Y0177224D01*
X0193520Y0178403D02*
X0190688Y0178403D01*
X0191059Y0179583D02*
X0193520Y0179583D01*
X0193520Y0180762D02*
X0191059Y0180762D01*
X0191059Y0181942D02*
X0193520Y0181942D01*
X0193520Y0183122D02*
X0190935Y0183122D01*
X0193520Y0176044D02*
X0177968Y0176044D01*
X0177968Y0174864D02*
X0193520Y0174864D01*
X0193520Y0173685D02*
X0177968Y0173685D01*
X0177968Y0172505D02*
X0192135Y0172505D01*
X0190955Y0171326D02*
X0177968Y0171326D01*
X0177018Y0170146D02*
X0190554Y0170146D01*
X0172949Y0184134D02*
X0172949Y0191024D01*
X0172654Y0191024D01*
X0169701Y0193976D01*
X0166748Y0195945D02*
X0163795Y0195945D01*
X0162811Y0196929D02*
X0160843Y0196929D01*
X0160843Y0200866D01*
X0163933Y0200866D01*
X0163933Y0201850D01*
X0164780Y0201850D01*
X0164780Y0198898D01*
X0167732Y0198898D01*
X0167732Y0198051D01*
X0166748Y0197913D02*
X0166748Y0195945D01*
X0175519Y0187840D02*
X0175694Y0187840D01*
X0117732Y0199636D02*
X0116757Y0199636D01*
X0117732Y0200816D02*
X0115578Y0200816D01*
X0114398Y0201995D02*
X0117732Y0201995D01*
X0116996Y0203175D02*
X0113218Y0203175D01*
X0112039Y0204355D02*
X0115816Y0204355D01*
X0115229Y0205534D02*
X0110859Y0205534D01*
X0109680Y0206714D02*
X0114780Y0206714D01*
X0114780Y0207894D02*
X0108500Y0207894D01*
X0107320Y0209073D02*
X0114855Y0209073D01*
X0115343Y0210253D02*
X0106141Y0210253D01*
X0104961Y0211432D02*
X0116091Y0211432D01*
X0117294Y0212612D02*
X0103781Y0212612D01*
X0068457Y0209073D02*
X0052868Y0209073D01*
X0051689Y0207894D02*
X0067277Y0207894D01*
X0120304Y0151272D02*
X0177772Y0151272D01*
X0177772Y0150092D02*
X0120304Y0150092D01*
X0120102Y0148913D02*
X0177772Y0148913D01*
X0177772Y0147733D02*
X0119307Y0147733D01*
X0119307Y0146554D02*
X0177772Y0146554D01*
X0177772Y0145374D02*
X0119307Y0145374D01*
X0119307Y0144194D02*
X0177772Y0144194D01*
X0177772Y0143015D02*
X0119307Y0143015D01*
X0119307Y0141835D02*
X0177772Y0141835D01*
X0177772Y0140656D02*
X0119307Y0140656D01*
X0119307Y0139476D02*
X0177772Y0139476D01*
X0177772Y0138296D02*
X0119307Y0138296D01*
X0119307Y0137117D02*
X0177772Y0137117D01*
X0177772Y0135937D02*
X0119307Y0135937D01*
X0119307Y0134758D02*
X0177772Y0134758D01*
X0177255Y0133578D02*
X0119307Y0133578D01*
X0119307Y0132398D02*
X0176076Y0132398D01*
X0174896Y0131219D02*
X0119307Y0131219D01*
X0119307Y0130039D02*
X0145173Y0130039D01*
X0144423Y0128859D02*
X0119307Y0128859D01*
X0119307Y0127680D02*
X0144307Y0127680D01*
X0144307Y0126500D02*
X0119307Y0126500D01*
X0119307Y0125321D02*
X0144307Y0125321D01*
X0144307Y0124141D02*
X0119307Y0124141D01*
X0119307Y0122961D02*
X0144307Y0122961D01*
X0144307Y0121782D02*
X0119307Y0121782D01*
X0119307Y0120602D02*
X0144307Y0120602D01*
X0144307Y0119423D02*
X0119307Y0119423D01*
X0119307Y0118243D02*
X0144307Y0118243D01*
X0144307Y0117063D02*
X0119307Y0117063D01*
X0119307Y0115884D02*
X0144307Y0115884D01*
X0144307Y0114704D02*
X0119307Y0114704D01*
X0119307Y0113524D02*
X0144307Y0113524D01*
X0144307Y0112345D02*
X0119307Y0112345D01*
X0119307Y0111165D02*
X0144307Y0111165D01*
X0144307Y0109986D02*
X0119307Y0109986D01*
X0120304Y0108806D02*
X0144307Y0108806D01*
X0144307Y0107626D02*
X0120304Y0107626D01*
X0120304Y0106447D02*
X0144307Y0106447D01*
X0144307Y0105267D02*
X0119763Y0105267D01*
X0118584Y0104088D02*
X0144307Y0104088D01*
X0144307Y0102908D02*
X0105575Y0102908D01*
X0106755Y0104088D02*
X0114519Y0104088D01*
X0113339Y0105267D02*
X0107934Y0105267D01*
X0109114Y0106447D02*
X0112798Y0106447D01*
X0112798Y0107626D02*
X0110294Y0107626D01*
X0111473Y0108806D02*
X0112798Y0108806D01*
X0112181Y0109986D02*
X0113795Y0109986D01*
X0113795Y0111165D02*
X0112417Y0111165D01*
X0112417Y0112345D02*
X0113795Y0112345D01*
X0113795Y0113524D02*
X0112417Y0113524D01*
X0112417Y0114704D02*
X0113795Y0114704D01*
X0113795Y0115884D02*
X0112417Y0115884D01*
X0112417Y0117063D02*
X0113795Y0117063D01*
X0113795Y0118243D02*
X0112417Y0118243D01*
X0112417Y0119423D02*
X0113795Y0119423D01*
X0113795Y0120602D02*
X0112417Y0120602D01*
X0112417Y0121782D02*
X0113795Y0121782D01*
X0113795Y0122961D02*
X0112417Y0122961D01*
X0112417Y0124141D02*
X0113795Y0124141D01*
X0113795Y0125321D02*
X0112417Y0125321D01*
X0112417Y0126500D02*
X0113795Y0126500D01*
X0113795Y0127680D02*
X0112417Y0127680D01*
X0112417Y0128859D02*
X0113795Y0128859D01*
X0113795Y0130039D02*
X0112417Y0130039D01*
X0112417Y0131219D02*
X0113795Y0131219D01*
X0113795Y0132398D02*
X0112417Y0132398D01*
X0112417Y0133578D02*
X0113795Y0133578D01*
X0113795Y0134758D02*
X0112417Y0134758D01*
X0112417Y0135937D02*
X0113795Y0135937D01*
X0113795Y0137117D02*
X0112417Y0137117D01*
X0112595Y0138296D02*
X0113795Y0138296D01*
X0113795Y0139476D02*
X0113652Y0139476D01*
X0074117Y0135937D02*
X0072372Y0135937D01*
X0072949Y0134758D02*
X0073539Y0134758D01*
X0073539Y0133578D02*
X0072949Y0133578D01*
X0072949Y0132398D02*
X0073539Y0132398D01*
X0073539Y0131219D02*
X0072949Y0131219D01*
X0072063Y0130039D02*
X0074425Y0130039D01*
X0074425Y0128859D02*
X0072063Y0128859D01*
X0056445Y0076956D02*
X0024622Y0076956D01*
X0024622Y0075777D02*
X0057625Y0075777D01*
X0059153Y0053364D02*
X0059776Y0053364D01*
X0145630Y0032131D02*
X0172137Y0032131D01*
X0173316Y0030952D02*
X0146810Y0030952D01*
X0147666Y0029772D02*
X0174496Y0029772D01*
X0175676Y0028592D02*
X0147666Y0028592D01*
X0147666Y0027413D02*
X0249240Y0027413D01*
X0250419Y0028592D02*
X0228982Y0028592D01*
X0237332Y0029772D02*
X0237699Y0029772D01*
X0243435Y0029772D02*
X0251599Y0029772D01*
X0252778Y0030952D02*
X0243913Y0030952D01*
X0243913Y0032131D02*
X0253958Y0032131D01*
X0255138Y0033311D02*
X0243913Y0033311D01*
X0243913Y0034490D02*
X0256317Y0034490D01*
X0257497Y0035670D02*
X0243111Y0035670D01*
X0238023Y0035670D02*
X0237009Y0035670D01*
X0236536Y0036850D02*
X0258677Y0036850D01*
X0259856Y0038029D02*
X0254019Y0038029D01*
X0254950Y0039209D02*
X0261036Y0039209D01*
X0262215Y0040388D02*
X0254950Y0040388D01*
X0254950Y0041568D02*
X0262417Y0041568D01*
X0262417Y0042748D02*
X0254108Y0042748D01*
X0252928Y0043927D02*
X0262417Y0043927D01*
X0262417Y0045107D02*
X0253222Y0045107D01*
X0254402Y0046286D02*
X0262417Y0046286D01*
X0262417Y0047466D02*
X0254950Y0047466D01*
X0254950Y0048646D02*
X0262417Y0048646D01*
X0262417Y0049825D02*
X0254904Y0049825D01*
X0253725Y0051005D02*
X0262417Y0051005D01*
X0262417Y0052185D02*
X0229071Y0052185D01*
X0237303Y0053364D02*
X0237729Y0053364D01*
X0243405Y0053364D02*
X0243634Y0053364D01*
X0243898Y0059262D02*
X0243141Y0059262D01*
X0237993Y0059262D02*
X0237039Y0059262D01*
X0226379Y0059262D02*
X0207902Y0059262D01*
X0207902Y0060442D02*
X0211314Y0060442D01*
X0210239Y0061621D02*
X0207902Y0061621D01*
X0206905Y0062801D02*
X0210239Y0062801D01*
X0209185Y0063981D02*
X0206905Y0063981D01*
X0206905Y0065160D02*
X0208005Y0065160D01*
X0213441Y0067520D02*
X0215161Y0067520D01*
X0215161Y0066824D02*
X0214137Y0066824D01*
X0211827Y0069134D01*
X0211827Y0071740D01*
X0212438Y0071129D01*
X0215547Y0071129D01*
X0217745Y0073327D01*
X0217745Y0075070D01*
X0217929Y0075515D01*
X0217929Y0078872D01*
X0218913Y0079857D01*
X0218913Y0086836D01*
X0218913Y0079857D01*
X0219951Y0078819D01*
X0225356Y0078819D01*
X0226143Y0079606D01*
X0227138Y0079606D01*
X0228058Y0079987D01*
X0228342Y0079987D01*
X0230540Y0082186D01*
X0230540Y0085295D01*
X0228342Y0087493D01*
X0225737Y0087493D01*
X0225356Y0087874D01*
X0222009Y0087874D01*
X0222654Y0088518D01*
X0222654Y0090459D01*
X0224575Y0092380D01*
X0225627Y0093433D01*
X0226197Y0094807D01*
X0226197Y0111496D01*
X0247850Y0111496D01*
X0247850Y0102298D01*
X0248625Y0101523D01*
X0248625Y0100887D01*
X0249583Y0099929D01*
X0249583Y0091794D01*
X0250002Y0090781D01*
X0250705Y0090079D01*
X0250705Y0088223D01*
X0251250Y0087677D01*
X0251066Y0087493D01*
X0249359Y0087493D01*
X0248978Y0087874D01*
X0245631Y0087874D01*
X0246276Y0088518D01*
X0246276Y0105795D01*
X0246288Y0105808D01*
X0246288Y0108917D01*
X0244090Y0111115D01*
X0240981Y0111115D01*
X0238783Y0108917D01*
X0238783Y0105808D01*
X0238795Y0105795D01*
X0238795Y0088518D01*
X0239439Y0087874D01*
X0236093Y0087874D01*
X0235055Y0086836D01*
X0235055Y0083504D01*
X0226236Y0074685D01*
X0225402Y0074685D01*
X0224405Y0075682D01*
X0221296Y0075682D01*
X0219098Y0073484D01*
X0219098Y0071745D01*
X0217359Y0071745D01*
X0215161Y0069547D01*
X0215161Y0066824D01*
X0215161Y0068699D02*
X0212261Y0068699D01*
X0211827Y0069879D02*
X0215493Y0069879D01*
X0216672Y0071058D02*
X0211827Y0071058D01*
X0216655Y0072238D02*
X0219098Y0072238D01*
X0219098Y0073418D02*
X0217745Y0073418D01*
X0217745Y0074597D02*
X0220211Y0074597D01*
X0217929Y0075777D02*
X0227328Y0075777D01*
X0228508Y0076956D02*
X0217929Y0076956D01*
X0217929Y0078136D02*
X0229687Y0078136D01*
X0230867Y0079316D02*
X0225853Y0079316D01*
X0228850Y0080495D02*
X0232047Y0080495D01*
X0233226Y0081675D02*
X0230029Y0081675D01*
X0230540Y0082855D02*
X0234406Y0082855D01*
X0235055Y0084034D02*
X0230540Y0084034D01*
X0230540Y0085214D02*
X0235055Y0085214D01*
X0235055Y0086393D02*
X0229441Y0086393D01*
X0225657Y0087573D02*
X0235792Y0087573D01*
X0238795Y0088753D02*
X0222654Y0088753D01*
X0222654Y0089932D02*
X0238795Y0089932D01*
X0238795Y0091112D02*
X0223307Y0091112D01*
X0224486Y0092291D02*
X0238795Y0092291D01*
X0238795Y0093471D02*
X0225643Y0093471D01*
X0226132Y0094651D02*
X0238795Y0094651D01*
X0238795Y0095830D02*
X0226197Y0095830D01*
X0226197Y0097010D02*
X0238795Y0097010D01*
X0238795Y0098189D02*
X0226197Y0098189D01*
X0226197Y0099369D02*
X0238795Y0099369D01*
X0238795Y0100549D02*
X0226197Y0100549D01*
X0226197Y0101728D02*
X0238795Y0101728D01*
X0238795Y0102908D02*
X0226197Y0102908D01*
X0226197Y0104088D02*
X0238795Y0104088D01*
X0238795Y0105267D02*
X0226197Y0105267D01*
X0226197Y0106447D02*
X0238783Y0106447D01*
X0238783Y0107626D02*
X0226197Y0107626D01*
X0226197Y0108806D02*
X0238783Y0108806D01*
X0239852Y0109986D02*
X0226197Y0109986D01*
X0226197Y0111165D02*
X0247850Y0111165D01*
X0247850Y0109986D02*
X0245219Y0109986D01*
X0246288Y0108806D02*
X0247850Y0108806D01*
X0247850Y0107626D02*
X0246288Y0107626D01*
X0246288Y0106447D02*
X0247850Y0106447D01*
X0247850Y0105267D02*
X0246276Y0105267D01*
X0246276Y0104088D02*
X0247850Y0104088D01*
X0247850Y0102908D02*
X0246276Y0102908D01*
X0246276Y0101728D02*
X0248420Y0101728D01*
X0248963Y0100549D02*
X0246276Y0100549D01*
X0246276Y0099369D02*
X0249583Y0099369D01*
X0249583Y0098189D02*
X0246276Y0098189D01*
X0246276Y0097010D02*
X0249583Y0097010D01*
X0249583Y0095830D02*
X0246276Y0095830D01*
X0246276Y0094651D02*
X0249583Y0094651D01*
X0249583Y0093471D02*
X0246276Y0093471D01*
X0246276Y0092291D02*
X0249583Y0092291D01*
X0249865Y0091112D02*
X0246276Y0091112D01*
X0246276Y0089932D02*
X0250705Y0089932D01*
X0250705Y0088753D02*
X0246276Y0088753D01*
X0249279Y0087573D02*
X0251146Y0087573D01*
X0219558Y0087480D02*
X0218913Y0086836D01*
X0218269Y0087480D01*
X0219558Y0087480D01*
X0218913Y0086393D02*
X0218913Y0086393D01*
X0218913Y0085214D02*
X0218913Y0085214D01*
X0218913Y0084034D02*
X0218913Y0084034D01*
X0218913Y0082855D02*
X0218913Y0082855D01*
X0218913Y0081675D02*
X0218913Y0081675D01*
X0218913Y0080495D02*
X0218913Y0080495D01*
X0218372Y0079316D02*
X0219454Y0079316D01*
X0234345Y0068699D02*
X0262417Y0068699D01*
X0262417Y0067520D02*
X0233165Y0067520D01*
X0231985Y0066340D02*
X0262417Y0066340D01*
X0262417Y0065160D02*
X0221389Y0065160D01*
X0217745Y0063981D02*
X0262417Y0063981D01*
X0262417Y0062801D02*
X0217745Y0062801D01*
X0217745Y0061621D02*
X0262417Y0061621D01*
X0262417Y0060442D02*
X0216670Y0060442D01*
X0235524Y0069879D02*
X0262417Y0069879D01*
X0262417Y0059262D02*
X0253341Y0059262D01*
X0254521Y0058083D02*
X0262417Y0058083D01*
X0262417Y0056903D02*
X0254950Y0056903D01*
X0254950Y0055723D02*
X0262417Y0055723D01*
X0262417Y0054544D02*
X0254785Y0054544D01*
X0253606Y0053364D02*
X0262417Y0053364D01*
X0249446Y0059262D02*
X0249046Y0059262D01*
X0225902Y0047466D02*
X0215567Y0047466D01*
X0216157Y0046286D02*
X0225902Y0046286D01*
X0226498Y0045107D02*
X0216157Y0045107D01*
X0216157Y0043927D02*
X0216556Y0043927D01*
X0224027Y0043927D02*
X0226792Y0043927D01*
X0231311Y0043927D02*
X0232107Y0043927D01*
X0231813Y0045107D02*
X0231604Y0045107D01*
X0236625Y0043927D02*
X0249859Y0043927D01*
X0249565Y0045107D02*
X0248927Y0045107D01*
X0244018Y0045107D02*
X0243022Y0045107D01*
X0238112Y0045107D02*
X0236919Y0045107D01*
X0232196Y0036850D02*
X0231221Y0036850D01*
X0231694Y0035670D02*
X0231724Y0035670D01*
X0226881Y0036850D02*
X0223938Y0036850D01*
X0226409Y0035670D02*
X0216157Y0035670D01*
X0216157Y0036850D02*
X0216645Y0036850D01*
X0216157Y0034490D02*
X0225902Y0034490D01*
X0245701Y0023874D02*
X0148816Y0023874D01*
X0147636Y0025053D02*
X0246880Y0025053D01*
X0248060Y0026233D02*
X0146866Y0026233D01*
X0339347Y0150092D02*
X0339386Y0150092D01*
X0339386Y0151272D02*
X0338858Y0151272D01*
X0338649Y0152452D02*
X0339386Y0152452D01*
X0339386Y0153631D02*
X0338992Y0153631D01*
X0339079Y0154811D02*
X0339386Y0154811D01*
X0339386Y0155991D02*
X0338992Y0155991D01*
X0339386Y0157170D02*
X0338542Y0157170D01*
X0338795Y0158350D02*
X0339386Y0158350D01*
X0339386Y0159529D02*
X0338795Y0159529D01*
X0338532Y0160709D02*
X0339386Y0160709D01*
X0339386Y0161889D02*
X0338043Y0161889D01*
X0337029Y0163068D02*
X0339386Y0163068D01*
X0339386Y0164248D02*
X0335183Y0164248D01*
X0293804Y0187840D02*
X0293629Y0187840D01*
X0291059Y0191024D02*
X0287811Y0194272D01*
X0287811Y0198051D01*
X0285843Y0198051D02*
X0281906Y0198051D01*
X0281906Y0197913D01*
X0281906Y0201850D01*
X0282043Y0201850D02*
X0282890Y0201850D01*
X0282890Y0198898D01*
X0285843Y0198898D01*
X0285843Y0198051D01*
X0289780Y0198051D02*
X0291748Y0198051D01*
X0297516Y0201850D02*
X0301886Y0201850D01*
X0303854Y0199882D01*
X0297516Y0203819D02*
X0312417Y0203819D01*
X0309760Y0205787D02*
X0311728Y0207756D01*
X0309760Y0205787D02*
X0297516Y0205787D01*
X0297516Y0207756D02*
X0304543Y0207756D01*
X0306512Y0209724D01*
X0304092Y0212612D02*
X0294110Y0212612D01*
X0294110Y0211432D02*
X0302913Y0211432D01*
X0302759Y0210253D02*
X0285252Y0210253D01*
X0282890Y0212676D02*
X0282810Y0212603D01*
X0282733Y0212527D01*
X0282658Y0212448D01*
X0282586Y0212366D01*
X0282517Y0212282D01*
X0282451Y0212196D01*
X0282388Y0212108D01*
X0282328Y0212017D01*
X0282272Y0211924D01*
X0282218Y0211830D01*
X0282168Y0211733D01*
X0282122Y0211635D01*
X0282079Y0211536D01*
X0282039Y0211435D01*
X0282003Y0211332D01*
X0281970Y0211228D01*
X0281941Y0211124D01*
X0281916Y0211018D01*
X0281894Y0210912D01*
X0281877Y0210804D01*
X0281863Y0210697D01*
X0281852Y0210589D01*
X0281846Y0210480D01*
X0281843Y0210372D01*
X0281844Y0210263D01*
X0281849Y0210154D01*
X0281858Y0210046D01*
X0281870Y0209938D01*
X0281886Y0209831D01*
X0281906Y0209724D01*
X0282043Y0209724D01*
X0282890Y0209724D01*
X0282890Y0211693D01*
X0283874Y0212677D01*
X0282890Y0212677D01*
X0283874Y0212677D02*
X0287811Y0212677D01*
X0287811Y0213524D01*
X0281906Y0212677D02*
X0281906Y0211693D01*
X0281906Y0210709D01*
X0285252Y0209073D02*
X0294307Y0209073D01*
X0294307Y0207894D02*
X0285252Y0207894D01*
X0285252Y0206714D02*
X0294307Y0206714D01*
X0294307Y0205534D02*
X0285252Y0205534D01*
X0285252Y0204355D02*
X0294307Y0204355D01*
X0294307Y0203175D02*
X0285252Y0203175D01*
X0285252Y0201995D02*
X0294307Y0201995D01*
X0282043Y0201850D02*
X0279937Y0199744D01*
X0279937Y0197913D01*
X0282043Y0203819D02*
X0261236Y0203819D01*
X0260252Y0204803D01*
X0265862Y0194918D02*
X0266141Y0194918D01*
X0265862Y0193738D02*
X0267181Y0193738D01*
X0265277Y0192559D02*
X0269089Y0192559D01*
X0265644Y0179583D02*
X0263128Y0179583D01*
X0301266Y0219690D02*
X0339386Y0219690D01*
X0339386Y0220869D02*
X0302280Y0220869D01*
X0302280Y0222049D02*
X0339386Y0222049D01*
X0339386Y0223229D02*
X0302280Y0223229D01*
X0302280Y0224408D02*
X0339386Y0224408D01*
X0339386Y0225588D02*
X0301619Y0225588D01*
X0295657Y0225588D02*
X0294729Y0225588D01*
X0288767Y0225588D02*
X0285926Y0225588D01*
X0287106Y0224408D02*
X0288106Y0224408D01*
X0284192Y0226767D02*
X0339386Y0226767D01*
X0339386Y0227947D02*
X0224622Y0227947D01*
X0224622Y0229127D02*
X0339386Y0229127D01*
X0339386Y0230306D02*
X0224622Y0230306D01*
X0224622Y0231486D02*
X0339386Y0231486D01*
X0339386Y0232665D02*
X0224622Y0232665D01*
X0224622Y0233845D02*
X0339386Y0233845D01*
X0339386Y0235025D02*
X0224622Y0235025D01*
X0224622Y0236204D02*
X0339386Y0236204D01*
X0338225Y0237384D02*
X0224622Y0237384D01*
X0224562Y0238564D02*
X0337046Y0238564D01*
X0335866Y0239743D02*
X0224074Y0239743D01*
X0223347Y0240923D02*
X0334687Y0240923D01*
X0333507Y0242102D02*
X0222168Y0242102D01*
D44*
X0218913Y0237283D02*
X0218913Y0233346D01*
X0248441Y0208740D02*
X0254346Y0214646D01*
X0276000Y0214646D01*
X0276984Y0213661D01*
X0281906Y0219567D02*
X0283874Y0219567D01*
X0312417Y0203819D02*
X0320291Y0195945D01*
X0320291Y0173307D01*
X0312417Y0165433D01*
X0309465Y0169370D02*
X0297654Y0169370D01*
X0309465Y0169370D02*
X0317339Y0177244D01*
X0317339Y0192008D01*
X0309465Y0199882D01*
X0309169Y0199882D01*
X0317043Y0207756D02*
X0319307Y0207756D01*
X0325213Y0201850D01*
X0325213Y0170354D01*
X0305528Y0180886D02*
X0305528Y0185413D01*
X0304543Y0186398D01*
X0309465Y0186398D01*
X0304543Y0186398D02*
X0302575Y0186398D01*
X0271079Y0197913D02*
X0271079Y0198898D01*
X0270094Y0199882D01*
X0269406Y0200571D01*
X0262220Y0200571D01*
X0262220Y0195256D02*
X0261630Y0194665D01*
X0256315Y0194665D01*
X0256315Y0189350D02*
X0260941Y0184724D01*
X0260941Y0183150D01*
X0254346Y0177244D02*
X0202181Y0177244D01*
X0202181Y0176260D01*
X0202181Y0174291D01*
X0202181Y0176260D01*
X0202181Y0202539D01*
X0198933Y0205787D01*
X0199917Y0210709D02*
X0198933Y0211693D01*
X0199917Y0210709D02*
X0201197Y0210709D01*
X0205134Y0206772D01*
X0205134Y0183150D01*
X0207102Y0181181D01*
X0246472Y0181181D01*
X0248441Y0183150D01*
X0248441Y0208740D01*
X0199228Y0197913D02*
X0195291Y0201850D01*
X0194307Y0197913D02*
X0196276Y0195945D01*
X0196276Y0171339D01*
X0194307Y0169370D01*
X0199228Y0170354D02*
X0199228Y0165433D01*
X0199228Y0170354D02*
X0199228Y0197913D01*
X0194307Y0197913D02*
X0191059Y0197913D01*
X0191354Y0186398D02*
X0186433Y0186398D01*
X0187417Y0185413D01*
X0187417Y0180886D01*
X0186433Y0186398D02*
X0184465Y0186398D01*
X0202181Y0174291D02*
X0202181Y0171339D01*
X0204150Y0169370D01*
X0209071Y0165433D02*
X0215961Y0165433D01*
X0219898Y0169370D01*
X0254346Y0169370D01*
X0261236Y0173307D02*
X0217929Y0173307D01*
X0214976Y0170354D01*
X0221866Y0165433D02*
X0222850Y0164449D01*
X0258283Y0164449D01*
X0260252Y0166417D01*
X0260547Y0166417D01*
X0269110Y0151654D02*
X0297654Y0151654D01*
X0297654Y0134921D01*
X0304543Y0128031D01*
X0313722Y0128031D01*
X0313734Y0128019D01*
X0317006Y0128019D01*
X0317019Y0128031D01*
X0326000Y0128031D01*
X0326000Y0092598D01*
X0319425Y0092598D01*
X0318949Y0092795D01*
X0303917Y0092795D01*
X0303442Y0092598D01*
X0278165Y0092598D01*
X0278165Y0095661D01*
X0276897Y0096929D01*
X0271166Y0096929D01*
X0269985Y0095748D01*
X0269110Y0095748D01*
X0269110Y0151654D01*
X0269110Y0150559D02*
X0297654Y0150559D01*
X0297654Y0148592D02*
X0269110Y0148592D01*
X0269110Y0146625D02*
X0297654Y0146625D01*
X0297654Y0144658D02*
X0269110Y0144658D01*
X0269110Y0142691D02*
X0297654Y0142691D01*
X0297654Y0140724D02*
X0269110Y0140724D01*
X0269110Y0138757D02*
X0297654Y0138757D01*
X0297654Y0136790D02*
X0269110Y0136790D01*
X0269110Y0134823D02*
X0297752Y0134823D01*
X0299719Y0132856D02*
X0269110Y0132856D01*
X0269110Y0130889D02*
X0301686Y0130889D01*
X0303653Y0128922D02*
X0269110Y0128922D01*
X0269110Y0126955D02*
X0326000Y0126955D01*
X0326000Y0124988D02*
X0269110Y0124988D01*
X0269110Y0123021D02*
X0326000Y0123021D01*
X0326000Y0121054D02*
X0269110Y0121054D01*
X0269110Y0119087D02*
X0326000Y0119087D01*
X0326000Y0117120D02*
X0269110Y0117120D01*
X0269110Y0115153D02*
X0326000Y0115153D01*
X0326000Y0113186D02*
X0269110Y0113186D01*
X0269110Y0111219D02*
X0326000Y0111219D01*
X0326000Y0109252D02*
X0269110Y0109252D01*
X0269110Y0107285D02*
X0326000Y0107285D01*
X0326000Y0105318D02*
X0269110Y0105318D01*
X0269110Y0103351D02*
X0326000Y0103351D01*
X0326000Y0101384D02*
X0269110Y0101384D01*
X0269110Y0099417D02*
X0326000Y0099417D01*
X0326000Y0097450D02*
X0269110Y0097450D01*
X0266157Y0091614D02*
X0258283Y0099488D01*
X0258283Y0107362D01*
X0252339Y0107165D02*
X0252339Y0102441D01*
X0252378Y0102441D01*
X0252339Y0107165D02*
X0252339Y0092343D01*
X0254346Y0090335D01*
X0257594Y0090335D01*
X0260252Y0087677D01*
X0260252Y0079803D01*
X0259268Y0078819D01*
X0259858Y0072913D02*
X0270291Y0083346D01*
X0254346Y0085020D02*
X0253067Y0083740D01*
X0250409Y0083740D01*
X0238795Y0083346D02*
X0227378Y0071929D01*
X0222850Y0071929D01*
X0222850Y0067992D02*
X0218913Y0067992D01*
X0222850Y0067992D01*
X0229740Y0067992D01*
X0234661Y0072913D01*
X0259858Y0072913D01*
X0265173Y0072913D02*
X0265173Y0039449D01*
X0246472Y0020748D01*
X0144425Y0020748D01*
X0144110Y0021063D01*
X0144110Y0028622D01*
X0141157Y0036791D02*
X0141079Y0036870D01*
X0132988Y0036870D01*
X0132988Y0029606D01*
X0132988Y0022185D01*
X0134425Y0020748D01*
X0126551Y0012874D01*
X0096866Y0012874D01*
X0081118Y0028622D01*
X0081118Y0060118D01*
X0070291Y0062677D02*
X0069110Y0062677D01*
X0068028Y0056181D02*
X0070291Y0056181D01*
X0062713Y0056181D02*
X0061630Y0056181D01*
X0061630Y0062677D01*
X0062713Y0056181D02*
X0056217Y0056181D01*
X0061630Y0069764D02*
X0061630Y0073307D01*
X0061630Y0075669D01*
X0057496Y0079803D01*
X0037811Y0079803D01*
X0029937Y0087677D01*
X0029937Y0190039D01*
X0033874Y0193976D01*
X0049622Y0193976D01*
X0050606Y0193976D01*
X0051098Y0193484D01*
X0050606Y0193976D02*
X0049622Y0193976D01*
X0048638Y0194961D01*
X0048638Y0208740D01*
X0052575Y0212677D01*
X0099819Y0212677D01*
X0115567Y0196929D01*
X0115567Y0179213D01*
X0127083Y0167697D01*
X0140173Y0167697D01*
X0142142Y0167697D01*
X0140173Y0167697D01*
X0142142Y0167697D02*
X0144110Y0167697D01*
X0147063Y0167697D01*
X0144110Y0167697D01*
X0147063Y0167697D02*
X0148047Y0167697D01*
X0149327Y0166417D01*
X0154642Y0166417D02*
X0155921Y0165138D01*
X0155921Y0158012D01*
X0171669Y0158012D01*
X0180528Y0151654D02*
X0215961Y0151654D01*
X0215961Y0096842D01*
X0214780Y0095661D01*
X0214780Y0092598D01*
X0206077Y0092598D01*
X0205867Y0092808D01*
X0202432Y0092808D01*
X0202223Y0092598D01*
X0196234Y0092598D01*
X0196025Y0092808D01*
X0192590Y0092808D01*
X0192380Y0092598D01*
X0147063Y0092598D01*
X0147063Y0128031D01*
X0156241Y0128031D01*
X0156254Y0128019D01*
X0159526Y0128019D01*
X0159538Y0128031D01*
X0170021Y0128031D01*
X0170033Y0128019D01*
X0173305Y0128019D01*
X0173318Y0128031D01*
X0175606Y0128031D01*
X0180528Y0132953D01*
X0180528Y0151654D01*
X0180528Y0150559D02*
X0215961Y0150559D01*
X0215961Y0148592D02*
X0180528Y0148592D01*
X0180528Y0146625D02*
X0215961Y0146625D01*
X0215961Y0144658D02*
X0180528Y0144658D01*
X0180528Y0142691D02*
X0215961Y0142691D01*
X0215961Y0140724D02*
X0180528Y0140724D01*
X0180528Y0138757D02*
X0215961Y0138757D01*
X0215961Y0136790D02*
X0180528Y0136790D01*
X0180528Y0134823D02*
X0215961Y0134823D01*
X0215961Y0132856D02*
X0180431Y0132856D01*
X0178464Y0130889D02*
X0215961Y0130889D01*
X0215961Y0128922D02*
X0176497Y0128922D01*
X0147063Y0126955D02*
X0215961Y0126955D01*
X0215961Y0124988D02*
X0147063Y0124988D01*
X0147063Y0123021D02*
X0215961Y0123021D01*
X0215961Y0121054D02*
X0147063Y0121054D01*
X0147063Y0119087D02*
X0215961Y0119087D01*
X0215961Y0117120D02*
X0147063Y0117120D01*
X0147063Y0115153D02*
X0215961Y0115153D01*
X0215961Y0113186D02*
X0147063Y0113186D01*
X0147063Y0111219D02*
X0215961Y0111219D01*
X0215961Y0109252D02*
X0147063Y0109252D01*
X0147063Y0107285D02*
X0215961Y0107285D01*
X0215961Y0105318D02*
X0147063Y0105318D01*
X0147063Y0103351D02*
X0215961Y0103351D01*
X0215961Y0101384D02*
X0147063Y0101384D01*
X0147063Y0099417D02*
X0215961Y0099417D01*
X0215961Y0097450D02*
X0147063Y0097450D01*
X0147063Y0095483D02*
X0214780Y0095483D01*
X0214780Y0093516D02*
X0147063Y0093516D01*
X0116551Y0107362D02*
X0116551Y0150669D01*
X0077181Y0133248D02*
X0077181Y0126063D01*
X0076197Y0125079D01*
X0075902Y0125079D01*
X0077181Y0126063D02*
X0077181Y0122126D01*
X0078165Y0121142D01*
X0077181Y0122126D02*
X0077181Y0116909D01*
X0077181Y0111594D02*
X0069307Y0111594D01*
X0069307Y0116909D02*
X0069012Y0117205D01*
X0069307Y0116909D02*
X0069307Y0126063D01*
X0070291Y0125079D01*
X0070587Y0125079D01*
X0069307Y0126063D02*
X0069307Y0127047D01*
X0069307Y0129016D01*
X0052378Y0129016D01*
X0069307Y0129016D02*
X0069307Y0127047D01*
X0069307Y0129016D02*
X0069307Y0133248D01*
X0077181Y0111594D02*
X0077181Y0109331D01*
X0140173Y0075866D02*
X0183480Y0075866D01*
X0179543Y0071929D02*
X0144110Y0071929D01*
X0128362Y0071929D01*
X0120488Y0071929D01*
X0108677Y0060118D01*
X0102240Y0053681D01*
X0102240Y0046339D01*
X0102240Y0022933D01*
X0104425Y0020748D01*
X0114425Y0020748D02*
X0117535Y0023858D01*
X0117535Y0041870D01*
X0117535Y0053228D01*
X0128362Y0064055D01*
X0126374Y0067992D02*
X0183480Y0067992D01*
X0191354Y0071929D02*
X0191354Y0064055D01*
X0191354Y0048504D01*
X0187024Y0044173D01*
X0180626Y0044173D01*
X0179543Y0043091D01*
X0174622Y0042402D02*
X0174622Y0039449D01*
X0176295Y0037776D01*
X0179543Y0037776D01*
X0180626Y0036693D01*
X0187024Y0036693D01*
X0195685Y0040433D02*
X0195685Y0040827D01*
X0197260Y0042402D01*
X0197260Y0044370D01*
X0203165Y0050276D01*
X0206118Y0050276D01*
X0227083Y0050276D01*
X0229051Y0048307D01*
X0234366Y0048307D02*
X0240567Y0048307D01*
X0246472Y0048307D02*
X0251394Y0048307D01*
X0251394Y0040433D02*
X0246472Y0040433D01*
X0240567Y0040433D02*
X0234366Y0040433D01*
X0229051Y0040433D02*
X0220291Y0040433D01*
X0211630Y0036693D02*
X0205232Y0036693D01*
X0204150Y0037776D01*
X0198343Y0037776D01*
X0195685Y0040433D01*
X0204150Y0043091D02*
X0205232Y0044173D01*
X0211630Y0044173D01*
X0211433Y0044370D01*
X0207102Y0044370D01*
X0196276Y0050276D02*
X0195291Y0051260D01*
X0195291Y0071929D01*
X0199228Y0075866D01*
X0199228Y0084724D01*
X0194307Y0088661D02*
X0194307Y0075866D01*
X0191354Y0072913D01*
X0191354Y0071929D01*
X0204150Y0075866D02*
X0204150Y0060118D01*
X0199228Y0056181D02*
X0229051Y0056181D01*
X0234366Y0056181D02*
X0240567Y0056181D01*
X0246472Y0056181D02*
X0251394Y0056181D01*
X0213992Y0063071D02*
X0209071Y0067992D01*
X0209071Y0084724D01*
X0215173Y0083346D02*
X0215173Y0076063D01*
X0213992Y0074882D01*
X0204150Y0075866D02*
X0204150Y0088661D01*
X0183480Y0056181D02*
X0179543Y0056181D01*
X0174622Y0051260D01*
X0146079Y0051260D01*
X0141157Y0056181D01*
X0130331Y0056181D01*
X0129346Y0057165D01*
X0130724Y0051870D02*
X0139563Y0051870D01*
X0139937Y0052244D01*
X0130724Y0046870D02*
X0166217Y0046870D01*
X0169701Y0043386D01*
X0169701Y0038465D01*
X0177575Y0030591D01*
X0227083Y0030591D01*
X0229051Y0032559D01*
X0228756Y0032264D01*
X0234366Y0032559D02*
X0240567Y0032559D01*
X0204150Y0037776D02*
X0203854Y0037480D01*
X0174622Y0042402D02*
X0174622Y0051260D01*
X0164780Y0041417D02*
X0141846Y0041417D01*
X0141157Y0042106D01*
X0140921Y0041870D01*
X0130724Y0041870D01*
X0130724Y0036870D02*
X0132988Y0036870D01*
X0127673Y0029606D02*
X0124425Y0029606D01*
X0124425Y0020748D01*
X0108677Y0032559D02*
X0108677Y0036496D01*
X0109878Y0036496D01*
X0110252Y0036870D01*
X0110252Y0041870D02*
X0117535Y0041870D01*
X0110252Y0046870D02*
X0102240Y0046870D01*
X0102240Y0046339D01*
X0110252Y0051870D02*
X0126374Y0067992D01*
X0070291Y0072913D02*
X0069898Y0073307D01*
X0069110Y0073307D01*
X0070291Y0073307D01*
X0221571Y0138858D02*
X0225508Y0134921D01*
X0250409Y0134921D01*
X0254346Y0134921D01*
X0258283Y0134921D01*
X0254346Y0134921D01*
X0258283Y0134921D02*
X0259563Y0134921D01*
X0263500Y0138858D01*
X0252378Y0142992D02*
X0252339Y0142992D01*
X0252083Y0143248D01*
X0252378Y0142992D02*
X0252378Y0147717D01*
X0313795Y0158937D02*
X0318913Y0158937D01*
X0319307Y0158543D01*
X0326000Y0095483D02*
X0278165Y0095483D01*
X0278165Y0093516D02*
X0326000Y0093516D01*
X0318323Y0089646D02*
X0325213Y0082756D01*
X0332102Y0082756D01*
X0333087Y0083740D01*
X0324228Y0083740D02*
X0349819Y0083740D01*
X0349819Y0066024D01*
X0324228Y0066024D01*
X0324228Y0083740D01*
X0324228Y0083681D02*
X0349819Y0083681D01*
X0349819Y0081714D02*
X0324228Y0081714D01*
X0324228Y0079747D02*
X0349819Y0079747D01*
X0349819Y0077780D02*
X0324228Y0077780D01*
X0324228Y0075813D02*
X0349819Y0075813D01*
X0349819Y0073846D02*
X0324228Y0073846D01*
X0324228Y0071879D02*
X0349819Y0071879D01*
X0349819Y0069912D02*
X0324228Y0069912D01*
X0324228Y0067944D02*
X0349819Y0067944D01*
X0349819Y0062087D02*
X0349819Y0045354D01*
X0314386Y0045354D01*
X0314386Y0047902D01*
X0314780Y0048296D01*
X0314780Y0053622D01*
X0323244Y0062087D01*
X0349819Y0062087D01*
X0349819Y0062043D02*
X0323201Y0062043D01*
X0321234Y0060076D02*
X0349819Y0060076D01*
X0349819Y0058109D02*
X0319267Y0058109D01*
X0317300Y0056142D02*
X0349819Y0056142D01*
X0349819Y0054175D02*
X0315333Y0054175D01*
X0314780Y0052208D02*
X0349819Y0052208D01*
X0349819Y0050241D02*
X0314780Y0050241D01*
X0314386Y0051949D02*
X0314386Y0046339D01*
X0307496Y0046339D01*
X0306610Y0047224D01*
X0306610Y0052047D01*
X0306610Y0050866D01*
X0298638Y0050866D01*
X0289780Y0056181D02*
X0301591Y0067992D01*
X0301591Y0086693D01*
X0304543Y0089646D01*
X0318323Y0089646D01*
X0289780Y0056181D02*
X0289780Y0032559D01*
X0294701Y0027638D01*
X0299917Y0027638D01*
X0305232Y0027638D02*
X0305232Y0021732D01*
X0305232Y0027638D02*
X0305232Y0033346D01*
X0306610Y0034724D01*
X0309169Y0034724D02*
X0309169Y0039744D01*
X0305528Y0043386D01*
X0299031Y0043386D01*
X0298638Y0043780D01*
X0311728Y0034724D02*
X0311728Y0028327D01*
X0314386Y0025669D01*
X0315075Y0024980D01*
X0318323Y0024980D01*
X0317339Y0029606D02*
X0314878Y0032067D01*
X0314878Y0035351D01*
X0314780Y0035589D01*
X0314780Y0038476D01*
X0314386Y0038869D01*
X0314386Y0041417D01*
X0349819Y0041417D01*
X0349819Y0029606D01*
X0317339Y0029606D01*
X0316374Y0030571D02*
X0349819Y0030571D01*
X0349819Y0032538D02*
X0314878Y0032538D01*
X0314878Y0034505D02*
X0349819Y0034505D01*
X0349819Y0036472D02*
X0314780Y0036472D01*
X0314780Y0038439D02*
X0349819Y0038439D01*
X0349819Y0040406D02*
X0314386Y0040406D01*
X0314386Y0046307D02*
X0349819Y0046307D01*
X0349819Y0048274D02*
X0314758Y0048274D01*
X0314386Y0051949D02*
X0314287Y0052047D01*
X0189386Y0165433D02*
X0188402Y0164449D01*
X0161827Y0164449D01*
X0160843Y0165433D01*
X0147949Y0173012D02*
X0142142Y0173012D01*
X0142831Y0182165D02*
X0142831Y0184724D01*
X0138205Y0189350D01*
X0138205Y0194665D02*
X0138205Y0195256D01*
X0144110Y0195256D01*
X0151984Y0197913D02*
X0151984Y0199882D01*
X0151984Y0200571D01*
X0144110Y0200571D01*
X0151984Y0197913D02*
X0152969Y0197913D01*
X0120488Y0207756D02*
X0120488Y0182165D01*
X0071276Y0197913D02*
X0069307Y0197913D01*
D45*
X0061433Y0192992D03*
X0055528Y0193976D03*
X0052575Y0198898D03*
X0056512Y0202835D03*
X0058480Y0208740D03*
X0062417Y0204803D03*
X0052575Y0207756D03*
X0057496Y0229409D03*
X0096866Y0233346D03*
X0104740Y0233346D03*
X0110646Y0237283D03*
X0116551Y0233346D03*
X0110646Y0229409D03*
X0153953Y0229409D03*
X0159858Y0229409D03*
X0167732Y0229409D03*
X0189386Y0221535D03*
X0192339Y0216614D03*
X0186433Y0216614D03*
X0183480Y0211693D03*
X0177575Y0211693D03*
X0180528Y0216614D03*
X0159858Y0205787D03*
X0156906Y0191024D03*
X0148047Y0191024D03*
X0143126Y0190039D03*
X0148047Y0186102D03*
X0155921Y0185118D03*
X0135252Y0182165D03*
X0099819Y0181181D03*
X0079150Y0160512D03*
X0062417Y0154606D03*
X0055528Y0154606D03*
X0055528Y0162480D03*
X0061433Y0162480D03*
X0056512Y0170354D03*
X0056512Y0178228D03*
X0061433Y0179213D03*
X0035843Y0181181D03*
X0096866Y0123110D03*
X0078165Y0121142D03*
X0075213Y0086693D03*
X0070291Y0082756D03*
X0065370Y0079803D03*
X0060449Y0082756D03*
X0065370Y0086693D03*
X0055528Y0086693D03*
X0079150Y0074882D03*
X0084071Y0079803D03*
X0088992Y0084724D03*
X0056512Y0064055D03*
X0051591Y0062087D03*
X0051591Y0050276D03*
X0051591Y0044370D03*
X0057496Y0041417D03*
X0063402Y0041417D03*
X0096866Y0030591D03*
X0108677Y0032559D03*
X0124425Y0029606D03*
X0144110Y0028622D03*
X0159858Y0033543D03*
X0139563Y0051870D03*
X0178559Y0063071D03*
X0182496Y0051260D03*
X0239583Y0067992D03*
X0251394Y0056181D03*
X0251394Y0048307D03*
X0251394Y0040433D03*
X0251394Y0032559D03*
X0251394Y0014843D03*
X0296669Y0021732D03*
X0345882Y0019764D03*
X0382299Y0024685D03*
X0429543Y0014843D03*
X0348835Y0057165D03*
X0343913Y0057165D03*
X0338008Y0057165D03*
X0334071Y0054213D03*
X0328165Y0054213D03*
X0323244Y0054213D03*
X0318323Y0054213D03*
X0304543Y0055197D03*
X0298638Y0054213D03*
X0293717Y0050276D03*
X0290764Y0085709D03*
X0234661Y0099488D03*
X0171669Y0131969D03*
X0171669Y0137874D03*
X0169701Y0142795D03*
X0164780Y0142795D03*
X0159858Y0142795D03*
X0157890Y0137874D03*
X0157890Y0131969D03*
X0187417Y0173307D03*
X0179543Y0181181D03*
X0222850Y0200866D03*
X0230724Y0200866D03*
X0238598Y0200866D03*
X0234661Y0193976D03*
X0226787Y0193976D03*
X0253362Y0183150D03*
X0266157Y0186102D03*
X0266157Y0191024D03*
X0261236Y0190039D03*
X0274031Y0185118D03*
X0275016Y0191024D03*
X0296374Y0193976D03*
X0297654Y0181181D03*
X0305528Y0173307D03*
X0334071Y0170354D03*
X0321276Y0147717D03*
X0315370Y0147717D03*
X0312417Y0142795D03*
X0318323Y0142795D03*
X0315370Y0137874D03*
X0310449Y0134921D03*
X0315370Y0131969D03*
X0324228Y0142795D03*
X0234661Y0150669D03*
X0295685Y0211693D03*
X0301591Y0211693D03*
X0304543Y0217598D03*
X0310449Y0217598D03*
X0307496Y0223504D03*
X0298638Y0217598D03*
X0276984Y0213661D03*
X0252378Y0229409D03*
X0258283Y0233346D03*
X0252378Y0237283D03*
X0246472Y0233346D03*
X0238598Y0233346D03*
X0211039Y0240236D03*
X0211039Y0224488D03*
X0222850Y0214646D03*
X0230724Y0214646D03*
X0238598Y0214646D03*
X0246472Y0214646D03*
X0277969Y0231378D03*
X0281906Y0234331D03*
X0285843Y0231378D03*
X0446276Y0080787D03*
X0158874Y0011890D03*
X0080134Y0014843D03*
D46*
X0168717Y0202835D03*
X0171669Y0205787D03*
X0174622Y0202835D03*
X0174622Y0208740D03*
X0168717Y0208740D03*
X0286827Y0208740D03*
X0289780Y0205787D03*
X0292732Y0202835D03*
X0286827Y0202835D03*
X0292732Y0208740D03*
D47*
X0165764Y0214646D02*
X0163795Y0216614D01*
X0162811Y0215630D01*
X0162811Y0213661D01*
X0162811Y0211693D01*
X0161827Y0212677D01*
X0161827Y0214646D01*
X0162811Y0214646D01*
X0108677Y0138465D02*
X0108677Y0111299D01*
X0070291Y0072913D01*
X0070291Y0062677D02*
X0070291Y0060118D01*
X0081118Y0060118D01*
X0104740Y0083740D01*
X0123441Y0083740D01*
X0175606Y0083740D01*
X0187417Y0083740D01*
X0177575Y0083740D01*
X0182496Y0083740D02*
X0187417Y0083740D01*
X0218913Y0092008D02*
X0222457Y0095551D01*
X0222457Y0115236D01*
X0262614Y0115236D01*
X0262614Y0127047D02*
X0242535Y0127047D01*
X0242535Y0123110D01*
X0242535Y0127047D02*
X0222457Y0127047D01*
X0242535Y0107362D02*
X0242535Y0092008D01*
X0246276Y0083346D02*
X0250016Y0083346D01*
X0250409Y0083740D01*
X0266157Y0091614D02*
X0273638Y0091614D01*
X0274031Y0092008D01*
X0277772Y0083346D02*
X0281512Y0083346D01*
X0281906Y0083740D01*
X0310055Y0074882D02*
X0310449Y0074488D01*
X0310449Y0067008D01*
X0313106Y0064350D01*
X0313106Y0059134D01*
X0226787Y0083740D02*
X0226394Y0083346D01*
X0222654Y0083346D01*
X0070291Y0060118D02*
X0070291Y0056181D01*
X0070291Y0048307D01*
X0067339Y0048307D01*
X0423185Y0052244D02*
X0424169Y0051260D01*
D48*
X0424169Y0044902D01*
X0415764Y0036496D01*
X0413795Y0034528D01*
X0412811Y0033543D01*
X0340961Y0033543D01*
X0385409Y0062087D02*
X0396236Y0051260D01*
X0407358Y0051260D01*
X0424169Y0051260D02*
X0424169Y0061555D01*
X0398047Y0087677D01*
X0334071Y0078819D02*
X0333087Y0078819D01*
X0333087Y0083740D01*
X0333087Y0147717D01*
D49*
X0313106Y0059134D02*
X0311728Y0057756D01*
X0311728Y0052047D01*
X0309169Y0052047D02*
X0309169Y0057756D01*
X0307791Y0059134D01*
D50*
X0265173Y0072913D03*
X0259268Y0078819D03*
X0250409Y0083740D03*
X0226787Y0083740D03*
X0213992Y0074882D03*
X0222850Y0071929D03*
X0218913Y0067992D03*
X0213992Y0063071D03*
X0204150Y0060118D03*
X0199228Y0056181D03*
X0196276Y0050276D03*
X0207102Y0044370D03*
X0183480Y0056181D03*
X0191354Y0064055D03*
X0183480Y0067992D03*
X0179543Y0071929D03*
X0183480Y0075866D03*
X0182496Y0083740D03*
X0177575Y0083740D03*
X0187417Y0083740D03*
X0194307Y0088661D03*
X0199228Y0084724D03*
X0204150Y0088661D03*
X0209071Y0084724D03*
X0242535Y0107362D03*
X0252378Y0102441D03*
X0258283Y0107362D03*
X0242535Y0123110D03*
X0258283Y0134921D03*
X0252378Y0147717D03*
X0221866Y0165433D03*
X0214976Y0170354D03*
X0209071Y0165433D03*
X0204150Y0169370D03*
X0199228Y0165433D03*
X0194307Y0169370D03*
X0189386Y0165433D03*
X0160843Y0165433D03*
X0147063Y0167697D03*
X0120488Y0182165D03*
X0120488Y0207756D03*
X0126394Y0207756D03*
X0132299Y0207756D03*
X0178559Y0193976D03*
X0188402Y0209724D03*
X0218913Y0221535D03*
X0218913Y0227441D03*
X0218913Y0233346D03*
X0258283Y0207756D03*
X0264189Y0207756D03*
X0270094Y0207756D03*
X0306512Y0209724D03*
X0254346Y0177244D03*
X0261236Y0173307D03*
X0254346Y0169370D03*
X0297654Y0169370D03*
X0312417Y0165433D03*
X0313402Y0158543D03*
X0319307Y0158543D03*
X0325213Y0158543D03*
X0325213Y0170354D03*
X0281906Y0083740D03*
X0164780Y0041417D03*
X0129346Y0057165D03*
X0128362Y0064055D03*
X0140173Y0075866D03*
X0116551Y0107362D03*
X0116551Y0150669D03*
X0071276Y0158543D03*
X0051591Y0158543D03*
X0077181Y0221535D03*
X0077181Y0227441D03*
X0077181Y0233346D03*
D51*
X0077181Y0237283D02*
X0077181Y0221535D01*
X0161827Y0221535D01*
X0163795Y0219567D01*
X0163795Y0216614D01*
X0163795Y0215630D01*
X0154937Y0207756D02*
X0126394Y0207756D01*
X0124425Y0207756D01*
X0120488Y0207756D01*
X0124425Y0207756D01*
X0126394Y0207756D01*
X0132299Y0207756D01*
X0152969Y0197913D02*
X0161827Y0197913D01*
X0162811Y0196929D01*
X0163795Y0195945D01*
X0163795Y0174823D01*
X0171669Y0174823D01*
X0171669Y0158012D02*
X0155921Y0158012D01*
X0108677Y0158012D01*
X0108677Y0147126D01*
X0108677Y0158012D02*
X0108677Y0169961D01*
X0108677Y0178622D02*
X0108677Y0193976D01*
X0096866Y0205787D01*
X0073244Y0205787D01*
X0069307Y0201850D01*
X0069307Y0197913D01*
X0069307Y0170354D02*
X0069307Y0158543D01*
X0085055Y0142795D01*
X0085055Y0115236D01*
X0085055Y0113268D01*
X0081118Y0109331D01*
X0077181Y0109331D01*
X0054346Y0109331D01*
X0052378Y0111299D01*
X0171669Y0158012D02*
X0289780Y0158012D01*
X0313402Y0158543D02*
X0313795Y0158937D01*
X0333087Y0158937D01*
X0325213Y0158543D02*
X0319307Y0158543D01*
X0313402Y0158543D01*
X0333087Y0150276D02*
X0333087Y0147717D01*
X0289780Y0174823D02*
X0281906Y0174823D01*
X0281906Y0195945D01*
X0280921Y0196929D01*
X0279937Y0197913D01*
X0271079Y0197913D01*
X0270094Y0207756D02*
X0264189Y0207756D01*
X0258283Y0207756D01*
X0283874Y0216614D02*
X0283874Y0219567D01*
X0281906Y0221535D01*
X0218913Y0221535D01*
X0218913Y0233346D01*
X0218913Y0237283D01*
D52*
X0155921Y0206772D02*
X0154937Y0207756D01*
M02*
