G75*
%MOIN*%
%OFA0B0*%
%FSLAX25Y25*%
%IPPOS*%
%LPD*%
%AMOC8*
5,1,8,0,0,1.08239X$1,22.5*
%
%ADD10C,0.13386*%
%ADD11C,0.06299*%
%ADD12C,0.07677*%
%ADD13R,0.04921X0.05315*%
%ADD14R,0.05906X0.03937*%
%ADD15R,0.03543X0.03937*%
%ADD16C,0.07874*%
%ADD17OC8,0.03569*%
%ADD18OC8,0.02781*%
%ADD19C,0.01181*%
%ADD20C,0.07874*%
%ADD21OC8,0.03962*%
%ADD22C,0.01969*%
%ADD23C,0.05906*%
%ADD24C,0.03937*%
D10*
X0041748Y0099213D03*
X0041748Y0150945D03*
D11*
X0052378Y0138858D03*
X0052378Y0129016D03*
X0052378Y0121142D03*
X0052378Y0111299D03*
D12*
X0365409Y0065925D02*
X0365409Y0058248D01*
X0385409Y0058248D02*
X0385409Y0065925D01*
D13*
X0239386Y0226339D03*
X0227575Y0226339D03*
X0097654Y0226339D03*
X0085843Y0226339D03*
D14*
X0091748Y0239961D03*
X0103559Y0239961D03*
X0079937Y0239961D03*
X0221669Y0239961D03*
X0233480Y0239961D03*
X0245291Y0239961D03*
D15*
X0239386Y0239961D03*
X0227575Y0239961D03*
X0097654Y0239961D03*
X0085843Y0239961D03*
D16*
X0368520Y0087677D03*
X0398047Y0087677D03*
D17*
X0446276Y0080787D03*
X0348835Y0057165D03*
X0343913Y0057165D03*
X0338008Y0057165D03*
X0334071Y0054213D03*
X0328165Y0054213D03*
X0323244Y0054213D03*
X0318323Y0054213D03*
X0304543Y0055197D03*
X0298638Y0054213D03*
X0293717Y0050276D03*
X0251394Y0048307D03*
X0251394Y0040433D03*
X0251394Y0032559D03*
X0251394Y0014843D03*
X0296669Y0021732D03*
X0345882Y0019764D03*
X0382299Y0024685D03*
X0429543Y0014843D03*
X0290764Y0085709D03*
X0251394Y0056181D03*
X0239583Y0067992D03*
X0182496Y0051260D03*
X0178559Y0063071D03*
X0139563Y0051870D03*
X0159858Y0033543D03*
X0144110Y0028622D03*
X0124425Y0029606D03*
X0108677Y0032559D03*
X0096866Y0030591D03*
X0080134Y0014843D03*
X0063402Y0041417D03*
X0057496Y0041417D03*
X0051591Y0044370D03*
X0051591Y0050276D03*
X0051591Y0062087D03*
X0056512Y0064055D03*
X0079150Y0074882D03*
X0084071Y0079803D03*
X0088992Y0084724D03*
X0075213Y0086693D03*
X0070291Y0082756D03*
X0065370Y0079803D03*
X0060449Y0082756D03*
X0065370Y0086693D03*
X0055528Y0086693D03*
X0078165Y0121142D03*
X0096866Y0123110D03*
X0062417Y0154606D03*
X0055528Y0154606D03*
X0055528Y0162480D03*
X0061433Y0162480D03*
X0056512Y0170354D03*
X0056512Y0178228D03*
X0061433Y0179213D03*
X0035843Y0181181D03*
X0055528Y0193976D03*
X0061433Y0192992D03*
X0052575Y0198898D03*
X0056512Y0202835D03*
X0058480Y0208740D03*
X0062417Y0204803D03*
X0052575Y0207756D03*
X0057496Y0229409D03*
X0096866Y0233346D03*
X0104740Y0233346D03*
X0110646Y0237283D03*
X0116551Y0233346D03*
X0110646Y0229409D03*
X0153953Y0229409D03*
X0159858Y0229409D03*
X0167732Y0229409D03*
X0189386Y0221535D03*
X0192339Y0216614D03*
X0186433Y0216614D03*
X0183480Y0211693D03*
X0177575Y0211693D03*
X0180528Y0216614D03*
X0159858Y0205787D03*
X0156906Y0191024D03*
X0148047Y0191024D03*
X0143126Y0190039D03*
X0148047Y0186102D03*
X0155921Y0185118D03*
X0135252Y0182165D03*
X0099819Y0181181D03*
X0079150Y0160512D03*
X0157890Y0137874D03*
X0159858Y0142795D03*
X0164780Y0142795D03*
X0169701Y0142795D03*
X0171669Y0137874D03*
X0171669Y0131969D03*
X0157890Y0131969D03*
X0187417Y0173307D03*
X0179543Y0181181D03*
X0222850Y0200866D03*
X0230724Y0200866D03*
X0238598Y0200866D03*
X0234661Y0193976D03*
X0226787Y0193976D03*
X0253362Y0183150D03*
X0266157Y0186102D03*
X0266157Y0191024D03*
X0261236Y0190039D03*
X0274031Y0185118D03*
X0275016Y0191024D03*
X0296374Y0193976D03*
X0297654Y0181181D03*
X0305528Y0173307D03*
X0334071Y0170354D03*
X0321276Y0147717D03*
X0315370Y0147717D03*
X0312417Y0142795D03*
X0318323Y0142795D03*
X0315370Y0137874D03*
X0310449Y0134921D03*
X0315370Y0131969D03*
X0324228Y0142795D03*
X0234661Y0150669D03*
X0234661Y0099488D03*
X0158874Y0011890D03*
X0295685Y0211693D03*
X0301591Y0211693D03*
X0304543Y0217598D03*
X0310449Y0217598D03*
X0307496Y0223504D03*
X0298638Y0217598D03*
X0276984Y0213661D03*
X0252378Y0229409D03*
X0258283Y0233346D03*
X0252378Y0237283D03*
X0246472Y0233346D03*
X0238598Y0233346D03*
X0211039Y0240236D03*
X0211039Y0224488D03*
X0222850Y0214646D03*
X0230724Y0214646D03*
X0238598Y0214646D03*
X0246472Y0214646D03*
X0277969Y0231378D03*
X0281906Y0234331D03*
X0285843Y0231378D03*
D18*
X0286827Y0208740D03*
X0289780Y0205787D03*
X0292732Y0202835D03*
X0286827Y0202835D03*
X0292732Y0208740D03*
X0174622Y0208740D03*
X0171669Y0205787D03*
X0168717Y0202835D03*
X0174622Y0202835D03*
X0168717Y0208740D03*
D19*
X0024622Y0236223D02*
X0024622Y0013934D01*
X0030997Y0007559D01*
X0444231Y0007559D01*
X0462417Y0025745D01*
X0462417Y0074806D01*
X0444231Y0092992D01*
X0400133Y0092992D01*
X0401281Y0092517D01*
X0402887Y0090911D01*
X0403756Y0088813D01*
X0403756Y0086542D01*
X0402887Y0084443D01*
X0401281Y0082838D01*
X0399183Y0081969D01*
X0396912Y0081969D01*
X0394814Y0082838D01*
X0393208Y0084443D01*
X0392339Y0086542D01*
X0392339Y0088813D01*
X0393208Y0090911D01*
X0394814Y0092517D01*
X0395961Y0092992D01*
X0341436Y0092992D01*
X0340495Y0093382D01*
X0339775Y0094102D01*
X0339386Y0095042D01*
X0339386Y0236223D01*
X0333011Y0242598D01*
X0242929Y0242598D01*
X0242929Y0237258D01*
X0241891Y0236220D01*
X0224701Y0236220D01*
X0224701Y0230768D01*
X0230769Y0230768D01*
X0231807Y0229730D01*
X0231807Y0222947D01*
X0230769Y0221909D01*
X0224701Y0221909D01*
X0224701Y0220479D01*
X0223832Y0218380D01*
X0222147Y0216696D01*
X0220049Y0215827D01*
X0217778Y0215827D01*
X0216360Y0216414D01*
X0219309Y0213465D01*
X0271230Y0213465D01*
X0273328Y0212595D01*
X0273428Y0212495D01*
X0273428Y0215134D01*
X0275511Y0217217D01*
X0278457Y0217217D01*
X0280540Y0215134D01*
X0280540Y0212189D01*
X0278457Y0210106D01*
X0275511Y0210106D01*
X0275151Y0210466D01*
X0275803Y0208891D01*
X0275803Y0206620D01*
X0275442Y0205749D01*
X0276978Y0204213D01*
X0278947Y0204213D01*
X0280331Y0202829D01*
X0286821Y0196339D01*
X0293707Y0196339D01*
X0294901Y0197532D01*
X0296589Y0197532D01*
X0304150Y0205093D01*
X0304150Y0206779D01*
X0302759Y0208170D01*
X0302759Y0211279D01*
X0304957Y0213477D01*
X0308066Y0213477D01*
X0310265Y0211279D01*
X0310265Y0208170D01*
X0308874Y0206779D01*
X0308874Y0203136D01*
X0299930Y0194192D01*
X0299930Y0192503D01*
X0297847Y0190420D01*
X0294901Y0190420D01*
X0293707Y0191614D01*
X0284864Y0191614D01*
X0276990Y0199488D01*
X0275022Y0199488D01*
X0272101Y0202408D01*
X0271230Y0202047D01*
X0252181Y0202047D01*
X0252181Y0180386D01*
X0252792Y0180997D01*
X0255901Y0180997D01*
X0256898Y0180000D01*
X0269658Y0180000D01*
X0270671Y0179580D01*
X0271447Y0178805D01*
X0274189Y0176063D01*
X0300170Y0176063D01*
X0301183Y0175643D01*
X0301958Y0174868D01*
X0304701Y0172126D01*
X0307339Y0172126D01*
X0307903Y0172691D01*
X0308916Y0173110D01*
X0322661Y0173110D01*
X0323658Y0174107D01*
X0326767Y0174107D01*
X0328965Y0171909D01*
X0328965Y0168800D01*
X0326767Y0166602D01*
X0323658Y0166602D01*
X0322661Y0167598D01*
X0315559Y0167598D01*
X0316170Y0166988D01*
X0316170Y0164252D01*
X0326348Y0164252D01*
X0328446Y0163383D01*
X0330052Y0161777D01*
X0330921Y0159679D01*
X0330921Y0157408D01*
X0330052Y0155310D01*
X0328446Y0153704D01*
X0326348Y0152835D01*
X0253211Y0152835D01*
X0251113Y0153704D01*
X0243239Y0161578D01*
X0241633Y0163184D01*
X0240764Y0165282D01*
X0240764Y0202047D01*
X0215809Y0202047D01*
X0213711Y0202916D01*
X0185053Y0231575D01*
X0154349Y0231575D01*
X0138008Y0215234D01*
X0138008Y0206620D01*
X0137139Y0204522D01*
X0135533Y0202916D01*
X0133435Y0202047D01*
X0119353Y0202047D01*
X0117254Y0202916D01*
X0115649Y0204522D01*
X0114780Y0206620D01*
X0114780Y0208891D01*
X0115649Y0210990D01*
X0117254Y0212595D01*
X0119353Y0213465D01*
X0126591Y0213465D01*
X0126591Y0218734D01*
X0127460Y0220832D01*
X0129066Y0222438D01*
X0148751Y0242123D01*
X0149898Y0242598D01*
X0101197Y0242598D01*
X0101197Y0237258D01*
X0100159Y0236220D01*
X0082890Y0236220D01*
X0082890Y0230768D01*
X0089037Y0230768D01*
X0090075Y0229730D01*
X0090075Y0222947D01*
X0089037Y0221909D01*
X0082890Y0221909D01*
X0082890Y0220400D01*
X0082021Y0218302D01*
X0080415Y0216696D01*
X0078317Y0215827D01*
X0076046Y0215827D01*
X0073947Y0216696D01*
X0072342Y0218302D01*
X0071472Y0220400D01*
X0071472Y0238419D01*
X0072342Y0240517D01*
X0073947Y0242123D01*
X0075095Y0242598D01*
X0030997Y0242598D01*
X0024622Y0236223D01*
X0024622Y0236204D02*
X0071472Y0236204D01*
X0071472Y0235025D02*
X0024622Y0235025D01*
X0024622Y0233845D02*
X0071472Y0233845D01*
X0071472Y0232665D02*
X0024622Y0232665D01*
X0024622Y0231486D02*
X0071472Y0231486D01*
X0071472Y0230306D02*
X0024622Y0230306D01*
X0024622Y0229127D02*
X0071472Y0229127D01*
X0071472Y0227947D02*
X0038910Y0227947D01*
X0038706Y0228031D02*
X0034947Y0228031D01*
X0031474Y0226593D01*
X0028816Y0223935D01*
X0027378Y0220462D01*
X0027378Y0216703D01*
X0028816Y0213230D01*
X0031474Y0210572D01*
X0034947Y0209134D01*
X0038706Y0209134D01*
X0042179Y0210572D01*
X0044837Y0213230D01*
X0046276Y0216703D01*
X0046276Y0220462D01*
X0044837Y0223935D01*
X0042179Y0226593D01*
X0038706Y0228031D01*
X0041758Y0226767D02*
X0071472Y0226767D01*
X0071472Y0225588D02*
X0043184Y0225588D01*
X0044364Y0224408D02*
X0071472Y0224408D01*
X0071472Y0223229D02*
X0045130Y0223229D01*
X0045618Y0222049D02*
X0071472Y0222049D01*
X0071472Y0220869D02*
X0046107Y0220869D01*
X0046276Y0219690D02*
X0071767Y0219690D01*
X0072255Y0218510D02*
X0046276Y0218510D01*
X0046276Y0217330D02*
X0073313Y0217330D01*
X0075263Y0216151D02*
X0046047Y0216151D01*
X0045558Y0214971D02*
X0126591Y0214971D01*
X0126591Y0213792D02*
X0045070Y0213792D01*
X0044219Y0212612D02*
X0117294Y0212612D01*
X0116091Y0211432D02*
X0043039Y0211432D01*
X0041408Y0210253D02*
X0115343Y0210253D01*
X0114855Y0209073D02*
X0024622Y0209073D01*
X0024622Y0207894D02*
X0114780Y0207894D01*
X0114780Y0206714D02*
X0024622Y0206714D01*
X0024622Y0205534D02*
X0115229Y0205534D01*
X0115816Y0204355D02*
X0024622Y0204355D01*
X0024622Y0203175D02*
X0116996Y0203175D01*
X0135792Y0203175D02*
X0157442Y0203175D01*
X0157496Y0203121D02*
X0157496Y0200872D01*
X0158880Y0199488D01*
X0162817Y0195551D01*
X0166754Y0191614D01*
X0175614Y0191614D01*
X0177005Y0190224D01*
X0180113Y0190224D01*
X0182312Y0192422D01*
X0182312Y0194388D01*
X0190764Y0202840D01*
X0190764Y0206779D01*
X0192154Y0208170D01*
X0192154Y0211279D01*
X0189956Y0213477D01*
X0186847Y0213477D01*
X0184649Y0211279D01*
X0184649Y0208170D01*
X0186039Y0206779D01*
X0186039Y0204797D01*
X0178971Y0197729D01*
X0177005Y0197729D01*
X0175614Y0196339D01*
X0168711Y0196339D01*
X0166157Y0198892D01*
X0162220Y0202829D01*
X0162220Y0203121D01*
X0163414Y0204314D01*
X0163414Y0207260D01*
X0161331Y0209343D01*
X0158385Y0209343D01*
X0156302Y0207260D01*
X0156302Y0204314D01*
X0157496Y0203121D01*
X0157496Y0201995D02*
X0024622Y0201995D01*
X0024622Y0200816D02*
X0157552Y0200816D01*
X0158732Y0199636D02*
X0024622Y0199636D01*
X0024622Y0198457D02*
X0159911Y0198457D01*
X0161091Y0197277D02*
X0024622Y0197277D01*
X0024622Y0196097D02*
X0162271Y0196097D01*
X0163450Y0194918D02*
X0024622Y0194918D01*
X0024622Y0193738D02*
X0164630Y0193738D01*
X0165809Y0192559D02*
X0024622Y0192559D01*
X0024622Y0191379D02*
X0175849Y0191379D01*
X0178559Y0193976D02*
X0167732Y0193976D01*
X0163795Y0197913D01*
X0159858Y0201850D01*
X0159858Y0205787D01*
X0162275Y0203175D02*
X0184417Y0203175D01*
X0183237Y0201995D02*
X0163054Y0201995D01*
X0164233Y0200816D02*
X0182058Y0200816D01*
X0180878Y0199636D02*
X0165413Y0199636D01*
X0166593Y0198457D02*
X0179699Y0198457D01*
X0176553Y0197277D02*
X0167772Y0197277D01*
X0163414Y0204355D02*
X0185597Y0204355D01*
X0186039Y0205534D02*
X0163414Y0205534D01*
X0163414Y0206714D02*
X0186039Y0206714D01*
X0184925Y0207894D02*
X0162781Y0207894D01*
X0161601Y0209073D02*
X0184649Y0209073D01*
X0184649Y0210253D02*
X0138008Y0210253D01*
X0138008Y0211432D02*
X0184802Y0211432D01*
X0185982Y0212612D02*
X0138008Y0212612D01*
X0138008Y0213792D02*
X0202836Y0213792D01*
X0201656Y0214971D02*
X0138008Y0214971D01*
X0138925Y0216151D02*
X0200477Y0216151D01*
X0199297Y0217330D02*
X0140105Y0217330D01*
X0141284Y0218510D02*
X0198117Y0218510D01*
X0196938Y0219690D02*
X0142464Y0219690D01*
X0143643Y0220869D02*
X0195758Y0220869D01*
X0194579Y0222049D02*
X0144823Y0222049D01*
X0146003Y0223229D02*
X0193399Y0223229D01*
X0192219Y0224408D02*
X0147182Y0224408D01*
X0148362Y0225588D02*
X0191040Y0225588D01*
X0189860Y0226767D02*
X0149541Y0226767D01*
X0150721Y0227947D02*
X0188681Y0227947D01*
X0187501Y0229127D02*
X0151901Y0229127D01*
X0153080Y0230306D02*
X0186321Y0230306D01*
X0185142Y0231486D02*
X0154260Y0231486D01*
X0142832Y0236204D02*
X0082890Y0236204D01*
X0082890Y0235025D02*
X0141652Y0235025D01*
X0140473Y0233845D02*
X0082890Y0233845D01*
X0082890Y0232665D02*
X0139293Y0232665D01*
X0138113Y0231486D02*
X0082890Y0231486D01*
X0089498Y0230306D02*
X0093998Y0230306D01*
X0094459Y0230768D02*
X0093421Y0229730D01*
X0093421Y0222947D01*
X0094459Y0221909D01*
X0100848Y0221909D01*
X0101886Y0222947D01*
X0101886Y0229730D01*
X0100848Y0230768D01*
X0094459Y0230768D01*
X0093421Y0229127D02*
X0090075Y0229127D01*
X0090075Y0227947D02*
X0093421Y0227947D01*
X0093421Y0226767D02*
X0090075Y0226767D01*
X0090075Y0225588D02*
X0093421Y0225588D01*
X0093421Y0224408D02*
X0090075Y0224408D01*
X0090075Y0223229D02*
X0093421Y0223229D01*
X0094320Y0222049D02*
X0089176Y0222049D01*
X0082890Y0220869D02*
X0127497Y0220869D01*
X0126986Y0219690D02*
X0082596Y0219690D01*
X0082107Y0218510D02*
X0126591Y0218510D01*
X0126591Y0217330D02*
X0081049Y0217330D01*
X0079099Y0216151D02*
X0126591Y0216151D01*
X0128676Y0222049D02*
X0100987Y0222049D01*
X0101886Y0223229D02*
X0129856Y0223229D01*
X0131036Y0224408D02*
X0101886Y0224408D01*
X0101886Y0225588D02*
X0132215Y0225588D01*
X0133395Y0226767D02*
X0101886Y0226767D01*
X0101886Y0227947D02*
X0134575Y0227947D01*
X0135754Y0229127D02*
X0101886Y0229127D01*
X0101309Y0230306D02*
X0136934Y0230306D01*
X0144011Y0237384D02*
X0101197Y0237384D01*
X0101197Y0238564D02*
X0145191Y0238564D01*
X0146371Y0239743D02*
X0101197Y0239743D01*
X0101197Y0240923D02*
X0147550Y0240923D01*
X0148730Y0242102D02*
X0101197Y0242102D01*
X0073927Y0242102D02*
X0030501Y0242102D01*
X0029321Y0240923D02*
X0072747Y0240923D01*
X0072021Y0239743D02*
X0028142Y0239743D01*
X0026962Y0238564D02*
X0071532Y0238564D01*
X0071472Y0237384D02*
X0025782Y0237384D01*
X0024622Y0227947D02*
X0034743Y0227947D01*
X0031895Y0226767D02*
X0024622Y0226767D01*
X0024622Y0225588D02*
X0030469Y0225588D01*
X0029290Y0224408D02*
X0024622Y0224408D01*
X0024622Y0223229D02*
X0028524Y0223229D01*
X0028035Y0222049D02*
X0024622Y0222049D01*
X0024622Y0220869D02*
X0027547Y0220869D01*
X0027378Y0219690D02*
X0024622Y0219690D01*
X0024622Y0218510D02*
X0027378Y0218510D01*
X0027378Y0217330D02*
X0024622Y0217330D01*
X0024622Y0216151D02*
X0027607Y0216151D01*
X0028095Y0214971D02*
X0024622Y0214971D01*
X0024622Y0213792D02*
X0028584Y0213792D01*
X0029435Y0212612D02*
X0024622Y0212612D01*
X0024622Y0211432D02*
X0030614Y0211432D01*
X0032246Y0210253D02*
X0024622Y0210253D01*
X0024622Y0190199D02*
X0240764Y0190199D01*
X0240764Y0189020D02*
X0024622Y0189020D01*
X0024622Y0187840D02*
X0240764Y0187840D01*
X0240764Y0186661D02*
X0024622Y0186661D01*
X0024622Y0185481D02*
X0118497Y0185481D01*
X0118934Y0185918D02*
X0116735Y0183720D01*
X0116735Y0182310D01*
X0114215Y0179789D01*
X0113795Y0178777D01*
X0113795Y0153221D01*
X0112798Y0152224D01*
X0112798Y0149115D01*
X0114997Y0146917D01*
X0118106Y0146917D01*
X0120304Y0149115D01*
X0120304Y0152224D01*
X0119307Y0153221D01*
X0119307Y0177087D01*
X0120633Y0178413D01*
X0122043Y0178413D01*
X0124241Y0180611D01*
X0124241Y0183720D01*
X0122043Y0185918D01*
X0118934Y0185918D01*
X0117317Y0184301D02*
X0024622Y0184301D01*
X0024622Y0183122D02*
X0116735Y0183122D01*
X0116367Y0181942D02*
X0024622Y0181942D01*
X0024622Y0180762D02*
X0115188Y0180762D01*
X0114129Y0179583D02*
X0024622Y0179583D01*
X0024622Y0178403D02*
X0113795Y0178403D01*
X0113795Y0177224D02*
X0024622Y0177224D01*
X0024622Y0176044D02*
X0113795Y0176044D01*
X0113795Y0174864D02*
X0024622Y0174864D01*
X0024622Y0173685D02*
X0113795Y0173685D01*
X0113795Y0172505D02*
X0024622Y0172505D01*
X0024622Y0171326D02*
X0113795Y0171326D01*
X0113795Y0170146D02*
X0024622Y0170146D01*
X0024622Y0168966D02*
X0113795Y0168966D01*
X0113795Y0167787D02*
X0024622Y0167787D01*
X0024622Y0166607D02*
X0113795Y0166607D01*
X0113795Y0165427D02*
X0024622Y0165427D01*
X0024622Y0164248D02*
X0113795Y0164248D01*
X0113795Y0163068D02*
X0024622Y0163068D01*
X0024622Y0161889D02*
X0049629Y0161889D01*
X0050036Y0162296D02*
X0047838Y0160098D01*
X0047838Y0156989D01*
X0050036Y0154791D01*
X0053145Y0154791D01*
X0054536Y0156181D01*
X0068331Y0156181D01*
X0069721Y0154791D01*
X0072830Y0154791D01*
X0075028Y0156989D01*
X0075028Y0160098D01*
X0072830Y0162296D01*
X0069721Y0162296D01*
X0068331Y0160905D01*
X0054536Y0160905D01*
X0053145Y0162296D01*
X0050036Y0162296D01*
X0048449Y0160709D02*
X0024622Y0160709D01*
X0024622Y0159529D02*
X0047838Y0159529D01*
X0047838Y0158350D02*
X0024622Y0158350D01*
X0024622Y0157170D02*
X0047838Y0157170D01*
X0048836Y0155991D02*
X0024622Y0155991D01*
X0024622Y0154811D02*
X0050016Y0154811D01*
X0053165Y0154811D02*
X0069701Y0154811D01*
X0068521Y0155991D02*
X0054345Y0155991D01*
X0051591Y0158543D02*
X0071276Y0158543D01*
X0074030Y0155991D02*
X0113795Y0155991D01*
X0113795Y0157170D02*
X0075028Y0157170D01*
X0075028Y0158350D02*
X0113795Y0158350D01*
X0113795Y0159529D02*
X0075028Y0159529D01*
X0074417Y0160709D02*
X0113795Y0160709D01*
X0113795Y0161889D02*
X0073237Y0161889D01*
X0069314Y0161889D02*
X0053552Y0161889D01*
X0072850Y0154811D02*
X0113795Y0154811D01*
X0113795Y0153631D02*
X0024622Y0153631D01*
X0024622Y0152452D02*
X0113026Y0152452D01*
X0112798Y0151272D02*
X0024622Y0151272D01*
X0024622Y0150092D02*
X0112798Y0150092D01*
X0113000Y0148913D02*
X0024622Y0148913D01*
X0024622Y0147733D02*
X0114180Y0147733D01*
X0118922Y0147733D02*
X0191551Y0147733D01*
X0191551Y0146554D02*
X0024622Y0146554D01*
X0024622Y0145374D02*
X0191551Y0145374D01*
X0191551Y0144194D02*
X0024622Y0144194D01*
X0024622Y0143015D02*
X0191551Y0143015D01*
X0191551Y0141835D02*
X0024622Y0141835D01*
X0024622Y0140656D02*
X0191551Y0140656D01*
X0191551Y0139476D02*
X0024622Y0139476D01*
X0024622Y0138296D02*
X0191551Y0138296D01*
X0191551Y0137117D02*
X0024622Y0137117D01*
X0024622Y0135937D02*
X0191551Y0135937D01*
X0191551Y0134758D02*
X0024622Y0134758D01*
X0024622Y0133578D02*
X0050532Y0133578D01*
X0051399Y0133937D02*
X0049590Y0133188D01*
X0048206Y0131803D01*
X0047457Y0129995D01*
X0047457Y0128037D01*
X0048206Y0126228D01*
X0049355Y0125079D01*
X0048206Y0123929D01*
X0047457Y0122121D01*
X0047457Y0120163D01*
X0048206Y0118354D01*
X0049590Y0116970D01*
X0051399Y0116220D01*
X0049590Y0115471D01*
X0048206Y0114087D01*
X0047457Y0112278D01*
X0047457Y0110320D01*
X0048206Y0108512D01*
X0049590Y0107127D01*
X0051399Y0106378D01*
X0053357Y0106378D01*
X0055166Y0107127D01*
X0056550Y0108512D01*
X0057299Y0110320D01*
X0057299Y0112278D01*
X0056550Y0114087D01*
X0055166Y0115471D01*
X0053357Y0116220D01*
X0051399Y0116220D01*
X0053357Y0116220D01*
X0055166Y0116970D01*
X0056550Y0118354D01*
X0056563Y0118386D01*
X0075892Y0118386D01*
X0076692Y0117586D01*
X0079638Y0117586D01*
X0081721Y0119669D01*
X0081721Y0122615D01*
X0079638Y0124698D01*
X0076692Y0124698D01*
X0075892Y0123898D01*
X0056563Y0123898D01*
X0056550Y0123929D01*
X0055401Y0125079D01*
X0056550Y0126228D01*
X0057299Y0128037D01*
X0057299Y0129995D01*
X0056550Y0131803D01*
X0055166Y0133188D01*
X0053357Y0133937D01*
X0051399Y0133937D01*
X0054224Y0133578D02*
X0191551Y0133578D01*
X0191551Y0132398D02*
X0055955Y0132398D01*
X0056792Y0131219D02*
X0191551Y0131219D01*
X0191551Y0130039D02*
X0057281Y0130039D01*
X0057299Y0128859D02*
X0191551Y0128859D01*
X0191551Y0127680D02*
X0057151Y0127680D01*
X0056663Y0126500D02*
X0191551Y0126500D01*
X0191551Y0125321D02*
X0055642Y0125321D01*
X0056338Y0124141D02*
X0076136Y0124141D01*
X0080195Y0124141D02*
X0191551Y0124141D01*
X0191551Y0122961D02*
X0081375Y0122961D01*
X0081721Y0121782D02*
X0191551Y0121782D01*
X0191551Y0120602D02*
X0081721Y0120602D01*
X0081475Y0119423D02*
X0191551Y0119423D01*
X0191551Y0118243D02*
X0080295Y0118243D01*
X0076035Y0118243D02*
X0056439Y0118243D01*
X0055259Y0117063D02*
X0191551Y0117063D01*
X0191551Y0115884D02*
X0054170Y0115884D01*
X0055933Y0114704D02*
X0191551Y0114704D01*
X0191551Y0113524D02*
X0056783Y0113524D01*
X0057272Y0112345D02*
X0191551Y0112345D01*
X0191551Y0111165D02*
X0057299Y0111165D01*
X0057161Y0109986D02*
X0113867Y0109986D01*
X0112798Y0108917D02*
X0112798Y0105808D01*
X0114997Y0103609D01*
X0116406Y0103609D01*
X0121669Y0098347D01*
X0121669Y0059570D01*
X0122089Y0058557D01*
X0122864Y0057782D01*
X0125817Y0054829D01*
X0126771Y0054434D01*
X0127792Y0053413D01*
X0130901Y0053413D01*
X0133099Y0055611D01*
X0133099Y0058720D01*
X0130901Y0060918D01*
X0130532Y0060918D01*
X0132115Y0062501D01*
X0132115Y0063910D01*
X0140318Y0072113D01*
X0141728Y0072113D01*
X0143926Y0074312D01*
X0143926Y0077421D01*
X0141728Y0079619D01*
X0138619Y0079619D01*
X0136420Y0077421D01*
X0136420Y0076011D01*
X0128218Y0067808D01*
X0127181Y0067808D01*
X0127181Y0100036D01*
X0126762Y0101049D01*
X0120304Y0107507D01*
X0120304Y0108917D01*
X0118106Y0111115D01*
X0114997Y0111115D01*
X0112798Y0108917D01*
X0112798Y0108806D02*
X0056672Y0108806D01*
X0055665Y0107626D02*
X0112798Y0107626D01*
X0112798Y0106447D02*
X0053523Y0106447D01*
X0051233Y0106447D02*
X0024622Y0106447D01*
X0024622Y0107626D02*
X0049091Y0107626D01*
X0048084Y0108806D02*
X0024622Y0108806D01*
X0024622Y0109986D02*
X0047595Y0109986D01*
X0047457Y0111165D02*
X0024622Y0111165D01*
X0024622Y0112345D02*
X0047484Y0112345D01*
X0047973Y0113524D02*
X0024622Y0113524D01*
X0024622Y0114704D02*
X0048823Y0114704D01*
X0050586Y0115884D02*
X0024622Y0115884D01*
X0024622Y0117063D02*
X0049497Y0117063D01*
X0048317Y0118243D02*
X0024622Y0118243D01*
X0024622Y0119423D02*
X0047763Y0119423D01*
X0047457Y0120602D02*
X0024622Y0120602D01*
X0024622Y0121782D02*
X0047457Y0121782D01*
X0047805Y0122961D02*
X0024622Y0122961D01*
X0024622Y0124141D02*
X0048417Y0124141D01*
X0049113Y0125321D02*
X0024622Y0125321D01*
X0024622Y0126500D02*
X0048093Y0126500D01*
X0047605Y0127680D02*
X0024622Y0127680D01*
X0024622Y0128859D02*
X0047457Y0128859D01*
X0047475Y0130039D02*
X0024622Y0130039D01*
X0024622Y0131219D02*
X0047964Y0131219D01*
X0048801Y0132398D02*
X0024622Y0132398D01*
X0024622Y0105267D02*
X0113339Y0105267D01*
X0114519Y0104088D02*
X0024622Y0104088D01*
X0024622Y0102908D02*
X0117108Y0102908D01*
X0118288Y0101728D02*
X0024622Y0101728D01*
X0024622Y0100549D02*
X0119467Y0100549D01*
X0120647Y0099369D02*
X0024622Y0099369D01*
X0024622Y0098189D02*
X0121669Y0098189D01*
X0121669Y0097010D02*
X0024622Y0097010D01*
X0024622Y0095830D02*
X0121669Y0095830D01*
X0121669Y0094651D02*
X0024622Y0094651D01*
X0024622Y0093471D02*
X0121669Y0093471D01*
X0121669Y0092291D02*
X0024622Y0092291D01*
X0024622Y0091112D02*
X0121669Y0091112D01*
X0121669Y0089932D02*
X0024622Y0089932D01*
X0024622Y0088753D02*
X0121669Y0088753D01*
X0121669Y0087573D02*
X0024622Y0087573D01*
X0024622Y0086393D02*
X0121669Y0086393D01*
X0121669Y0085214D02*
X0024622Y0085214D01*
X0024622Y0084034D02*
X0121669Y0084034D01*
X0121669Y0082855D02*
X0024622Y0082855D01*
X0024622Y0081675D02*
X0121669Y0081675D01*
X0121669Y0080495D02*
X0024622Y0080495D01*
X0024622Y0079316D02*
X0121669Y0079316D01*
X0121669Y0078136D02*
X0024622Y0078136D01*
X0024622Y0076956D02*
X0121669Y0076956D01*
X0121669Y0075777D02*
X0024622Y0075777D01*
X0024622Y0074597D02*
X0121669Y0074597D01*
X0121669Y0073418D02*
X0024622Y0073418D01*
X0024622Y0072238D02*
X0121669Y0072238D01*
X0121669Y0071058D02*
X0024622Y0071058D01*
X0024622Y0069879D02*
X0121669Y0069879D01*
X0121669Y0068699D02*
X0024622Y0068699D01*
X0024622Y0067520D02*
X0121669Y0067520D01*
X0121669Y0066340D02*
X0024622Y0066340D01*
X0024622Y0065160D02*
X0121669Y0065160D01*
X0121669Y0063981D02*
X0024622Y0063981D01*
X0024622Y0062801D02*
X0121669Y0062801D01*
X0121669Y0061621D02*
X0024622Y0061621D01*
X0024622Y0060442D02*
X0121669Y0060442D01*
X0121797Y0059262D02*
X0024622Y0059262D01*
X0024622Y0058083D02*
X0122563Y0058083D01*
X0123743Y0056903D02*
X0024622Y0056903D01*
X0024622Y0055723D02*
X0124922Y0055723D01*
X0126505Y0054544D02*
X0024622Y0054544D01*
X0024622Y0053364D02*
X0136028Y0053364D01*
X0136007Y0053343D02*
X0136007Y0050397D01*
X0138090Y0048314D01*
X0139221Y0048314D01*
X0141354Y0046181D01*
X0141354Y0030895D01*
X0140554Y0030095D01*
X0140554Y0027149D01*
X0142637Y0025066D01*
X0145583Y0025066D01*
X0147666Y0027149D01*
X0147666Y0030095D01*
X0146866Y0030895D01*
X0146866Y0047871D01*
X0146447Y0048884D01*
X0145671Y0049659D01*
X0143119Y0052212D01*
X0143119Y0053343D01*
X0141036Y0055426D01*
X0138090Y0055426D01*
X0136007Y0053343D01*
X0136007Y0052185D02*
X0024622Y0052185D01*
X0024622Y0051005D02*
X0136007Y0051005D01*
X0136579Y0049825D02*
X0024622Y0049825D01*
X0024622Y0048646D02*
X0137759Y0048646D01*
X0140070Y0047466D02*
X0024622Y0047466D01*
X0024622Y0046286D02*
X0141249Y0046286D01*
X0141354Y0045107D02*
X0024622Y0045107D01*
X0024622Y0043927D02*
X0141354Y0043927D01*
X0141354Y0042748D02*
X0024622Y0042748D01*
X0024622Y0041568D02*
X0141354Y0041568D01*
X0141354Y0040388D02*
X0040240Y0040388D01*
X0038706Y0041024D02*
X0042179Y0039585D01*
X0044837Y0036927D01*
X0046276Y0033454D01*
X0046276Y0029695D01*
X0044837Y0026222D01*
X0042179Y0023564D01*
X0038706Y0022126D01*
X0034947Y0022126D01*
X0031474Y0023564D01*
X0028816Y0026222D01*
X0027378Y0029695D01*
X0027378Y0033454D01*
X0028816Y0036927D01*
X0031474Y0039585D01*
X0034947Y0041024D01*
X0038706Y0041024D01*
X0042555Y0039209D02*
X0141354Y0039209D01*
X0141354Y0038029D02*
X0043735Y0038029D01*
X0044869Y0036850D02*
X0141354Y0036850D01*
X0141354Y0035670D02*
X0045358Y0035670D01*
X0045846Y0034490D02*
X0141354Y0034490D01*
X0141354Y0033311D02*
X0046276Y0033311D01*
X0046276Y0032131D02*
X0141354Y0032131D01*
X0141354Y0030952D02*
X0046276Y0030952D01*
X0046276Y0029772D02*
X0140554Y0029772D01*
X0140554Y0028592D02*
X0045819Y0028592D01*
X0045330Y0027413D02*
X0140554Y0027413D01*
X0141470Y0026233D02*
X0044841Y0026233D01*
X0043668Y0025053D02*
X0461726Y0025053D01*
X0462417Y0026233D02*
X0146750Y0026233D01*
X0147666Y0027413D02*
X0462417Y0027413D01*
X0462417Y0028592D02*
X0147666Y0028592D01*
X0147666Y0029772D02*
X0462417Y0029772D01*
X0462417Y0030952D02*
X0146866Y0030952D01*
X0146866Y0032131D02*
X0462417Y0032131D01*
X0462417Y0033311D02*
X0146866Y0033311D01*
X0146866Y0034490D02*
X0462417Y0034490D01*
X0462417Y0035670D02*
X0146866Y0035670D01*
X0146866Y0036850D02*
X0462417Y0036850D01*
X0462417Y0038029D02*
X0254019Y0038029D01*
X0254950Y0038960D02*
X0254950Y0041637D01*
X0255908Y0042034D01*
X0260620Y0046746D01*
X0261039Y0047759D01*
X0261039Y0056729D01*
X0260620Y0057742D01*
X0256683Y0061679D01*
X0256683Y0061679D01*
X0255908Y0062454D01*
X0254895Y0062874D01*
X0218086Y0062874D01*
X0217745Y0063216D01*
X0217745Y0064239D01*
X0220468Y0064239D01*
X0222666Y0066438D01*
X0222666Y0068176D01*
X0224405Y0068176D01*
X0226603Y0070375D01*
X0226603Y0073484D01*
X0224405Y0075682D01*
X0221296Y0075682D01*
X0220299Y0074685D01*
X0217745Y0074685D01*
X0217745Y0076063D01*
X0223594Y0076063D01*
X0224969Y0076632D01*
X0226021Y0077685D01*
X0228324Y0079987D01*
X0228342Y0079987D01*
X0228354Y0080000D01*
X0248842Y0080000D01*
X0248855Y0079987D01*
X0251964Y0079987D01*
X0251976Y0080000D01*
X0255515Y0080000D01*
X0255515Y0077264D01*
X0257713Y0075066D01*
X0259123Y0075066D01*
X0261420Y0072769D01*
X0261420Y0071359D01*
X0263619Y0069161D01*
X0266728Y0069161D01*
X0268926Y0071359D01*
X0268926Y0074468D01*
X0266728Y0076666D01*
X0265318Y0076666D01*
X0263020Y0078964D01*
X0263020Y0080000D01*
X0280338Y0080000D01*
X0280351Y0079987D01*
X0283460Y0079987D01*
X0285658Y0082186D01*
X0285658Y0085295D01*
X0283460Y0087493D01*
X0280351Y0087493D01*
X0280338Y0087480D01*
X0251976Y0087480D01*
X0251964Y0087493D01*
X0248855Y0087493D01*
X0248842Y0087480D01*
X0228354Y0087480D01*
X0228342Y0087493D01*
X0225233Y0087493D01*
X0223035Y0085295D01*
X0223035Y0085277D01*
X0221301Y0083543D01*
X0212824Y0083543D01*
X0212824Y0086279D01*
X0211827Y0087276D01*
X0211827Y0162882D01*
X0212824Y0163879D01*
X0212824Y0166988D01*
X0210625Y0169186D01*
X0207902Y0169186D01*
X0207902Y0170925D01*
X0207291Y0171535D01*
X0209898Y0171535D01*
X0211224Y0170210D01*
X0211224Y0168800D01*
X0213422Y0166602D01*
X0216531Y0166602D01*
X0218634Y0168705D01*
X0219110Y0168229D01*
X0219110Y0167984D01*
X0218113Y0166988D01*
X0218113Y0163879D01*
X0220312Y0161680D01*
X0223421Y0161680D01*
X0225619Y0163879D01*
X0225619Y0166988D01*
X0224622Y0167984D01*
X0224622Y0169918D01*
X0224202Y0170931D01*
X0216328Y0178805D01*
X0215553Y0179580D01*
X0214540Y0180000D01*
X0195727Y0180000D01*
X0194714Y0179580D01*
X0188809Y0173675D01*
X0188034Y0172900D01*
X0187614Y0171887D01*
X0187614Y0168969D01*
X0185633Y0166988D01*
X0185633Y0163879D01*
X0187831Y0161680D01*
X0190940Y0161680D01*
X0191551Y0162291D01*
X0191551Y0091213D01*
X0190554Y0090216D01*
X0190554Y0087107D01*
X0192753Y0084909D01*
X0195476Y0084909D01*
X0195476Y0083543D01*
X0192904Y0083543D01*
X0191170Y0085277D01*
X0191170Y0085295D01*
X0188972Y0087493D01*
X0185863Y0087493D01*
X0185850Y0087480D01*
X0184063Y0087480D01*
X0184050Y0087493D01*
X0180942Y0087493D01*
X0180929Y0087480D01*
X0179142Y0087480D01*
X0179129Y0087493D01*
X0176020Y0087493D01*
X0173822Y0085295D01*
X0173822Y0082186D01*
X0176020Y0079987D01*
X0179129Y0079987D01*
X0179142Y0080000D01*
X0180929Y0080000D01*
X0180942Y0079987D01*
X0184050Y0079987D01*
X0184063Y0080000D01*
X0185850Y0080000D01*
X0185863Y0079987D01*
X0185881Y0079987D01*
X0187246Y0078622D01*
X0186032Y0078622D01*
X0185035Y0079619D01*
X0181926Y0079619D01*
X0179728Y0077421D01*
X0179728Y0075682D01*
X0177989Y0075682D01*
X0175791Y0073484D01*
X0175791Y0070375D01*
X0177989Y0068176D01*
X0179728Y0068176D01*
X0179728Y0066438D01*
X0181926Y0064239D01*
X0185035Y0064239D01*
X0186032Y0065236D01*
X0187602Y0065236D01*
X0187602Y0062874D01*
X0180964Y0062874D01*
X0179951Y0062454D01*
X0176998Y0059502D01*
X0176223Y0058726D01*
X0175803Y0057714D01*
X0175803Y0049449D01*
X0170528Y0044173D01*
X0167331Y0044173D01*
X0166334Y0045170D01*
X0163225Y0045170D01*
X0161027Y0042972D01*
X0161027Y0039863D01*
X0163225Y0037665D01*
X0166334Y0037665D01*
X0167331Y0038661D01*
X0172217Y0038661D01*
X0173230Y0039081D01*
X0174006Y0039856D01*
X0180895Y0046746D01*
X0181315Y0047759D01*
X0181315Y0053039D01*
X0181926Y0052428D01*
X0185035Y0052428D01*
X0186032Y0053425D01*
X0194118Y0053425D01*
X0192523Y0051830D01*
X0192523Y0048721D01*
X0193520Y0047724D01*
X0193520Y0045790D01*
X0193939Y0044777D01*
X0199845Y0038872D01*
X0200620Y0038097D01*
X0201633Y0037677D01*
X0249121Y0037677D01*
X0249921Y0036877D01*
X0252867Y0036877D01*
X0254950Y0038960D01*
X0254950Y0039209D02*
X0462417Y0039209D01*
X0462417Y0040388D02*
X0254950Y0040388D01*
X0254950Y0041568D02*
X0462417Y0041568D01*
X0462417Y0042748D02*
X0256621Y0042748D01*
X0257801Y0043927D02*
X0445600Y0043927D01*
X0444860Y0044234D02*
X0448333Y0042795D01*
X0452092Y0042795D01*
X0455565Y0044234D01*
X0458223Y0046892D01*
X0459661Y0050365D01*
X0459661Y0054124D01*
X0458223Y0057596D01*
X0455565Y0060254D01*
X0452092Y0061693D01*
X0448333Y0061693D01*
X0444860Y0060254D01*
X0442202Y0057596D01*
X0440764Y0054124D01*
X0440764Y0050365D01*
X0442202Y0046892D01*
X0444860Y0044234D01*
X0443987Y0045107D02*
X0258981Y0045107D01*
X0260160Y0046286D02*
X0442808Y0046286D01*
X0441964Y0047466D02*
X0260918Y0047466D01*
X0261039Y0048646D02*
X0441476Y0048646D01*
X0440987Y0049825D02*
X0261039Y0049825D01*
X0261039Y0051005D02*
X0440764Y0051005D01*
X0440764Y0052185D02*
X0261039Y0052185D01*
X0261039Y0053364D02*
X0382540Y0053364D01*
X0382231Y0053492D02*
X0384293Y0052638D01*
X0386525Y0052638D01*
X0388587Y0053492D01*
X0390166Y0055070D01*
X0391020Y0057132D01*
X0391020Y0067041D01*
X0390166Y0069103D01*
X0388587Y0070681D01*
X0386525Y0071535D01*
X0384293Y0071535D01*
X0382231Y0070681D01*
X0380653Y0069103D01*
X0379799Y0067041D01*
X0379799Y0057132D01*
X0380653Y0055070D01*
X0382231Y0053492D01*
X0381180Y0054544D02*
X0261039Y0054544D01*
X0261039Y0055723D02*
X0380383Y0055723D01*
X0379894Y0056903D02*
X0260967Y0056903D01*
X0260279Y0058083D02*
X0379799Y0058083D01*
X0379799Y0059262D02*
X0259100Y0059262D01*
X0257920Y0060442D02*
X0379799Y0060442D01*
X0379799Y0061621D02*
X0256741Y0061621D01*
X0255071Y0062801D02*
X0379799Y0062801D01*
X0379799Y0063981D02*
X0217745Y0063981D01*
X0221389Y0065160D02*
X0379799Y0065160D01*
X0379799Y0066340D02*
X0222568Y0066340D01*
X0222666Y0067520D02*
X0379997Y0067520D01*
X0380486Y0068699D02*
X0224928Y0068699D01*
X0226107Y0069879D02*
X0262901Y0069879D01*
X0261721Y0071058D02*
X0226603Y0071058D01*
X0226603Y0072238D02*
X0261420Y0072238D01*
X0260772Y0073418D02*
X0226603Y0073418D01*
X0225489Y0074597D02*
X0259592Y0074597D01*
X0257003Y0075777D02*
X0217745Y0075777D01*
X0225293Y0076956D02*
X0255823Y0076956D01*
X0255515Y0078136D02*
X0226473Y0078136D01*
X0227652Y0079316D02*
X0255515Y0079316D01*
X0263020Y0079316D02*
X0457908Y0079316D01*
X0456728Y0080495D02*
X0283968Y0080495D01*
X0285147Y0081675D02*
X0455549Y0081675D01*
X0454369Y0082855D02*
X0401298Y0082855D01*
X0402477Y0084034D02*
X0453189Y0084034D01*
X0452010Y0085214D02*
X0403206Y0085214D01*
X0403694Y0086393D02*
X0450830Y0086393D01*
X0449651Y0087573D02*
X0403756Y0087573D01*
X0403756Y0088753D02*
X0448471Y0088753D01*
X0447291Y0089932D02*
X0403292Y0089932D01*
X0402686Y0091112D02*
X0446112Y0091112D01*
X0444932Y0092291D02*
X0401506Y0092291D01*
X0394588Y0092291D02*
X0211827Y0092291D01*
X0211827Y0091112D02*
X0393409Y0091112D01*
X0392802Y0089932D02*
X0211827Y0089932D01*
X0211827Y0088753D02*
X0392339Y0088753D01*
X0392339Y0087573D02*
X0211827Y0087573D01*
X0212709Y0086393D02*
X0224133Y0086393D01*
X0222972Y0085214D02*
X0212824Y0085214D01*
X0212824Y0084034D02*
X0221792Y0084034D01*
X0211827Y0093471D02*
X0340406Y0093471D01*
X0339548Y0094651D02*
X0211827Y0094651D01*
X0211827Y0095830D02*
X0339386Y0095830D01*
X0339386Y0097010D02*
X0211827Y0097010D01*
X0211827Y0098189D02*
X0339386Y0098189D01*
X0339386Y0099369D02*
X0254613Y0099369D01*
X0253932Y0098688D02*
X0256131Y0100887D01*
X0256131Y0103995D01*
X0255134Y0104992D01*
X0255134Y0105205D01*
X0256729Y0103609D01*
X0259838Y0103609D01*
X0262036Y0105808D01*
X0262036Y0108917D01*
X0261039Y0109913D01*
X0261039Y0132370D01*
X0262036Y0133367D01*
X0262036Y0136476D01*
X0259838Y0138674D01*
X0256729Y0138674D01*
X0255134Y0137079D01*
X0255134Y0145165D01*
X0256131Y0146162D01*
X0256131Y0149271D01*
X0253932Y0151469D01*
X0250824Y0151469D01*
X0248625Y0149271D01*
X0248625Y0146162D01*
X0249622Y0145165D01*
X0249622Y0104992D01*
X0248625Y0103995D01*
X0248625Y0100887D01*
X0250824Y0098688D01*
X0253932Y0098688D01*
X0255793Y0100549D02*
X0339386Y0100549D01*
X0339386Y0101728D02*
X0256131Y0101728D01*
X0256131Y0102908D02*
X0339386Y0102908D01*
X0339386Y0104088D02*
X0260316Y0104088D01*
X0261496Y0105267D02*
X0339386Y0105267D01*
X0339386Y0106447D02*
X0262036Y0106447D01*
X0262036Y0107626D02*
X0339386Y0107626D01*
X0339386Y0108806D02*
X0262036Y0108806D01*
X0261039Y0109986D02*
X0339386Y0109986D01*
X0339386Y0111165D02*
X0261039Y0111165D01*
X0261039Y0112345D02*
X0339386Y0112345D01*
X0339386Y0113524D02*
X0261039Y0113524D01*
X0261039Y0114704D02*
X0339386Y0114704D01*
X0339386Y0115884D02*
X0261039Y0115884D01*
X0261039Y0117063D02*
X0339386Y0117063D01*
X0339386Y0118243D02*
X0261039Y0118243D01*
X0261039Y0119423D02*
X0339386Y0119423D01*
X0339386Y0120602D02*
X0261039Y0120602D01*
X0261039Y0121782D02*
X0339386Y0121782D01*
X0339386Y0122961D02*
X0261039Y0122961D01*
X0261039Y0124141D02*
X0339386Y0124141D01*
X0339386Y0125321D02*
X0261039Y0125321D01*
X0261039Y0126500D02*
X0339386Y0126500D01*
X0339386Y0127680D02*
X0261039Y0127680D01*
X0261039Y0128859D02*
X0339386Y0128859D01*
X0339386Y0130039D02*
X0261039Y0130039D01*
X0261039Y0131219D02*
X0339386Y0131219D01*
X0339386Y0132398D02*
X0261068Y0132398D01*
X0262036Y0133578D02*
X0339386Y0133578D01*
X0339386Y0134758D02*
X0262036Y0134758D01*
X0262036Y0135937D02*
X0339386Y0135937D01*
X0339386Y0137117D02*
X0261395Y0137117D01*
X0260216Y0138296D02*
X0339386Y0138296D01*
X0339386Y0139476D02*
X0255134Y0139476D01*
X0255134Y0140656D02*
X0339386Y0140656D01*
X0339386Y0141835D02*
X0255134Y0141835D01*
X0255134Y0143015D02*
X0339386Y0143015D01*
X0339386Y0144194D02*
X0255134Y0144194D01*
X0255343Y0145374D02*
X0339386Y0145374D01*
X0339386Y0146554D02*
X0256131Y0146554D01*
X0256131Y0147733D02*
X0339386Y0147733D01*
X0339386Y0148913D02*
X0256131Y0148913D01*
X0255309Y0150092D02*
X0339386Y0150092D01*
X0339386Y0151272D02*
X0254130Y0151272D01*
X0250626Y0151272D02*
X0211827Y0151272D01*
X0211827Y0150092D02*
X0249447Y0150092D01*
X0248625Y0148913D02*
X0211827Y0148913D01*
X0211827Y0147733D02*
X0248625Y0147733D01*
X0248625Y0146554D02*
X0211827Y0146554D01*
X0211827Y0145374D02*
X0249413Y0145374D01*
X0249622Y0144194D02*
X0211827Y0144194D01*
X0211827Y0143015D02*
X0249622Y0143015D01*
X0249622Y0141835D02*
X0211827Y0141835D01*
X0211827Y0140656D02*
X0249622Y0140656D01*
X0249622Y0139476D02*
X0211827Y0139476D01*
X0211827Y0138296D02*
X0249622Y0138296D01*
X0249622Y0137117D02*
X0211827Y0137117D01*
X0211827Y0135937D02*
X0249622Y0135937D01*
X0249622Y0134758D02*
X0211827Y0134758D01*
X0211827Y0133578D02*
X0249622Y0133578D01*
X0249622Y0132398D02*
X0211827Y0132398D01*
X0211827Y0131219D02*
X0249622Y0131219D01*
X0249622Y0130039D02*
X0211827Y0130039D01*
X0211827Y0128859D02*
X0249622Y0128859D01*
X0249622Y0127680D02*
X0211827Y0127680D01*
X0211827Y0126500D02*
X0240618Y0126500D01*
X0240981Y0126863D02*
X0238783Y0124665D01*
X0238783Y0121556D01*
X0238795Y0121543D01*
X0238795Y0108929D01*
X0238783Y0108917D01*
X0238783Y0105808D01*
X0240981Y0103609D01*
X0244090Y0103609D01*
X0246288Y0105808D01*
X0246288Y0108917D01*
X0246276Y0108929D01*
X0246276Y0121543D01*
X0246288Y0121556D01*
X0246288Y0124665D01*
X0244090Y0126863D01*
X0240981Y0126863D01*
X0239439Y0125321D02*
X0211827Y0125321D01*
X0211827Y0124141D02*
X0238783Y0124141D01*
X0238783Y0122961D02*
X0211827Y0122961D01*
X0211827Y0121782D02*
X0238783Y0121782D01*
X0238795Y0120602D02*
X0211827Y0120602D01*
X0211827Y0119423D02*
X0238795Y0119423D01*
X0238795Y0118243D02*
X0211827Y0118243D01*
X0211827Y0117063D02*
X0238795Y0117063D01*
X0238795Y0115884D02*
X0211827Y0115884D01*
X0211827Y0114704D02*
X0238795Y0114704D01*
X0238795Y0113524D02*
X0211827Y0113524D01*
X0211827Y0112345D02*
X0238795Y0112345D01*
X0238795Y0111165D02*
X0211827Y0111165D01*
X0211827Y0109986D02*
X0238795Y0109986D01*
X0238783Y0108806D02*
X0211827Y0108806D01*
X0211827Y0107626D02*
X0238783Y0107626D01*
X0238783Y0106447D02*
X0211827Y0106447D01*
X0211827Y0105267D02*
X0239323Y0105267D01*
X0240503Y0104088D02*
X0211827Y0104088D01*
X0211827Y0102908D02*
X0248625Y0102908D01*
X0248625Y0101728D02*
X0211827Y0101728D01*
X0211827Y0100549D02*
X0248963Y0100549D01*
X0250143Y0099369D02*
X0211827Y0099369D01*
X0191551Y0099369D02*
X0127181Y0099369D01*
X0127181Y0098189D02*
X0191551Y0098189D01*
X0191551Y0097010D02*
X0127181Y0097010D01*
X0127181Y0095830D02*
X0191551Y0095830D01*
X0191551Y0094651D02*
X0127181Y0094651D01*
X0127181Y0093471D02*
X0191551Y0093471D01*
X0191551Y0092291D02*
X0127181Y0092291D01*
X0127181Y0091112D02*
X0191450Y0091112D01*
X0190554Y0089932D02*
X0127181Y0089932D01*
X0127181Y0088753D02*
X0190554Y0088753D01*
X0190554Y0087573D02*
X0127181Y0087573D01*
X0127181Y0086393D02*
X0174921Y0086393D01*
X0173822Y0085214D02*
X0127181Y0085214D01*
X0127181Y0084034D02*
X0173822Y0084034D01*
X0173822Y0082855D02*
X0127181Y0082855D01*
X0127181Y0081675D02*
X0174333Y0081675D01*
X0175512Y0080495D02*
X0127181Y0080495D01*
X0127181Y0079316D02*
X0138316Y0079316D01*
X0137136Y0078136D02*
X0127181Y0078136D01*
X0127181Y0076956D02*
X0136420Y0076956D01*
X0136186Y0075777D02*
X0127181Y0075777D01*
X0127181Y0074597D02*
X0135007Y0074597D01*
X0133827Y0073418D02*
X0127181Y0073418D01*
X0127181Y0072238D02*
X0132648Y0072238D01*
X0131468Y0071058D02*
X0127181Y0071058D01*
X0127181Y0069879D02*
X0130288Y0069879D01*
X0129109Y0068699D02*
X0127181Y0068699D01*
X0132185Y0063981D02*
X0187602Y0063981D01*
X0187602Y0065160D02*
X0185956Y0065160D01*
X0181005Y0065160D02*
X0133365Y0065160D01*
X0134544Y0066340D02*
X0179825Y0066340D01*
X0179728Y0067520D02*
X0135724Y0067520D01*
X0136904Y0068699D02*
X0177466Y0068699D01*
X0176286Y0069879D02*
X0138083Y0069879D01*
X0139263Y0071058D02*
X0175791Y0071058D01*
X0175791Y0072238D02*
X0141852Y0072238D01*
X0143032Y0073418D02*
X0175791Y0073418D01*
X0176904Y0074597D02*
X0143926Y0074597D01*
X0143926Y0075777D02*
X0179728Y0075777D01*
X0179728Y0076956D02*
X0143926Y0076956D01*
X0143210Y0078136D02*
X0180443Y0078136D01*
X0181623Y0079316D02*
X0142031Y0079316D01*
X0132115Y0062801D02*
X0180788Y0062801D01*
X0179118Y0061621D02*
X0131236Y0061621D01*
X0131377Y0060442D02*
X0177938Y0060442D01*
X0176759Y0059262D02*
X0132557Y0059262D01*
X0133099Y0058083D02*
X0175956Y0058083D01*
X0175803Y0056903D02*
X0133099Y0056903D01*
X0133099Y0055723D02*
X0175803Y0055723D01*
X0175803Y0054544D02*
X0141918Y0054544D01*
X0143098Y0053364D02*
X0175803Y0053364D01*
X0175803Y0052185D02*
X0143146Y0052185D01*
X0144326Y0051005D02*
X0175803Y0051005D01*
X0175803Y0049825D02*
X0145505Y0049825D01*
X0146545Y0048646D02*
X0175000Y0048646D01*
X0173821Y0047466D02*
X0146866Y0047466D01*
X0146866Y0046286D02*
X0172641Y0046286D01*
X0171461Y0045107D02*
X0166397Y0045107D01*
X0163162Y0045107D02*
X0146866Y0045107D01*
X0146866Y0043927D02*
X0161982Y0043927D01*
X0161027Y0042748D02*
X0146866Y0042748D01*
X0146866Y0041568D02*
X0161027Y0041568D01*
X0161027Y0040388D02*
X0146866Y0040388D01*
X0146866Y0039209D02*
X0161681Y0039209D01*
X0162860Y0038029D02*
X0146866Y0038029D01*
X0166699Y0038029D02*
X0200783Y0038029D01*
X0199508Y0039209D02*
X0173358Y0039209D01*
X0174538Y0040388D02*
X0198328Y0040388D01*
X0197149Y0041568D02*
X0175717Y0041568D01*
X0176897Y0042748D02*
X0195969Y0042748D01*
X0194789Y0043927D02*
X0178077Y0043927D01*
X0179256Y0045107D02*
X0193803Y0045107D01*
X0193520Y0046286D02*
X0180436Y0046286D01*
X0181194Y0047466D02*
X0193520Y0047466D01*
X0192598Y0048646D02*
X0181315Y0048646D01*
X0181315Y0049825D02*
X0192523Y0049825D01*
X0192523Y0051005D02*
X0181315Y0051005D01*
X0181315Y0052185D02*
X0192877Y0052185D01*
X0194057Y0053364D02*
X0185971Y0053364D01*
X0186552Y0079316D02*
X0185338Y0079316D01*
X0191233Y0085214D02*
X0192448Y0085214D01*
X0192413Y0084034D02*
X0195476Y0084034D01*
X0191268Y0086393D02*
X0190071Y0086393D01*
X0191551Y0100549D02*
X0126969Y0100549D01*
X0126082Y0101728D02*
X0191551Y0101728D01*
X0191551Y0102908D02*
X0124903Y0102908D01*
X0123723Y0104088D02*
X0191551Y0104088D01*
X0191551Y0105267D02*
X0122544Y0105267D01*
X0121364Y0106447D02*
X0191551Y0106447D01*
X0191551Y0107626D02*
X0120304Y0107626D01*
X0120304Y0108806D02*
X0191551Y0108806D01*
X0191551Y0109986D02*
X0119235Y0109986D01*
X0120102Y0148913D02*
X0191551Y0148913D01*
X0191551Y0150092D02*
X0120304Y0150092D01*
X0120304Y0151272D02*
X0191551Y0151272D01*
X0191551Y0152452D02*
X0120076Y0152452D01*
X0119307Y0153631D02*
X0191551Y0153631D01*
X0191551Y0154811D02*
X0119307Y0154811D01*
X0119307Y0155991D02*
X0191551Y0155991D01*
X0191551Y0157170D02*
X0119307Y0157170D01*
X0119307Y0158350D02*
X0191551Y0158350D01*
X0191551Y0159529D02*
X0119307Y0159529D01*
X0119307Y0160709D02*
X0191551Y0160709D01*
X0191551Y0161889D02*
X0191149Y0161889D01*
X0187623Y0161889D02*
X0162605Y0161889D01*
X0162397Y0161680D02*
X0164595Y0163879D01*
X0164595Y0166988D01*
X0162397Y0169186D01*
X0159288Y0169186D01*
X0158291Y0168189D01*
X0150816Y0168189D01*
X0150816Y0169251D01*
X0148617Y0171450D01*
X0145509Y0171450D01*
X0143310Y0169251D01*
X0143310Y0166142D01*
X0145509Y0163944D01*
X0146918Y0163944D01*
X0147766Y0163097D01*
X0148779Y0162677D01*
X0158291Y0162677D01*
X0159288Y0161680D01*
X0162397Y0161680D01*
X0163785Y0163068D02*
X0186443Y0163068D01*
X0185633Y0164248D02*
X0164595Y0164248D01*
X0164595Y0165427D02*
X0185633Y0165427D01*
X0185633Y0166607D02*
X0164595Y0166607D01*
X0163796Y0167787D02*
X0186432Y0167787D01*
X0187612Y0168966D02*
X0162616Y0168966D01*
X0159069Y0168966D02*
X0150816Y0168966D01*
X0149921Y0170146D02*
X0187614Y0170146D01*
X0187614Y0171326D02*
X0148741Y0171326D01*
X0145384Y0171326D02*
X0119307Y0171326D01*
X0119307Y0172505D02*
X0187870Y0172505D01*
X0188819Y0173685D02*
X0119307Y0173685D01*
X0119307Y0174864D02*
X0189998Y0174864D01*
X0191178Y0176044D02*
X0119307Y0176044D01*
X0119444Y0177224D02*
X0192358Y0177224D01*
X0193537Y0178403D02*
X0120623Y0178403D01*
X0123213Y0179583D02*
X0194720Y0179583D01*
X0207501Y0171326D02*
X0210108Y0171326D01*
X0211224Y0170146D02*
X0207902Y0170146D01*
X0210845Y0168966D02*
X0211224Y0168966D01*
X0212024Y0167787D02*
X0212237Y0167787D01*
X0212824Y0166607D02*
X0213416Y0166607D01*
X0212824Y0165427D02*
X0218113Y0165427D01*
X0218113Y0164248D02*
X0212824Y0164248D01*
X0212013Y0163068D02*
X0218924Y0163068D01*
X0220103Y0161889D02*
X0211827Y0161889D01*
X0211827Y0160709D02*
X0244107Y0160709D01*
X0242928Y0161889D02*
X0223629Y0161889D01*
X0224808Y0163068D02*
X0241748Y0163068D01*
X0241192Y0164248D02*
X0225619Y0164248D01*
X0225619Y0165427D02*
X0240764Y0165427D01*
X0240764Y0166607D02*
X0225619Y0166607D01*
X0224820Y0167787D02*
X0240764Y0167787D01*
X0240764Y0168966D02*
X0224622Y0168966D01*
X0224528Y0170146D02*
X0240764Y0170146D01*
X0240764Y0171326D02*
X0223808Y0171326D01*
X0222628Y0172505D02*
X0240764Y0172505D01*
X0240764Y0173685D02*
X0221449Y0173685D01*
X0220269Y0174864D02*
X0240764Y0174864D01*
X0240764Y0176044D02*
X0219090Y0176044D01*
X0217910Y0177224D02*
X0240764Y0177224D01*
X0240764Y0178403D02*
X0216730Y0178403D01*
X0215547Y0179583D02*
X0240764Y0179583D01*
X0240764Y0180762D02*
X0124241Y0180762D01*
X0124241Y0181942D02*
X0240764Y0181942D01*
X0240764Y0183122D02*
X0124241Y0183122D01*
X0123659Y0184301D02*
X0240764Y0184301D01*
X0240764Y0185481D02*
X0122480Y0185481D01*
X0119307Y0170146D02*
X0144205Y0170146D01*
X0143310Y0168966D02*
X0119307Y0168966D01*
X0119307Y0167787D02*
X0143310Y0167787D01*
X0143310Y0166607D02*
X0119307Y0166607D01*
X0119307Y0165427D02*
X0144025Y0165427D01*
X0145205Y0164248D02*
X0119307Y0164248D01*
X0119307Y0163068D02*
X0147834Y0163068D01*
X0159080Y0161889D02*
X0119307Y0161889D01*
X0178559Y0193976D02*
X0188402Y0203819D01*
X0188402Y0209724D01*
X0190821Y0212612D02*
X0204016Y0212612D01*
X0205195Y0211432D02*
X0192001Y0211432D01*
X0192154Y0210253D02*
X0206375Y0210253D01*
X0207554Y0209073D02*
X0192154Y0209073D01*
X0191878Y0207894D02*
X0208734Y0207894D01*
X0209914Y0206714D02*
X0190764Y0206714D01*
X0190764Y0205534D02*
X0211093Y0205534D01*
X0212273Y0204355D02*
X0190764Y0204355D01*
X0190764Y0203175D02*
X0213452Y0203175D01*
X0218982Y0213792D02*
X0273428Y0213792D01*
X0273428Y0214971D02*
X0217803Y0214971D01*
X0216995Y0216151D02*
X0216623Y0216151D01*
X0213792Y0218982D02*
X0192257Y0240517D01*
X0192257Y0240517D01*
X0190651Y0242123D01*
X0189503Y0242598D01*
X0216906Y0242598D01*
X0215758Y0242123D01*
X0214153Y0240517D01*
X0213283Y0238419D01*
X0213283Y0228767D01*
X0213205Y0228576D01*
X0213205Y0226305D01*
X0213283Y0226115D01*
X0213283Y0222861D01*
X0213205Y0222671D01*
X0213205Y0220400D01*
X0213792Y0218982D01*
X0213499Y0219690D02*
X0213084Y0219690D01*
X0213205Y0220869D02*
X0211905Y0220869D01*
X0210725Y0222049D02*
X0213205Y0222049D01*
X0213283Y0223229D02*
X0209545Y0223229D01*
X0208366Y0224408D02*
X0213283Y0224408D01*
X0213283Y0225588D02*
X0207186Y0225588D01*
X0206007Y0226767D02*
X0213205Y0226767D01*
X0213205Y0227947D02*
X0204827Y0227947D01*
X0203647Y0229127D02*
X0213283Y0229127D01*
X0213283Y0230306D02*
X0202468Y0230306D01*
X0201288Y0231486D02*
X0213283Y0231486D01*
X0213283Y0232665D02*
X0200109Y0232665D01*
X0198929Y0233845D02*
X0213283Y0233845D01*
X0213283Y0235025D02*
X0197749Y0235025D01*
X0196570Y0236204D02*
X0213283Y0236204D01*
X0213283Y0237384D02*
X0195390Y0237384D01*
X0194211Y0238564D02*
X0213343Y0238564D01*
X0213832Y0239743D02*
X0193031Y0239743D01*
X0191851Y0240923D02*
X0214558Y0240923D01*
X0215738Y0242102D02*
X0190672Y0242102D01*
X0224701Y0236204D02*
X0339386Y0236204D01*
X0339386Y0235025D02*
X0224701Y0235025D01*
X0224701Y0233845D02*
X0339386Y0233845D01*
X0339386Y0232665D02*
X0224701Y0232665D01*
X0224701Y0231486D02*
X0339386Y0231486D01*
X0339386Y0230306D02*
X0243042Y0230306D01*
X0242580Y0230768D02*
X0243618Y0229730D01*
X0243618Y0222947D01*
X0242580Y0221909D01*
X0236191Y0221909D01*
X0235154Y0222947D01*
X0235154Y0229730D01*
X0236191Y0230768D01*
X0242580Y0230768D01*
X0243618Y0229127D02*
X0339386Y0229127D01*
X0339386Y0227947D02*
X0243618Y0227947D01*
X0243618Y0226767D02*
X0339386Y0226767D01*
X0339386Y0225588D02*
X0243618Y0225588D01*
X0243618Y0224408D02*
X0339386Y0224408D01*
X0339386Y0223229D02*
X0243618Y0223229D01*
X0242720Y0222049D02*
X0339386Y0222049D01*
X0339386Y0220869D02*
X0224701Y0220869D01*
X0224374Y0219690D02*
X0339386Y0219690D01*
X0339386Y0218510D02*
X0223885Y0218510D01*
X0222782Y0217330D02*
X0339386Y0217330D01*
X0339386Y0216151D02*
X0279524Y0216151D01*
X0280540Y0214971D02*
X0339386Y0214971D01*
X0339386Y0213792D02*
X0280540Y0213792D01*
X0280540Y0212612D02*
X0304092Y0212612D01*
X0302913Y0211432D02*
X0279784Y0211432D01*
X0278604Y0210253D02*
X0302759Y0210253D01*
X0302759Y0209073D02*
X0275728Y0209073D01*
X0275803Y0207894D02*
X0303035Y0207894D01*
X0304150Y0206714D02*
X0275803Y0206714D01*
X0275657Y0205534D02*
X0304150Y0205534D01*
X0303412Y0204355D02*
X0276836Y0204355D01*
X0276000Y0201850D02*
X0270094Y0207756D01*
X0275239Y0210253D02*
X0275364Y0210253D01*
X0273428Y0212612D02*
X0273288Y0212612D01*
X0274445Y0216151D02*
X0220831Y0216151D01*
X0230909Y0222049D02*
X0236052Y0222049D01*
X0235154Y0223229D02*
X0231807Y0223229D01*
X0231807Y0224408D02*
X0235154Y0224408D01*
X0235154Y0225588D02*
X0231807Y0225588D01*
X0231807Y0226767D02*
X0235154Y0226767D01*
X0235154Y0227947D02*
X0231807Y0227947D01*
X0231807Y0229127D02*
X0235154Y0229127D01*
X0235730Y0230306D02*
X0231231Y0230306D01*
X0242929Y0237384D02*
X0338225Y0237384D01*
X0337046Y0238564D02*
X0242929Y0238564D01*
X0242929Y0239743D02*
X0335866Y0239743D01*
X0334687Y0240923D02*
X0242929Y0240923D01*
X0242929Y0242102D02*
X0333507Y0242102D01*
X0339386Y0212612D02*
X0308931Y0212612D01*
X0310111Y0211432D02*
X0339386Y0211432D01*
X0339386Y0210253D02*
X0310265Y0210253D01*
X0310265Y0209073D02*
X0339386Y0209073D01*
X0339386Y0207894D02*
X0309988Y0207894D01*
X0308874Y0206714D02*
X0339386Y0206714D01*
X0339386Y0205534D02*
X0308874Y0205534D01*
X0308874Y0204355D02*
X0339386Y0204355D01*
X0339386Y0203175D02*
X0308874Y0203175D01*
X0307734Y0201995D02*
X0339386Y0201995D01*
X0339386Y0200816D02*
X0306554Y0200816D01*
X0305375Y0199636D02*
X0339386Y0199636D01*
X0339386Y0198457D02*
X0304195Y0198457D01*
X0303015Y0197277D02*
X0339386Y0197277D01*
X0339386Y0196097D02*
X0301836Y0196097D01*
X0300656Y0194918D02*
X0339386Y0194918D01*
X0339386Y0193738D02*
X0299930Y0193738D01*
X0299930Y0192559D02*
X0339386Y0192559D01*
X0339386Y0191379D02*
X0298805Y0191379D01*
X0296374Y0193976D02*
X0285843Y0193976D01*
X0277969Y0201850D01*
X0276000Y0201850D01*
X0274873Y0199636D02*
X0252181Y0199636D01*
X0252181Y0198457D02*
X0278022Y0198457D01*
X0279201Y0197277D02*
X0252181Y0197277D01*
X0252181Y0196097D02*
X0280381Y0196097D01*
X0281560Y0194918D02*
X0252181Y0194918D01*
X0252181Y0193738D02*
X0282740Y0193738D01*
X0283920Y0192559D02*
X0252181Y0192559D01*
X0252181Y0191379D02*
X0293943Y0191379D01*
X0296374Y0193976D02*
X0306512Y0204114D01*
X0306512Y0209724D01*
X0302232Y0203175D02*
X0279984Y0203175D01*
X0281164Y0201995D02*
X0301052Y0201995D01*
X0299873Y0200816D02*
X0282344Y0200816D01*
X0283523Y0199636D02*
X0298693Y0199636D01*
X0297514Y0198457D02*
X0284703Y0198457D01*
X0285883Y0197277D02*
X0294646Y0197277D01*
X0273694Y0200816D02*
X0252181Y0200816D01*
X0252181Y0201995D02*
X0272514Y0201995D01*
X0252181Y0190199D02*
X0339386Y0190199D01*
X0339386Y0189020D02*
X0252181Y0189020D01*
X0252181Y0187840D02*
X0339386Y0187840D01*
X0339386Y0186661D02*
X0252181Y0186661D01*
X0252181Y0185481D02*
X0339386Y0185481D01*
X0339386Y0184301D02*
X0252181Y0184301D01*
X0252181Y0183122D02*
X0339386Y0183122D01*
X0339386Y0181942D02*
X0252181Y0181942D01*
X0252181Y0180762D02*
X0252558Y0180762D01*
X0256135Y0180762D02*
X0339386Y0180762D01*
X0339386Y0179583D02*
X0270666Y0179583D01*
X0271849Y0178403D02*
X0339386Y0178403D01*
X0339386Y0177224D02*
X0273028Y0177224D01*
X0300216Y0176044D02*
X0339386Y0176044D01*
X0339386Y0174864D02*
X0301962Y0174864D01*
X0303142Y0173685D02*
X0323236Y0173685D01*
X0327189Y0173685D02*
X0339386Y0173685D01*
X0339386Y0172505D02*
X0328369Y0172505D01*
X0328965Y0171326D02*
X0339386Y0171326D01*
X0339386Y0170146D02*
X0328965Y0170146D01*
X0328965Y0168966D02*
X0339386Y0168966D01*
X0339386Y0167787D02*
X0327952Y0167787D01*
X0326773Y0166607D02*
X0339386Y0166607D01*
X0339386Y0165427D02*
X0316170Y0165427D01*
X0316170Y0166607D02*
X0323653Y0166607D01*
X0326358Y0164248D02*
X0339386Y0164248D01*
X0339386Y0163068D02*
X0328761Y0163068D01*
X0329941Y0161889D02*
X0339386Y0161889D01*
X0339386Y0160709D02*
X0330495Y0160709D01*
X0330921Y0159529D02*
X0339386Y0159529D01*
X0339386Y0158350D02*
X0330921Y0158350D01*
X0330823Y0157170D02*
X0339386Y0157170D01*
X0339386Y0155991D02*
X0330334Y0155991D01*
X0329553Y0154811D02*
X0339386Y0154811D01*
X0339386Y0153631D02*
X0328271Y0153631D01*
X0339386Y0152452D02*
X0211827Y0152452D01*
X0211827Y0153631D02*
X0251288Y0153631D01*
X0250006Y0154811D02*
X0211827Y0154811D01*
X0211827Y0155991D02*
X0248826Y0155991D01*
X0247646Y0157170D02*
X0211827Y0157170D01*
X0211827Y0158350D02*
X0246467Y0158350D01*
X0245287Y0159529D02*
X0211827Y0159529D01*
X0216536Y0166607D02*
X0218113Y0166607D01*
X0217716Y0167787D02*
X0218913Y0167787D01*
X0240764Y0191379D02*
X0181269Y0191379D01*
X0182312Y0192559D02*
X0240764Y0192559D01*
X0240764Y0193738D02*
X0182312Y0193738D01*
X0182841Y0194918D02*
X0240764Y0194918D01*
X0240764Y0196097D02*
X0184021Y0196097D01*
X0185200Y0197277D02*
X0240764Y0197277D01*
X0240764Y0198457D02*
X0186380Y0198457D01*
X0187560Y0199636D02*
X0240764Y0199636D01*
X0240764Y0200816D02*
X0188739Y0200816D01*
X0189919Y0201995D02*
X0240764Y0201995D01*
X0304321Y0172505D02*
X0307718Y0172505D01*
X0256351Y0138296D02*
X0255134Y0138296D01*
X0255134Y0137117D02*
X0255172Y0137117D01*
X0249622Y0126500D02*
X0244453Y0126500D01*
X0245632Y0125321D02*
X0249622Y0125321D01*
X0249622Y0124141D02*
X0246288Y0124141D01*
X0246288Y0122961D02*
X0249622Y0122961D01*
X0249622Y0121782D02*
X0246288Y0121782D01*
X0246276Y0120602D02*
X0249622Y0120602D01*
X0249622Y0119423D02*
X0246276Y0119423D01*
X0246276Y0118243D02*
X0249622Y0118243D01*
X0249622Y0117063D02*
X0246276Y0117063D01*
X0246276Y0115884D02*
X0249622Y0115884D01*
X0249622Y0114704D02*
X0246276Y0114704D01*
X0246276Y0113524D02*
X0249622Y0113524D01*
X0249622Y0112345D02*
X0246276Y0112345D01*
X0246276Y0111165D02*
X0249622Y0111165D01*
X0249622Y0109986D02*
X0246276Y0109986D01*
X0246288Y0108806D02*
X0249622Y0108806D01*
X0249622Y0107626D02*
X0246288Y0107626D01*
X0246288Y0106447D02*
X0249622Y0106447D01*
X0249622Y0105267D02*
X0245748Y0105267D01*
X0244568Y0104088D02*
X0248717Y0104088D01*
X0256039Y0104088D02*
X0256251Y0104088D01*
X0284559Y0086393D02*
X0392400Y0086393D01*
X0392889Y0085214D02*
X0285658Y0085214D01*
X0285658Y0084034D02*
X0393617Y0084034D01*
X0394797Y0082855D02*
X0285658Y0082855D01*
X0268797Y0074597D02*
X0462417Y0074597D01*
X0462417Y0073418D02*
X0268926Y0073418D01*
X0268926Y0072238D02*
X0462417Y0072238D01*
X0462417Y0071058D02*
X0387677Y0071058D01*
X0389390Y0069879D02*
X0462417Y0069879D01*
X0462417Y0068699D02*
X0390333Y0068699D01*
X0390822Y0067520D02*
X0462417Y0067520D01*
X0462417Y0066340D02*
X0391020Y0066340D01*
X0391020Y0065160D02*
X0462417Y0065160D01*
X0462417Y0063981D02*
X0391020Y0063981D01*
X0391020Y0062801D02*
X0462417Y0062801D01*
X0462417Y0061621D02*
X0452265Y0061621D01*
X0455112Y0060442D02*
X0462417Y0060442D01*
X0462417Y0059262D02*
X0456557Y0059262D01*
X0457737Y0058083D02*
X0462417Y0058083D01*
X0462417Y0056903D02*
X0458510Y0056903D01*
X0458999Y0055723D02*
X0462417Y0055723D01*
X0462417Y0054544D02*
X0459487Y0054544D01*
X0459661Y0053364D02*
X0462417Y0053364D01*
X0462417Y0052185D02*
X0459661Y0052185D01*
X0459661Y0051005D02*
X0462417Y0051005D01*
X0462417Y0049825D02*
X0459438Y0049825D01*
X0458949Y0048646D02*
X0462417Y0048646D01*
X0462417Y0047466D02*
X0458461Y0047466D01*
X0457618Y0046286D02*
X0462417Y0046286D01*
X0462417Y0045107D02*
X0456438Y0045107D01*
X0454825Y0043927D02*
X0462417Y0043927D01*
X0440764Y0053364D02*
X0388279Y0053364D01*
X0389639Y0054544D02*
X0440938Y0054544D01*
X0441426Y0055723D02*
X0390436Y0055723D01*
X0390925Y0056903D02*
X0441915Y0056903D01*
X0442688Y0058083D02*
X0391020Y0058083D01*
X0391020Y0059262D02*
X0443868Y0059262D01*
X0445313Y0060442D02*
X0391020Y0060442D01*
X0391020Y0061621D02*
X0448161Y0061621D01*
X0461447Y0075777D02*
X0267617Y0075777D01*
X0265028Y0076956D02*
X0460267Y0076956D01*
X0459087Y0078136D02*
X0263848Y0078136D01*
X0268625Y0071058D02*
X0383142Y0071058D01*
X0381429Y0069879D02*
X0267446Y0069879D01*
X0137208Y0054544D02*
X0132032Y0054544D01*
X0042488Y0023874D02*
X0460546Y0023874D01*
X0459366Y0022694D02*
X0040078Y0022694D01*
X0033575Y0022694D02*
X0024622Y0022694D01*
X0024622Y0021515D02*
X0458187Y0021515D01*
X0457007Y0020335D02*
X0024622Y0020335D01*
X0024622Y0019155D02*
X0455828Y0019155D01*
X0454648Y0017976D02*
X0024622Y0017976D01*
X0024622Y0016796D02*
X0453468Y0016796D01*
X0452289Y0015617D02*
X0024622Y0015617D01*
X0024622Y0014437D02*
X0451109Y0014437D01*
X0449930Y0013257D02*
X0025299Y0013257D01*
X0026478Y0012078D02*
X0448750Y0012078D01*
X0447570Y0010898D02*
X0027658Y0010898D01*
X0028838Y0009718D02*
X0446391Y0009718D01*
X0445211Y0008539D02*
X0030017Y0008539D01*
X0031165Y0023874D02*
X0024622Y0023874D01*
X0024622Y0025053D02*
X0029985Y0025053D01*
X0028812Y0026233D02*
X0024622Y0026233D01*
X0024622Y0027413D02*
X0028323Y0027413D01*
X0027835Y0028592D02*
X0024622Y0028592D01*
X0024622Y0029772D02*
X0027378Y0029772D01*
X0027378Y0030952D02*
X0024622Y0030952D01*
X0024622Y0032131D02*
X0027378Y0032131D01*
X0027378Y0033311D02*
X0024622Y0033311D01*
X0024622Y0034490D02*
X0027807Y0034490D01*
X0028296Y0035670D02*
X0024622Y0035670D01*
X0024622Y0036850D02*
X0028784Y0036850D01*
X0029919Y0038029D02*
X0024622Y0038029D01*
X0024622Y0039209D02*
X0031098Y0039209D01*
X0033414Y0040388D02*
X0024622Y0040388D01*
X0136971Y0204355D02*
X0156302Y0204355D01*
X0156302Y0205534D02*
X0137558Y0205534D01*
X0138008Y0206714D02*
X0156302Y0206714D01*
X0156936Y0207894D02*
X0138008Y0207894D01*
X0138008Y0209073D02*
X0158115Y0209073D01*
D20*
X0132299Y0207756D02*
X0132299Y0217598D01*
X0151984Y0237283D01*
X0187417Y0237283D01*
X0216945Y0207756D01*
X0246472Y0207756D01*
X0253756Y0207756D01*
X0258283Y0207756D01*
X0264189Y0207756D01*
X0268126Y0207756D01*
X0264189Y0207756D01*
X0258283Y0207756D01*
X0268126Y0207756D02*
X0270094Y0207756D01*
X0246472Y0207756D02*
X0246472Y0166417D01*
X0254346Y0158543D01*
X0325213Y0158543D01*
X0218992Y0221614D02*
X0218992Y0227362D01*
X0218913Y0227441D01*
X0218992Y0221614D02*
X0218913Y0221535D01*
X0218992Y0221614D02*
X0218992Y0237283D01*
X0132299Y0207756D02*
X0126394Y0207756D01*
X0120488Y0207756D01*
X0077181Y0221535D02*
X0077181Y0227441D01*
X0077181Y0233346D01*
X0077181Y0237283D01*
X0077181Y0233346D01*
X0077181Y0227441D01*
X0077181Y0233346D02*
X0077181Y0237283D01*
D21*
X0077181Y0233346D03*
X0077181Y0227441D03*
X0077181Y0221535D03*
X0120488Y0207756D03*
X0126394Y0207756D03*
X0132299Y0207756D03*
X0120488Y0182165D03*
X0147063Y0167697D03*
X0160843Y0165433D03*
X0189386Y0165433D03*
X0194307Y0169370D03*
X0199228Y0165433D03*
X0204150Y0169370D03*
X0209071Y0165433D03*
X0214976Y0170354D03*
X0221866Y0165433D03*
X0254346Y0169370D03*
X0261236Y0173307D03*
X0254346Y0177244D03*
X0297654Y0169370D03*
X0312417Y0165433D03*
X0313402Y0158543D03*
X0319307Y0158543D03*
X0325213Y0158543D03*
X0325213Y0170354D03*
X0258283Y0134921D03*
X0252378Y0147717D03*
X0242535Y0123110D03*
X0242535Y0107362D03*
X0252378Y0102441D03*
X0258283Y0107362D03*
X0250409Y0083740D03*
X0259268Y0078819D03*
X0265173Y0072913D03*
X0281906Y0083740D03*
X0226787Y0083740D03*
X0213992Y0074882D03*
X0222850Y0071929D03*
X0218913Y0067992D03*
X0213992Y0063071D03*
X0204150Y0060118D03*
X0199228Y0056181D03*
X0196276Y0050276D03*
X0207102Y0044370D03*
X0183480Y0056181D03*
X0191354Y0064055D03*
X0183480Y0067992D03*
X0179543Y0071929D03*
X0183480Y0075866D03*
X0182496Y0083740D03*
X0177575Y0083740D03*
X0187417Y0083740D03*
X0194307Y0088661D03*
X0199228Y0084724D03*
X0204150Y0088661D03*
X0209071Y0084724D03*
X0140173Y0075866D03*
X0128362Y0064055D03*
X0129346Y0057165D03*
X0164780Y0041417D03*
X0116551Y0107362D03*
X0116551Y0150669D03*
X0071276Y0158543D03*
X0051591Y0158543D03*
X0178559Y0193976D03*
X0188402Y0209724D03*
X0218913Y0221535D03*
X0218913Y0227441D03*
X0218913Y0233346D03*
X0258283Y0207756D03*
X0264189Y0207756D03*
X0270094Y0207756D03*
X0306512Y0209724D03*
D22*
X0273047Y0173307D02*
X0269110Y0177244D01*
X0254346Y0177244D01*
X0261236Y0173307D02*
X0265173Y0169370D01*
X0297654Y0169370D01*
X0299622Y0173307D02*
X0273047Y0173307D01*
X0258283Y0165433D02*
X0294701Y0165433D01*
X0312417Y0165433D01*
X0308480Y0169370D02*
X0303559Y0169370D01*
X0299622Y0173307D01*
X0308480Y0169370D02*
X0309465Y0170354D01*
X0325213Y0170354D01*
X0258283Y0165433D02*
X0254346Y0169370D01*
X0221866Y0169370D02*
X0221866Y0165433D01*
X0221866Y0169370D02*
X0213992Y0177244D01*
X0196276Y0177244D01*
X0190370Y0171339D01*
X0190370Y0166417D01*
X0189386Y0165433D01*
X0194307Y0169370D02*
X0199228Y0174291D01*
X0211039Y0174291D01*
X0214976Y0170354D01*
X0209071Y0165433D02*
X0209071Y0084724D01*
X0204150Y0088661D02*
X0204150Y0169370D01*
X0199228Y0165433D02*
X0199228Y0084724D01*
X0194307Y0088661D02*
X0194307Y0169370D01*
X0160843Y0165433D02*
X0149327Y0165433D01*
X0147063Y0167697D01*
X0120488Y0182165D02*
X0116551Y0178228D01*
X0116551Y0166417D01*
X0116551Y0150669D01*
X0078165Y0121142D02*
X0052378Y0121142D01*
X0116551Y0107362D02*
X0124425Y0099488D01*
X0124425Y0060118D01*
X0127378Y0057165D01*
X0129346Y0057165D01*
X0139563Y0051870D02*
X0144110Y0047323D01*
X0144110Y0028622D01*
X0164780Y0041417D02*
X0171669Y0041417D01*
X0178559Y0048307D01*
X0178559Y0057165D01*
X0181512Y0060118D01*
X0204150Y0060118D01*
X0215961Y0048307D01*
X0217929Y0048307D01*
X0225803Y0048307D01*
X0251394Y0048307D01*
X0254346Y0044370D02*
X0258283Y0048307D01*
X0258283Y0056181D01*
X0254346Y0060118D01*
X0216945Y0060118D01*
X0213992Y0063071D01*
X0207102Y0064055D02*
X0191354Y0064055D01*
X0183480Y0067992D02*
X0218913Y0067992D01*
X0215961Y0070945D02*
X0187417Y0070945D01*
X0186433Y0071929D01*
X0179543Y0071929D01*
X0183480Y0075866D02*
X0187417Y0075866D01*
X0188402Y0074882D01*
X0213992Y0074882D01*
X0216945Y0071929D02*
X0215961Y0070945D01*
X0216945Y0071929D02*
X0222850Y0071929D01*
X0214976Y0056181D02*
X0207102Y0064055D01*
X0199228Y0056181D02*
X0183480Y0056181D01*
X0196276Y0050276D02*
X0196276Y0046339D01*
X0202181Y0040433D01*
X0223835Y0040433D01*
X0221866Y0040433D01*
X0223835Y0040433D02*
X0225803Y0040433D01*
X0251394Y0040433D01*
X0254346Y0044370D02*
X0207102Y0044370D01*
X0214976Y0056181D02*
X0225803Y0056181D01*
X0251394Y0056181D01*
X0265173Y0072913D02*
X0259268Y0078819D01*
X0252378Y0102441D02*
X0252378Y0147717D01*
X0258283Y0134921D02*
X0258283Y0107362D01*
X0140173Y0075866D02*
X0128362Y0064055D01*
D23*
X0077181Y0237283D02*
X0079858Y0239961D01*
X0079937Y0239961D01*
X0218913Y0237283D02*
X0218992Y0237283D01*
X0221669Y0239961D01*
D24*
X0242535Y0123110D02*
X0242535Y0107362D01*
X0250409Y0083740D02*
X0226787Y0083740D01*
X0222850Y0079803D01*
X0191354Y0079803D01*
X0187417Y0083740D01*
X0177575Y0083740D01*
X0182496Y0083740D02*
X0187417Y0083740D01*
X0250409Y0083740D02*
X0258283Y0083740D01*
X0281906Y0083740D01*
X0258283Y0083740D02*
X0250409Y0083740D01*
M02*
