G75*
%MOIN*%
%OFA0B0*%
%FSLAX25Y25*%
%IPPOS*%
%LPD*%
%AMOC8*
5,1,8,0,0,1.08239X$1,22.5*
%
%ADD10C,0.00787*%
%ADD11C,0.00600*%
D10*
X0021079Y0099488D02*
X0033874Y0099488D01*
X0049622Y0099488D02*
X0057890Y0099488D01*
X0057890Y0150669D01*
X0049622Y0150669D01*
X0033874Y0150669D02*
X0021079Y0150669D01*
X0074031Y0224685D02*
X0074031Y0237480D01*
X0076000Y0237480D01*
X0074031Y0224685D02*
X0081906Y0224685D01*
X0089780Y0224685D02*
X0093717Y0224685D01*
X0101591Y0224685D02*
X0109465Y0224685D01*
X0109465Y0237480D01*
X0107496Y0237480D01*
X0215764Y0237480D02*
X0215764Y0224685D01*
X0223638Y0224685D01*
X0231512Y0224685D02*
X0235449Y0224685D01*
X0243323Y0224685D02*
X0251197Y0224685D01*
X0251197Y0237480D01*
X0249228Y0237480D01*
X0217732Y0237480D02*
X0215764Y0237480D01*
X0393520Y0082165D02*
X0393522Y0082221D01*
X0393528Y0082276D01*
X0393538Y0082330D01*
X0393551Y0082384D01*
X0393569Y0082437D01*
X0393590Y0082488D01*
X0393614Y0082538D01*
X0393642Y0082586D01*
X0393674Y0082632D01*
X0393708Y0082676D01*
X0393746Y0082717D01*
X0393786Y0082755D01*
X0393829Y0082790D01*
X0393874Y0082822D01*
X0393922Y0082851D01*
X0393971Y0082877D01*
X0394022Y0082899D01*
X0394074Y0082917D01*
X0394128Y0082931D01*
X0394183Y0082942D01*
X0394238Y0082949D01*
X0394293Y0082952D01*
X0394349Y0082951D01*
X0394404Y0082946D01*
X0394459Y0082937D01*
X0394513Y0082925D01*
X0394566Y0082908D01*
X0394618Y0082888D01*
X0394668Y0082864D01*
X0394716Y0082837D01*
X0394763Y0082807D01*
X0394807Y0082773D01*
X0394849Y0082736D01*
X0394887Y0082696D01*
X0394924Y0082654D01*
X0394957Y0082609D01*
X0394986Y0082563D01*
X0395013Y0082514D01*
X0395035Y0082463D01*
X0395055Y0082411D01*
X0395070Y0082357D01*
X0395082Y0082303D01*
X0395090Y0082248D01*
X0395094Y0082193D01*
X0395094Y0082137D01*
X0395090Y0082082D01*
X0395082Y0082027D01*
X0395070Y0081973D01*
X0395055Y0081919D01*
X0395035Y0081867D01*
X0395013Y0081816D01*
X0394986Y0081767D01*
X0394957Y0081721D01*
X0394924Y0081676D01*
X0394887Y0081634D01*
X0394849Y0081594D01*
X0394807Y0081557D01*
X0394763Y0081523D01*
X0394716Y0081493D01*
X0394668Y0081466D01*
X0394618Y0081442D01*
X0394566Y0081422D01*
X0394513Y0081405D01*
X0394459Y0081393D01*
X0394404Y0081384D01*
X0394349Y0081379D01*
X0394293Y0081378D01*
X0394238Y0081381D01*
X0394183Y0081388D01*
X0394128Y0081399D01*
X0394074Y0081413D01*
X0394022Y0081431D01*
X0393971Y0081453D01*
X0393922Y0081479D01*
X0393874Y0081508D01*
X0393829Y0081540D01*
X0393786Y0081575D01*
X0393746Y0081613D01*
X0393708Y0081654D01*
X0393674Y0081698D01*
X0393642Y0081744D01*
X0393614Y0081792D01*
X0393590Y0081842D01*
X0393569Y0081893D01*
X0393551Y0081946D01*
X0393538Y0082000D01*
X0393528Y0082054D01*
X0393522Y0082109D01*
X0393520Y0082165D01*
X0395094Y0079803D02*
X0395094Y0046339D01*
X0355724Y0046339D01*
X0355724Y0079803D01*
X0395094Y0079803D01*
D11*
X0391842Y0081821D02*
X0391108Y0081087D01*
X0390374Y0081087D01*
X0389640Y0081821D01*
X0389640Y0085491D01*
X0390374Y0085491D02*
X0388906Y0085491D01*
X0387238Y0084757D02*
X0386504Y0085491D01*
X0385036Y0085491D01*
X0384302Y0084757D01*
X0384302Y0084023D01*
X0387238Y0081087D01*
X0384302Y0081087D01*
X0383333Y0082727D02*
X0382599Y0081993D01*
X0381131Y0081993D01*
X0380397Y0082727D01*
X0378729Y0081993D02*
X0375793Y0081993D01*
X0377261Y0081993D02*
X0377261Y0086397D01*
X0378729Y0084929D01*
X0380397Y0085663D02*
X0381131Y0086397D01*
X0382599Y0086397D01*
X0383333Y0085663D01*
X0383333Y0082727D01*
X0378062Y0090179D02*
X0375126Y0090179D01*
X0389890Y0090179D02*
X0392826Y0090179D01*
X0391358Y0091647D02*
X0391358Y0088711D01*
X0233880Y0218017D02*
X0230944Y0222420D01*
X0229276Y0222420D02*
X0227074Y0222420D01*
X0226340Y0221686D01*
X0226340Y0220952D01*
X0227074Y0220218D01*
X0229276Y0220218D01*
X0229276Y0218017D02*
X0227074Y0218017D01*
X0226340Y0218750D01*
X0226340Y0219484D01*
X0227074Y0220218D01*
X0229276Y0218017D02*
X0229276Y0222420D01*
X0233880Y0222420D02*
X0230944Y0218017D01*
X0224672Y0222420D02*
X0221736Y0222420D01*
X0223204Y0222420D02*
X0223204Y0218017D01*
X0220068Y0218017D02*
X0217132Y0220952D01*
X0217132Y0221686D01*
X0217866Y0222420D01*
X0219334Y0222420D01*
X0220068Y0221686D01*
X0220068Y0218017D02*
X0217132Y0218017D01*
X0092147Y0218017D02*
X0089211Y0222420D01*
X0087543Y0222420D02*
X0085341Y0222420D01*
X0084607Y0221686D01*
X0084607Y0220952D01*
X0085341Y0220218D01*
X0087543Y0220218D01*
X0087543Y0218017D02*
X0085341Y0218017D01*
X0084607Y0218750D01*
X0084607Y0219484D01*
X0085341Y0220218D01*
X0087543Y0218017D02*
X0087543Y0222420D01*
X0082939Y0222420D02*
X0080004Y0222420D01*
X0081471Y0222420D02*
X0081471Y0218017D01*
X0078335Y0218017D02*
X0075400Y0218017D01*
X0076868Y0218017D02*
X0076868Y0222420D01*
X0078335Y0220952D01*
X0089211Y0218017D02*
X0092147Y0222420D01*
X0059489Y0149301D02*
X0059489Y0146365D01*
X0059489Y0147833D02*
X0063893Y0147833D01*
X0062425Y0146365D01*
X0063893Y0144697D02*
X0063893Y0143229D01*
X0063893Y0143963D02*
X0060223Y0143963D01*
X0059489Y0143229D01*
X0059489Y0142495D01*
X0060223Y0141761D01*
M02*
